<svg width="15" height="15" viewBox="0 0 15 15" fill="none" xmlns="http://www.w3.org/2000/svg">
<path d="M10.1415 2.42041C8.94216 2.42041 7.91081 3.15418 7.47316 4.19646C7.03521 3.15418 6.00342 2.42041 4.80346 2.42041C3.20816 2.42041 1.91016 3.71799 1.91016 5.31303C1.91016 5.92856 2.10895 6.52197 2.4901 7.03571L7.29813 13.0404C7.34073 13.0934 7.405 13.1244 7.47316 13.1244H7.47331C7.54147 13.1244 7.60589 13.0933 7.64834 13.0401L12.5604 6.88415C12.565 6.87817 12.5697 6.87189 12.5739 6.86546C12.8762 6.39432 13.0362 5.85741 13.0362 5.31303C13.0363 3.71799 11.7376 2.42041 10.1415 2.42041ZM12.2027 6.61375L7.47286 12.5413L2.8451 6.76203C2.52672 6.33259 2.35842 5.83155 2.35842 5.31303C2.35842 3.96522 3.45524 2.86883 4.80331 2.86883C6.15184 2.86883 7.24896 3.96522 7.24896 5.31303C7.24896 5.43694 7.34925 5.53724 7.47316 5.53724C7.59707 5.53724 7.69737 5.43694 7.69737 5.31303C7.69737 3.96522 8.79374 2.86883 10.1415 2.86883C11.4903 2.86883 12.5879 3.96522 12.5879 5.31303C12.5879 5.76788 12.4547 6.21734 12.2027 6.61375Z" fill="#171717"/>
</svg>
