<svg width="40" height="40" viewBox="0 0 40 40" fill="none" xmlns="http://www.w3.org/2000/svg">
<g clip-path="url(#clip0_4639_1662)">
<path d="M10.5306 4.4375C5.60869 6.875 1.54619 8.89063 1.52275 8.92188C1.46806 8.97656 3.18681 9.85938 6.68681 11.5625L8.72587 12.5547L17.7806 7.92188C22.7571 5.375 26.8431 3.25781 26.8509 3.22656C26.8665 3.1875 25.429 2.44531 23.6556 1.57813C20.5227 0.046876 20.4134 9.53674e-07 19.9602 0.00781345C19.4993 0.00781345 19.2884 0.109376 10.5306 4.4375Z" fill="#F77705"/>
<path d="M21.6406 9.25C16.9297 11.6562 12.8359 13.7656 12.5391 13.9219L11.9922 14.2109L15.9609 16.1641C18.1484 17.2422 19.9766 18.125 20.0234 18.125C20.1875 18.1172 38.4609 9.02344 38.4531 8.95312C38.4453 8.89844 30.2656 4.82812 30.2109 4.85156C30.2031 4.85938 26.3437 6.83594 21.6406 9.25Z" fill="#F77705"/>
<path d="M0 20.7029C0 29.6794 0 29.8591 0.15625 30.156C0.242188 30.3201 0.421875 30.5466 0.5625 30.6482C0.914062 30.906 18.4375 40.031 18.4844 39.9763C18.5078 39.9607 18.5312 35.6091 18.5391 30.3201L18.5547 20.7029L14.5312 18.7185L10.5078 16.7341L10.4688 19.4373C10.4219 22.4373 10.4062 22.5388 9.89062 22.9294C9.29688 23.3748 8.63281 23.3591 8.07812 22.8748C7.52344 22.3826 7.53906 22.531 7.51562 18.6873L7.49219 15.2263L3.77344 13.3982C1.72656 12.3904 0.0390625 11.5623 0.0234375 11.5623C0.015625 11.5623 0 15.6794 0 20.7029Z" fill="#F77705"/>
<path d="M30.7423 16.1248L21.5236 20.6717L21.5002 30.3436C21.4845 39.117 21.4923 40.0154 21.6095 39.9686C21.797 39.8983 39.8752 30.4608 39.9455 30.3983C39.9767 30.367 39.9923 26.117 39.9845 20.9608L39.9611 11.5701L30.7423 16.1248Z" fill="#F77705"/>
</g>
<defs>
<clipPath id="clip0_4639_1662">
<rect width="40" height="40" fill="white"/>
</clipPath>
</defs>
</svg>
