<svg width="40" height="40" viewBox="0 0 40 40" fill="none" xmlns="http://www.w3.org/2000/svg">
<path d="M27.1931 24.7647C26.9872 24.6553 26.6565 24.4798 26.5779 24.4475C24.746 23.5613 22.6924 23.0637 20.525 23.0637C12.8318 23.0637 6.57428 29.3257 6.58106 37.02C6.58146 37.3456 6.85398 37.6058 7.17956 37.6058H33.8712C34.1968 37.6058 34.4693 37.3456 34.4697 37.02C34.4737 31.7396 31.5279 27.1351 27.1931 24.7647ZM14.3644 30.8227H25.9355V36.4088H14.3644V30.8227ZM25.9355 25.532V29.6257H14.3644V25.8352C14.3644 25.818 14.3608 25.8021 14.3592 25.7853C16.1571 24.8141 18.2124 24.2607 20.3953 24.2607C22.3804 24.2607 24.2593 24.7196 25.9355 25.532ZM13.1674 26.5171V36.4088H7.66236C7.85308 32.3098 9.99094 28.7128 13.1674 26.5171ZM27.1325 36.4088V26.1943C30.5791 28.3493 32.9288 32.1019 33.1287 36.4088H27.1325Z" fill="#171717"/>
<path d="M12.0998 14.0647H12.2897C12.5878 18.2243 16.0571 21.5197 20.2901 21.5197C24.5247 21.5197 27.9956 18.2243 28.2941 14.0647H28.484C29.3028 14.0647 29.944 13.2504 29.944 12.2106C29.944 11.4237 29.5761 10.7678 29.0426 10.4945C28.8016 6.79171 26.2696 3.64757 22.6837 2.6357C22.2991 1.68408 21.367 1.00977 20.2793 1.00977C19.1885 1.00977 18.2544 1.68807 17.8717 2.64408C14.3015 3.66513 11.7822 6.80209 11.542 10.4945C11.0085 10.7678 10.6406 11.4241 10.6406 12.2106C10.6398 13.2504 11.2814 14.0647 12.0998 14.0647ZM20.2901 20.3227C16.7174 20.3227 13.7816 17.564 13.4867 14.0647H27.0967C26.8022 17.564 23.8648 20.3227 20.2901 20.3227ZM28.4864 12.8677H12.0974C12.0363 12.8585 11.834 12.6347 11.834 12.2102C11.834 11.9408 11.915 11.7617 11.9905 11.6579C12.03 11.6663 12.0707 11.6707 12.1129 11.6707H28.4709C28.5127 11.6707 28.5538 11.6663 28.5929 11.6579C28.6684 11.7621 28.7494 11.9408 28.7494 12.2102C28.7494 12.6347 28.5471 12.8581 28.4864 12.8677ZM27.7171 10.4737H22.7432V3.94962C25.535 4.9551 27.4853 7.49795 27.7171 10.4737ZM21.5462 3.6348V10.4737H18.7531V3.60288C18.7531 2.68598 19.6421 1.97256 20.6025 2.27819C21.1791 2.46174 21.5462 3.02992 21.5462 3.6348ZM17.5561 3.95959V10.4737H12.6085C12.8395 7.50752 14.7787 4.97186 17.5561 3.95959Z" fill="#171717"/>
</svg>
