<svg width="26" height="28" viewBox="0 0 26 28" fill="none" xmlns="http://www.w3.org/2000/svg">
<path d="M7.65187 11.6875H4.73357C4.48575 11.6875 4.28516 11.8881 4.28516 12.1359V15.0542C4.28516 15.3017 4.48575 15.5026 4.73357 15.5026H7.65187C7.8997 15.5026 8.10029 15.3017 8.10029 15.0542V12.1359C8.10029 11.8884 7.8997 11.6875 7.65187 11.6875ZM7.20345 14.6058H5.18199V12.5843H7.20345V14.6058Z" fill="#5D5D5D"/>
<path d="M14.4566 11.6875H11.5383C11.2904 11.6875 11.0898 11.8881 11.0898 12.1359V15.0542C11.0898 15.3017 11.2904 15.5026 11.5383 15.5026H14.4566C14.7041 15.5026 14.905 15.3017 14.905 15.0542V12.1359C14.905 11.8884 14.7041 11.6875 14.4566 11.6875ZM14.0081 14.6058H11.9867V12.5843H14.0081V14.6058Z" fill="#5D5D5D"/>
<path d="M21.0542 11.6875H18.1359C17.8884 11.6875 17.6875 11.8881 17.6875 12.1359V15.0542C17.6875 15.3017 17.8884 15.5026 18.1359 15.5026H21.0542C21.3017 15.5026 21.5026 15.3017 21.5026 15.0542V12.1359C21.5026 11.8884 21.3017 11.6875 21.0542 11.6875ZM20.6058 14.6058H18.5843V12.5843H20.6058V14.6058Z" fill="#5D5D5D"/>
<path d="M7.65187 18.3345H4.73357C4.48575 18.3345 4.28516 18.5354 4.28516 18.7829V21.7012C4.28516 21.9487 4.48575 22.1496 4.73357 22.1496H7.65187C7.8997 22.1496 8.10029 21.9487 8.10029 21.7012V18.7829C8.10029 18.5354 7.8997 18.3345 7.65187 18.3345ZM7.20345 21.2528H5.18199V19.2313H7.20345V21.2528Z" fill="#5D5D5D"/>
<path d="M14.4566 18.3345H11.5383C11.2904 18.3345 11.0898 18.5354 11.0898 18.7829V21.7012C11.0898 21.9487 11.2904 22.1496 11.5383 22.1496H14.4566C14.7041 22.1496 14.905 21.9487 14.905 21.7012V18.7829C14.905 18.5354 14.7041 18.3345 14.4566 18.3345ZM14.0081 21.2528H11.9867V19.2313H14.0081V21.2528Z" fill="#5D5D5D"/>
<path d="M21.0542 18.3345H18.1359C17.8884 18.3345 17.6875 18.5354 17.6875 18.7829V21.7012C17.6875 21.9487 17.8884 22.1496 18.1359 22.1496H21.0542C21.3017 22.1496 21.5026 21.9487 21.5026 21.7012V18.7829C21.5026 18.5354 21.3017 18.3345 21.0542 18.3345ZM20.6058 21.2528H18.5843V19.2313H20.6058V21.2528Z" fill="#5D5D5D"/>
<path d="M24.6045 3.00387H21.6429C21.639 3.00387 21.6357 3.00477 21.6318 3.00507V2.40778C21.6318 1.43083 20.8372 0.63623 19.8603 0.63623C18.8833 0.63623 18.0887 1.43112 18.0887 2.40778V3.00387H14.7516V2.40778C14.7516 1.43083 13.957 0.63623 12.9801 0.63623C12.0031 0.63623 11.2085 1.43112 11.2085 2.40778V3.00387H7.8711V2.40778C7.8711 1.43083 7.07651 0.63623 6.09956 0.63623C5.12261 0.63623 4.32801 1.43112 4.32801 2.40778V3.00417C4.32652 3.00417 4.32502 3.00387 4.32353 3.00387H1.36248C1.11465 3.00387 0.914062 3.20446 0.914062 3.45229V26.694C0.914062 26.9416 1.11465 27.1425 1.36248 27.1425H24.6045C24.8521 27.1425 25.053 26.9416 25.053 26.694V3.45229C25.053 3.20446 24.8521 3.00387 24.6045 3.00387ZM18.9856 2.40778C18.9856 1.92528 19.3778 1.53306 19.8603 1.53306C20.3428 1.53306 20.735 1.92528 20.735 2.40778V4.88214C20.735 5.36434 20.3428 5.75686 19.8603 5.75686C19.3778 5.75686 18.9856 5.36464 18.9856 4.88214V2.40778ZM12.9801 1.53306C13.4623 1.53306 13.8548 1.92528 13.8548 2.40778V4.88214C13.8548 5.36434 13.4626 5.75686 12.9801 5.75686C12.4976 5.75686 12.1054 5.36464 12.1054 4.88214V3.49414C12.1066 3.48009 12.1095 3.46664 12.1095 3.45199C12.1095 3.43734 12.1066 3.42389 12.1054 3.40984V2.40778C12.1054 1.92528 12.4976 1.53306 12.9801 1.53306ZM5.22485 2.40778C5.22485 1.92528 5.61706 1.53306 6.09956 1.53306C6.58176 1.53306 6.97427 1.92528 6.97427 2.40778V4.88214C6.97427 5.36434 6.58206 5.75686 6.09956 5.75686C5.61706 5.75686 5.22485 5.36464 5.22485 4.88214V2.40778ZM24.1561 26.2456H1.8109V3.90071H4.32353C4.32502 3.90071 4.32652 3.90041 4.32801 3.90041V4.88244C4.32801 5.85939 5.12291 6.65399 6.09956 6.65399C7.07621 6.65399 7.8711 5.85939 7.8711 4.88244V3.90101H11.2085V4.88244C11.2085 5.85939 12.0034 6.65399 12.9801 6.65399C13.9567 6.65399 14.7516 5.85939 14.7516 4.88244V3.90101H18.0887V4.88244C18.0887 5.85939 18.8833 6.65399 19.8603 6.65399C20.8372 6.65399 21.6318 5.85939 21.6318 4.88244V3.89951C21.6357 3.89951 21.639 3.90071 21.6429 3.90071H24.1561V26.2456Z" fill="#5D5D5D"/>
</svg>
