<svg width="40" height="40" viewBox="0 0 40 40" fill="none" xmlns="http://www.w3.org/2000/svg">
<path d="M21.8628 16.1602C21.6153 15.9417 21.2378 15.9648 21.019 16.2128L12.7319 25.6012C12.5134 25.8488 12.537 26.2266 12.7845 26.4451C12.8981 26.5455 13.0392 26.5945 13.1799 26.5945C13.3453 26.5945 13.5103 26.5264 13.6283 26.3924L21.9154 17.004C22.1339 16.7565 22.1104 16.379 21.8628 16.1602Z" fill="white"/>
<path d="M14.3067 20.2186C14.9787 19.9316 15.4993 19.3995 15.7727 18.7211C16.0462 18.0419 16.0386 17.2973 15.7524 16.6241C15.4658 15.9505 14.9337 15.4287 14.2553 15.1557C12.8558 14.5909 11.2559 15.2721 10.6879 16.6747C10.4145 17.3539 10.4228 18.0989 10.7118 18.7729C11 19.4462 11.5333 19.9671 12.2117 20.2402C12.5421 20.3733 12.8877 20.4394 13.2333 20.4394C13.5972 20.4398 13.9615 20.3661 14.3067 20.2186ZM11.8107 18.3026C11.6481 17.9227 11.6433 17.5034 11.7968 17.1228C12.0407 16.5201 12.6219 16.153 13.2337 16.153C13.425 16.153 13.6199 16.1889 13.8081 16.265C14.1907 16.4188 14.4901 16.7126 14.6519 17.0921C14.8137 17.4715 14.8173 17.8912 14.6631 18.2739C14.5088 18.6569 14.2154 18.9567 13.8368 19.1185C13.4577 19.2799 13.0396 19.2843 12.6581 19.1309C12.2747 18.977 11.9738 18.6825 11.8107 18.3026Z" fill="white"/>
<path d="M34.5062 17.4564C34.5019 17.2977 34.4341 17.1475 34.3185 17.0383C34.2033 16.9294 34.053 16.8709 33.89 16.8756L30.4534 16.9805L31.229 14.5391C31.2768 14.388 31.2629 14.2238 31.19 14.0831C31.117 13.942 30.9911 13.836 30.84 13.7881L25.1632 11.9845L24.1958 1.5597C24.1671 1.25238 23.875 1.01721 23.5661 1.01721C23.3165 1.01721 23.0933 1.17226 23.006 1.40584L19.7001 10.249L9.84211 7.11648C9.52882 7.01723 9.19161 7.19062 9.09116 7.50551L2.41911 28.5026C2.31907 28.8175 2.49325 29.1535 2.80814 29.2535L13.5207 32.6579L13.6794 38.2621C13.6885 38.5862 13.9544 38.8433 14.2769 38.8433C14.2828 38.8433 14.2884 38.8433 14.294 38.8433L34.4955 38.2737C34.6537 38.2693 34.804 38.202 34.9132 38.0868C35.022 37.9716 35.0806 37.8177 35.0762 37.6591L34.5062 17.4564ZM23.24 4.19559L23.926 11.5911L20.8413 10.6109L23.24 4.19559ZM10.0502 8.43702L29.9085 14.7467L23.5987 34.605L3.74005 28.2945L10.0502 8.43702ZM14.858 37.6296L14.7281 33.0406L23.8064 35.9256C23.8654 35.9443 23.9264 35.9535 23.9874 35.9535C24.0822 35.9535 24.1767 35.9308 24.262 35.8865C24.4031 35.8136 24.5091 35.6876 24.557 35.5366L30.0691 18.1886L33.3272 18.0889L33.8637 37.0939L14.858 37.6296Z" fill="white"/>
<path d="M21.4699 23.3308C20.7911 23.057 20.0457 23.0638 19.3713 23.3512C18.6977 23.6382 18.1759 24.1699 17.9025 24.8491C17.6291 25.5275 17.637 26.2721 17.9244 26.9457C18.2118 27.6193 18.7447 28.1407 19.4235 28.4129C19.7544 28.5464 20.1011 28.613 20.4471 28.613C20.811 28.613 21.1745 28.5393 21.5189 28.3926C22.1926 28.106 22.7139 27.5739 22.9873 26.8943C23.2608 26.2151 23.2532 25.4705 22.967 24.7981C22.6808 24.1248 22.1487 23.6039 21.4699 23.3308ZM21.8785 26.4478C21.7246 26.8305 21.4308 27.1302 21.0514 27.2921C20.6723 27.4539 20.2534 27.4575 19.87 27.3032C19.4869 27.1498 19.1868 26.856 19.0245 26.4761C18.8627 26.0967 18.8583 25.6774 19.0122 25.2955C19.166 24.9129 19.4602 24.6127 19.8401 24.4509C20.0346 24.368 20.2394 24.3265 20.4447 24.3265C20.6404 24.3265 20.8361 24.3644 21.0235 24.4397C21.4061 24.5936 21.7059 24.8874 21.8673 25.266C22.0283 25.6451 22.0323 26.0648 21.8785 26.4478Z" fill="white"/>
</svg>
