<svg width="40" height="40" viewBox="0 0 40 40" fill="none" xmlns="http://www.w3.org/2000/svg">
<path d="M36.9268 9.32673C36.8707 9.25817 36.7999 9.20303 36.7198 9.16534C36.6396 9.12765 36.552 9.10837 36.4634 9.10891H13.8614C13.725 9.1087 13.5927 9.15542 13.4867 9.24124C13.3807 9.32706 13.3074 9.44675 13.2793 9.5802L8.88322 30.5703C8.86469 30.6579 8.86621 30.7485 8.88764 30.8355C8.90908 30.9224 8.94989 31.0033 9.00702 31.0723C9.06414 31.1412 9.13611 31.1963 9.21755 31.2335C9.29898 31.2707 9.38777 31.2891 9.47728 31.2871H32.0793C32.2157 31.2873 32.348 31.2406 32.454 31.1548C32.56 31.069 32.6332 30.9493 32.6614 30.8158L37.0575 9.82574C37.0746 9.73809 37.0717 9.64771 37.0491 9.56131C37.0265 9.47492 36.9847 9.39474 36.9268 9.32673ZM20.4515 10.297H29.8099L29.1367 14.2574H19.7783L20.4515 10.297ZM31.5842 30.099H10.1981L14.3565 10.297H19.2436L18.4872 14.7525C18.4728 14.8377 18.4771 14.925 18.5 15.0084C18.5228 15.0917 18.5635 15.1691 18.6193 15.2351C18.6751 15.3011 18.7447 15.3541 18.8231 15.3905C18.9015 15.4268 18.9869 15.4456 19.0733 15.4455H29.6397C29.7801 15.4456 29.9161 15.396 30.0234 15.3053C30.1307 15.2147 30.2024 15.089 30.2258 14.9505L31.0179 10.297H35.7307L31.5842 30.099Z" fill="white"/>
<path d="M4.15839 11.0891H10.099C10.2565 11.0891 10.4076 11.0265 10.519 10.9151C10.6305 10.8037 10.693 10.6526 10.693 10.495C10.693 10.3375 10.6305 10.1864 10.519 10.075C10.4076 9.96357 10.2565 9.90099 10.099 9.90099H4.15839C4.00084 9.90099 3.84973 9.96357 3.73833 10.075C3.62692 10.1864 3.56433 10.3375 3.56433 10.495C3.56433 10.6526 3.62692 10.8037 3.73833 10.9151C3.84973 11.0265 4.00084 11.0891 4.15839 11.0891Z" fill="white"/>
<path d="M3.76239 17.4257H8.91091C9.06846 17.4257 9.21956 17.3632 9.33097 17.2517C9.44238 17.1403 9.50497 16.9892 9.50497 16.8317C9.50497 16.6741 9.44238 16.523 9.33097 16.4116C9.21956 16.3002 9.06846 16.2376 8.91091 16.2376H3.76239C3.60484 16.2376 3.45374 16.3002 3.34233 16.4116C3.23092 16.523 3.16833 16.6741 3.16833 16.8317C3.16833 16.9892 3.23092 17.1403 3.34233 17.2517C3.45374 17.3632 3.60484 17.4257 3.76239 17.4257Z" fill="white"/>
<path d="M8.11883 22.1782H3.76239C3.60484 22.1782 3.45374 22.2408 3.34233 22.3522C3.23092 22.4636 3.16833 22.6147 3.16833 22.7723C3.16833 22.9298 3.23092 23.0809 3.34233 23.1923C3.45374 23.3038 3.60484 23.3663 3.76239 23.3663H8.11883C8.27638 23.3663 8.42748 23.3038 8.53889 23.1923C8.6503 23.0809 8.71289 22.9298 8.71289 22.7723C8.71289 22.6147 8.6503 22.4636 8.53889 22.3522C8.42748 22.2408 8.27638 22.1782 8.11883 22.1782Z" fill="white"/>
<path d="M6.93071 28.9109H3.76239C3.60484 28.9109 3.45374 28.9735 3.34233 29.0849C3.23092 29.1963 3.16833 29.3474 3.16833 29.5049C3.16833 29.6625 3.23092 29.8136 3.34233 29.925C3.45374 30.0364 3.60484 30.099 3.76239 30.099H6.93071C7.08827 30.099 7.23937 30.0364 7.35077 29.925C7.46218 29.8136 7.52477 29.6625 7.52477 29.5049C7.52477 29.3474 7.46218 29.1963 7.35077 29.0849C7.23937 28.9735 7.08827 28.9109 6.93071 28.9109Z" fill="white"/>
<path d="M28.0515 20.3802C27.9003 20.3401 27.7393 20.3613 27.6036 20.4392C27.4679 20.517 27.3684 20.6453 27.3267 20.796L25.8614 26.1822C25.8362 26.2587 25.8268 26.3396 25.8338 26.4199C25.8408 26.5001 25.8641 26.5782 25.9022 26.6491C25.9404 26.7201 25.9925 26.7826 26.0556 26.8328C26.1186 26.883 26.1912 26.9199 26.269 26.9411C26.3467 26.9624 26.4279 26.9676 26.5077 26.9564C26.5876 26.9453 26.6643 26.918 26.7332 26.8763C26.8021 26.8346 26.8619 26.7793 26.9088 26.7137C26.9557 26.6482 26.9887 26.5738 27.0059 26.495L28.4673 21.1089C28.5086 20.9571 28.488 20.7952 28.41 20.6586C28.3321 20.522 28.2031 20.4219 28.0515 20.3802Z" fill="white"/>
<path d="M22.9029 20.3802C22.7517 20.3401 22.5908 20.3613 22.4551 20.4392C22.3194 20.517 22.2199 20.6453 22.1782 20.796L20.7128 26.1822C20.6876 26.2587 20.6782 26.3396 20.6852 26.4199C20.6923 26.5001 20.7156 26.5782 20.7537 26.6491C20.7918 26.7201 20.844 26.7826 20.907 26.8328C20.9701 26.883 21.0427 26.9199 21.1204 26.9411C21.1981 26.9624 21.2794 26.9676 21.3592 26.9564C21.439 26.9453 21.5157 26.918 21.5847 26.8763C21.6536 26.8346 21.7133 26.7793 21.7602 26.7137C21.8071 26.6482 21.8402 26.5738 21.8574 26.495L23.3188 21.1089C23.36 20.9571 23.3394 20.7952 23.2615 20.6586C23.1835 20.522 23.0546 20.4219 22.9029 20.3802Z" fill="white"/>
<path d="M17.7545 20.3802C17.6033 20.3401 17.4423 20.3613 17.3066 20.4392C17.1709 20.517 17.0714 20.6453 17.0297 20.796L15.5644 26.1822C15.5392 26.2587 15.5298 26.3396 15.5368 26.4199C15.5438 26.5001 15.5671 26.5782 15.6052 26.6491C15.6434 26.7201 15.6955 26.7826 15.7586 26.8328C15.8216 26.883 15.8942 26.9199 15.972 26.9411C16.0497 26.9624 16.1309 26.9676 16.2108 26.9564C16.2906 26.9453 16.3673 26.918 16.4362 26.8763C16.5052 26.8346 16.5649 26.7793 16.6118 26.7137C16.6587 26.6482 16.6917 26.5738 16.7089 26.495L18.1703 21.1089C18.2116 20.9571 18.191 20.7952 18.113 20.6586C18.0351 20.522 17.9061 20.4219 17.7545 20.3802Z" fill="white"/>
</svg>
