<svg width="40" height="40" viewBox="0 0 40 40" fill="none" xmlns="http://www.w3.org/2000/svg">
<path d="M35.002 12.7881L20.3486 2.09505C20.2465 2.01978 20.1229 1.97918 19.9961 1.97918C19.8692 1.97918 19.7457 2.01978 19.6436 2.09505L5.3862 12.7881C5.31242 12.8435 5.25253 12.9152 5.21129 12.9977C5.17005 13.0802 5.14857 13.1711 5.14857 13.2634V33.8574C5.14805 33.9358 5.16303 34.0134 5.19265 34.086C5.22227 34.1585 5.26595 34.2245 5.32116 34.28C5.37638 34.3356 5.44204 34.3797 5.51438 34.4098C5.58671 34.4399 5.66428 34.4554 5.74263 34.4554H34.6535C34.8111 34.4554 34.9622 34.3929 35.0736 34.2814C35.185 34.17 35.2476 34.0189 35.2476 33.8614V13.2673C35.2473 13.1738 35.2249 13.0816 35.1822 12.9983C35.1395 12.915 35.0778 12.843 35.002 12.7881ZM29.703 25.7426H23.3664V19.802H29.703V25.7426ZM22.1783 33.2673H16.2377V26.9307H22.1783V33.2673ZM23.3664 26.9307H29.703V33.2673H23.3664V26.9307ZM29.703 18.6139H22.7723C22.6148 18.6139 22.4637 18.6764 22.3523 18.7879C22.2409 18.8993 22.1783 19.0504 22.1783 19.2079V25.7426H15.6436C15.4861 25.7426 15.335 25.8052 15.2236 25.9166C15.1122 26.028 15.0496 26.1791 15.0496 26.3366V33.2673H11.0892V15.8416H29.703V18.6139ZM34.0595 33.2673H30.8911V15.2475C30.8911 15.09 30.8286 14.9389 30.7171 14.8275C30.6057 14.716 30.4546 14.6535 30.2971 14.6535H10.4951C10.3376 14.6535 10.1865 14.716 10.075 14.8275C9.96364 14.9389 9.90105 15.09 9.90105 15.2475V33.2673H6.33669V13.5644L20.004 3.31485L34.0595 13.5683V33.2673Z" fill="white"/>
</svg>
