<svg width="40" height="40" viewBox="0 0 40 40" fill="none" xmlns="http://www.w3.org/2000/svg">
<path d="M20.792 31.2871H7.32668C7.47369 28.4063 8.71998 25.6916 10.8088 23.7023C12.8976 21.7129 15.6699 20.6005 18.5544 20.5941C20.7091 20.5922 22.8181 21.2154 24.6257 22.3881C24.7586 22.4742 24.9202 22.5041 25.0751 22.471C25.2299 22.438 25.3653 22.3448 25.4514 22.2119C25.5376 22.079 25.5674 21.9174 25.5343 21.7625C25.5013 21.6077 25.4081 21.4723 25.2752 21.3861C23.2703 20.0876 20.9312 19.3996 18.5425 19.4059C15.245 19.4206 12.0877 20.7419 9.76262 23.0804C7.43755 25.4188 6.13433 28.5836 6.13856 31.8812C6.13856 32.0387 6.20115 32.1898 6.31256 32.3013C6.42396 32.4127 6.57507 32.4753 6.73262 32.4753H20.792C20.9496 32.4753 21.1007 32.4127 21.2121 32.3013C21.3235 32.1898 21.3861 32.0387 21.3861 31.8812C21.3861 31.7236 21.3235 31.5725 21.2121 31.4611C21.1007 31.3497 20.9496 31.2871 20.792 31.2871Z" fill="white"/>
<path d="M18.6138 18.0198C20.0629 18.0198 21.4795 17.5901 22.6844 16.785C23.8892 15.98 24.8283 14.8357 25.3829 13.4969C25.9374 12.1581 26.0825 10.6849 25.7998 9.26369C25.5171 7.84245 24.8193 6.53695 23.7946 5.51229C22.77 4.48762 21.4645 3.78982 20.0432 3.50712C18.622 3.22441 17.1488 3.36951 15.81 3.92405C14.4712 4.47859 13.327 5.41768 12.5219 6.62255C11.7168 7.82743 11.2871 9.24398 11.2871 10.6931C11.2903 12.6353 12.0632 14.497 13.4365 15.8704C14.8099 17.2437 16.6716 18.0167 18.6138 18.0198ZM18.6138 4.55446C19.8279 4.55446 21.0148 4.91448 22.0243 5.589C23.0338 6.26352 23.8206 7.22224 24.2852 8.34392C24.7498 9.46561 24.8714 10.6999 24.6345 11.8907C24.3976 13.0814 23.813 14.1752 22.9545 15.0337C22.096 15.8922 21.0022 16.4769 19.8114 16.7137C18.6207 16.9506 17.3864 16.829 16.2647 16.3644C15.143 15.8998 14.1843 15.113 13.5098 14.1035C12.8353 13.094 12.4752 11.9072 12.4752 10.6931C12.4773 9.06565 13.1247 7.50549 14.2755 6.35473C15.4263 5.20397 16.9864 4.55655 18.6138 4.55446Z" fill="white"/>
<path d="M35.6673 25.8851L33.4534 23.6713C33.3408 23.5663 33.1919 23.5092 33.038 23.5119C32.8841 23.5146 32.7372 23.577 32.6284 23.6858C32.5196 23.7947 32.4572 23.9415 32.4545 24.0954C32.4518 24.2493 32.5089 24.3983 32.6138 24.5109L33.4455 25.3465H24.3366C24.1791 25.3465 24.028 25.4091 23.9165 25.5205C23.8051 25.6319 23.7426 25.783 23.7426 25.9406C23.7426 26.0981 23.8051 26.2492 23.9165 26.3607C24.028 26.4721 24.1791 26.5346 24.3366 26.5346H34.1782L32.594 28.1188C32.5357 28.1732 32.4889 28.2388 32.4564 28.3116C32.4239 28.3845 32.4065 28.4632 32.4051 28.5429C32.4036 28.6227 32.4183 28.7019 32.4482 28.7759C32.4781 28.8499 32.5225 28.9171 32.579 28.9735C32.6354 29.0299 32.7026 29.0744 32.7765 29.1042C32.8505 29.1341 32.9297 29.1488 33.0095 29.1474C33.0893 29.146 33.1679 29.1285 33.2408 29.0961C33.3137 29.0636 33.3793 29.0168 33.4336 28.9584L35.6475 26.7445C35.7588 26.6332 35.8212 26.4822 35.8212 26.3247C35.8212 26.1673 35.7588 26.0163 35.6475 25.9049L35.6673 25.8851Z" fill="white"/>
<path d="M34.6535 30.8911H24.5545L26.1862 29.2594C26.298 29.1481 26.3611 28.9968 26.3615 28.839C26.3618 28.6812 26.2995 28.5297 26.1882 28.4178C26.0768 28.3059 25.9256 28.2429 25.7678 28.2425C25.61 28.2422 25.4584 28.3045 25.3466 28.4158L23.1327 30.6297C23.0215 30.7411 22.959 30.8921 22.959 31.0495C22.959 31.2069 23.0215 31.3579 23.1327 31.4693L25.3466 33.6871C25.401 33.7455 25.4666 33.7923 25.5394 33.8248C25.6123 33.8572 25.691 33.8747 25.7707 33.8761C25.8505 33.8775 25.9297 33.8628 26.0037 33.833C26.0777 33.8031 26.1449 33.7586 26.2013 33.7022C26.2577 33.6458 26.3021 33.5786 26.332 33.5046C26.3619 33.4307 26.3766 33.3514 26.3752 33.2717C26.3738 33.1919 26.3563 33.1132 26.3238 33.0404C26.2914 32.9675 26.2446 32.9019 26.1862 32.8475L25.406 32.0792H34.6535C34.8111 32.0792 34.9622 32.0166 35.0736 31.9052C35.185 31.7938 35.2476 31.6427 35.2476 31.4851C35.2476 31.3276 35.185 31.1765 35.0736 31.0651C34.9622 30.9537 34.8111 30.8911 34.6535 30.8911Z" fill="white"/>
</svg>
