<svg width="40" height="40" viewBox="0 0 40 40" fill="none" xmlns="http://www.w3.org/2000/svg">
<path d="M23.7325 29.1541L30.5137 18.3597C30.5359 18.3247 30.5544 18.288 30.5689 18.25C31.7399 16.3595 32.3582 14.2 32.3582 11.9953C32.3582 5.38109 26.9225 0 20.2412 0C13.5599 0 8.12378 5.38109 8.12378 11.9953C8.12378 14.2005 8.74297 16.3609 9.91487 18.2526C9.92843 18.2858 9.94426 18.318 9.96326 18.3494L16.5012 29.181C11.426 29.8911 8.0885 31.957 8.0885 34.4631C8.0885 37.5683 13.4188 40 20.2231 40C27.0274 40 32.3577 37.5678 32.3577 34.4631C32.3582 31.9454 28.8651 29.8333 23.7325 29.1541ZM11.1329 17.6477C10.0519 15.9445 9.48066 13.99 9.48066 11.9953C9.48066 6.12168 14.3075 1.34326 20.2412 1.34326C26.1744 1.34326 31.0013 6.12168 31.0013 11.9953C31.0013 13.9909 30.43 15.9454 29.3495 17.6477C29.3269 17.6835 29.3083 17.7207 29.2934 17.7592L22.1291 29.1621C22.0214 29.3256 22.0002 29.3627 21.8686 29.5768L20.0594 32.4567L11.1935 17.7686C11.1777 17.727 11.1573 17.6862 11.1329 17.6477ZM20.2236 38.6567C13.872 38.6567 9.44584 36.4462 9.44584 34.4631C9.44584 32.6631 12.7792 30.967 17.2628 30.4418L19.4655 34.0915C19.5872 34.2925 19.8052 34.4165 20.0417 34.4183C20.0435 34.4183 20.0458 34.4183 20.0476 34.4183C20.2819 34.4183 20.4999 34.2983 20.6238 34.1013L22.9396 30.4154C27.4946 30.9039 31.0008 32.643 31.0008 34.4631C31.0013 36.4466 26.5751 38.6567 20.2236 38.6567Z" fill="#171717"/>
<path d="M24.6293 11.9953C24.6293 9.59047 22.6528 7.63379 20.2235 7.63379C17.7943 7.63379 15.8177 9.59047 15.8177 11.9953C15.8177 14.4002 17.7943 16.3569 20.2235 16.3569C22.6528 16.3569 24.6293 14.4002 24.6293 11.9953ZM17.1746 11.9953C17.1746 10.3311 18.5424 8.97705 20.2235 8.97705C21.9047 8.97705 23.2725 10.3311 23.2725 11.9953C23.2725 13.6596 21.9052 15.0137 20.2235 15.0137C18.5419 15.0137 17.1746 13.6596 17.1746 11.9953Z" fill="#171717"/>
</svg>
