<svg width="40" height="40" viewBox="0 0 40 40" fill="none" xmlns="http://www.w3.org/2000/svg">
<path d="M15.6436 10.693C15.8012 10.693 15.9523 10.6304 16.0637 10.519C16.1751 10.4076 16.2377 10.2565 16.2377 10.099V7.72272C16.2377 7.56517 16.1751 7.41407 16.0637 7.30266C15.9523 7.19125 15.8012 7.12866 15.6436 7.12866C15.4861 7.12866 15.335 7.19125 15.2236 7.30266C15.1121 7.41407 15.0496 7.56517 15.0496 7.72272V10.099C15.0496 10.2565 15.1121 10.4076 15.2236 10.519C15.335 10.6304 15.4861 10.693 15.6436 10.693Z" fill="#171717"/>
<path d="M20.7921 10.693C20.9496 10.693 21.1007 10.6304 21.2121 10.519C21.3235 10.4076 21.3861 10.2565 21.3861 10.099V7.72272C21.3861 7.56517 21.3235 7.41407 21.2121 7.30266C21.1007 7.19125 20.9496 7.12866 20.7921 7.12866C20.6345 7.12866 20.4834 7.19125 20.372 7.30266C20.2606 7.41407 20.198 7.56517 20.198 7.72272V10.099C20.198 10.2565 20.2606 10.4076 20.372 10.519C20.4834 10.6304 20.6345 10.693 20.7921 10.693Z" fill="#171717"/>
<path d="M15.0496 19.604C15.0496 19.7615 15.1121 19.9126 15.2236 20.024C15.335 20.1354 15.4861 20.198 15.6436 20.198C15.8012 20.198 15.9523 20.1354 16.0637 20.024C16.1751 19.9126 16.2377 19.7615 16.2377 19.604V17.2277C16.2377 17.0702 16.1751 16.9191 16.0637 16.8077C15.9523 16.6963 15.8012 16.6337 15.6436 16.6337C15.4861 16.6337 15.335 16.6963 15.2236 16.8077C15.1121 16.9191 15.0496 17.0702 15.0496 17.2277V19.604Z" fill="#171717"/>
<path d="M20.198 19.604C20.198 19.7615 20.2606 19.9126 20.372 20.024C20.4834 20.1354 20.6345 20.198 20.7921 20.198C20.9496 20.198 21.1007 20.1354 21.2121 20.024C21.3235 19.9126 21.3861 19.7615 21.3861 19.604V17.2277C21.3861 17.0702 21.3235 16.9191 21.2121 16.8077C21.1007 16.6963 20.9496 16.6337 20.7921 16.6337C20.6345 16.6337 20.4834 16.6963 20.372 16.8077C20.2606 16.9191 20.198 17.0702 20.198 17.2277V19.604Z" fill="#171717"/>
<path d="M15.0496 29.109C15.0496 29.2665 15.1121 29.4176 15.2236 29.529C15.335 29.6404 15.4861 29.703 15.6436 29.703C15.8012 29.703 15.9523 29.6404 16.0637 29.529C16.1751 29.4176 16.2377 29.2665 16.2377 29.109V26.7327C16.2377 26.5752 16.1751 26.4241 16.0637 26.3127C15.9523 26.2013 15.8012 26.1387 15.6436 26.1387C15.4861 26.1387 15.335 26.2013 15.2236 26.3127C15.1121 26.4241 15.0496 26.5752 15.0496 26.7327V29.109Z" fill="#171717"/>
<path d="M20.198 29.109C20.198 29.2665 20.2606 29.4176 20.372 29.529C20.4834 29.6404 20.6345 29.703 20.7921 29.703C20.9496 29.703 21.1007 29.6404 21.2121 29.529C21.3235 29.4176 21.3861 29.2665 21.3861 29.109V26.7327C21.3861 26.5752 21.3235 26.4241 21.2121 26.3127C21.1007 26.2013 20.9496 26.1387 20.7921 26.1387C20.6345 26.1387 20.4834 26.2013 20.372 26.3127C20.2606 26.4241 20.198 26.5752 20.198 26.7327V29.109Z" fill="#171717"/>
<path d="M6.13862 17.0297C5.98106 17.0297 5.82996 17.0923 5.71855 17.2037C5.60714 17.3151 5.54456 17.4662 5.54456 17.6237V20C5.54456 20.1575 5.60714 20.3086 5.71855 20.42C5.82996 20.5314 5.98106 20.594 6.13862 20.594C6.29617 20.594 6.44727 20.5314 6.55868 20.42C6.67009 20.3086 6.73267 20.1575 6.73267 20V17.6237C6.73267 17.4662 6.67009 17.3151 6.55868 17.2037C6.44727 17.0923 6.29617 17.0297 6.13862 17.0297Z" fill="#171717"/>
<path d="M28.5149 20.7921V23.1683C28.5149 23.3258 28.5775 23.477 28.6889 23.5884C28.8003 23.6998 28.9514 23.7624 29.109 23.7624C29.2665 23.7624 29.4176 23.6998 29.529 23.5884C29.6404 23.477 29.703 23.3258 29.703 23.1683V20.7921C29.703 20.6345 29.6404 20.4834 29.529 20.372C29.4176 20.2606 29.2665 20.198 29.109 20.198C28.9514 20.198 28.8003 20.2606 28.6889 20.372C28.5775 20.4834 28.5149 20.6345 28.5149 20.7921Z" fill="#171717"/>
<path d="M34.2574 20.198C34.0998 20.198 33.9487 20.2606 33.8373 20.372C33.7259 20.4834 33.6633 20.6345 33.6633 20.7921V23.1683C33.6633 23.3258 33.7259 23.477 33.8373 23.5884C33.9487 23.6998 34.0998 23.7624 34.2574 23.7624C34.4149 23.7624 34.566 23.6998 34.6775 23.5884C34.7889 23.477 34.8514 23.3258 34.8514 23.1683V20.7921C34.8514 20.6345 34.7889 20.4834 34.6775 20.372C34.566 20.2606 34.4149 20.198 34.2574 20.198Z" fill="#171717"/>
<path d="M38.6495 15.7545L32.0039 8.68517C31.9489 8.62689 31.8826 8.58035 31.8091 8.54836C31.7356 8.51637 31.6564 8.49959 31.5762 8.49903C31.4156 8.50468 31.2623 8.56794 31.1445 8.67725L25.3465 14.6535V3.76239C25.3465 3.60484 25.2839 3.45374 25.1725 3.34233C25.0611 3.23092 24.91 3.16833 24.7524 3.16833H11.2871C11.1295 3.16833 10.9784 3.23092 10.867 3.34233C10.7556 3.45374 10.693 3.60484 10.693 3.76239V11.8812H2.17817C2.02061 11.8812 1.86951 11.9438 1.7581 12.0552C1.64669 12.1666 1.58411 12.3177 1.58411 12.4753V25.5446C1.58411 25.7021 1.64669 25.8532 1.7581 25.9646C1.86951 26.076 2.02061 26.1386 2.17817 26.1386C2.33572 26.1386 2.48682 26.076 2.59823 25.9646C2.70964 25.8532 2.77223 25.7021 2.77223 25.5446V13.0693H10.693V21.1881C10.693 21.3457 10.7556 21.4968 10.867 21.6082C10.9784 21.7196 11.1295 21.7822 11.2871 21.7822C11.4446 21.7822 11.5957 21.7196 11.7071 21.6082C11.8185 21.4968 11.8811 21.3457 11.8811 21.1881V4.35645H24.1584V33.6634H8.11876C7.96121 33.6634 7.8101 33.726 7.6987 33.8374C7.58729 33.9488 7.5247 34.0999 7.5247 34.2574C7.5247 34.415 7.58729 34.5661 7.6987 34.6775C7.8101 34.7889 7.96121 34.8515 8.11876 34.8515H31.8811C32.0387 34.8515 32.1898 34.7889 32.3012 34.6775C32.4126 34.5661 32.4752 34.415 32.4752 34.2574C32.4752 34.0999 32.4126 33.9488 32.3012 33.8374C32.1898 33.726 32.0387 33.6634 31.8811 33.6634H25.3465V16.3367L31.5643 9.95249L37.6237 16.3961V24.7525C37.6237 24.91 37.6863 25.0611 37.7977 25.1726C37.9091 25.284 38.0602 25.3466 38.2178 25.3466C38.3753 25.3466 38.5264 25.284 38.6378 25.1726C38.7492 25.0611 38.8118 24.91 38.8118 24.7525V16.1584C38.8108 16.0081 38.7527 15.8637 38.6495 15.7545Z" fill="#171717"/>
</svg>
