<svg width="40" height="40" viewBox="0 0 40 40" fill="none" xmlns="http://www.w3.org/2000/svg">
<path d="M4.99935 6.6665C4.11529 6.6665 3.26745 7.01769 2.64233 7.64281C2.01721 8.26794 1.66602 9.11578 1.66602 9.99984V28.3332H4.99935C4.99935 29.6593 5.52613 30.931 6.46381 31.8687C7.4015 32.8064 8.67327 33.3332 9.99935 33.3332C11.3254 33.3332 12.5972 32.8064 13.5349 31.8687C14.4726 30.931 14.9993 29.6593 14.9993 28.3332H24.9993C24.9993 29.6593 25.5261 30.931 26.4638 31.8687C27.4015 32.8064 28.6733 33.3332 29.9993 33.3332C31.3254 33.3332 32.5972 32.8064 33.5349 31.8687C34.4726 30.931 34.9993 29.6593 34.9993 28.3332H38.3327V19.9998L33.3327 13.3332H28.3327V6.6665H4.99935ZM16.666 9.99984L23.3327 16.6665L16.666 23.3332V18.3332H6.66602V14.9998H16.666V9.99984ZM28.3327 15.8332H32.4993L35.7827 19.9998H28.3327V15.8332ZM9.99935 25.8332C10.6624 25.8332 11.2983 26.0966 11.7671 26.5654C12.236 27.0342 12.4993 27.6701 12.4993 28.3332C12.4993 28.9962 12.236 29.6321 11.7671 30.1009C11.2983 30.5698 10.6624 30.8332 9.99935 30.8332C9.33631 30.8332 8.70042 30.5698 8.23158 30.1009C7.76274 29.6321 7.49935 28.9962 7.49935 28.3332C7.49935 27.6701 7.76274 27.0342 8.23158 26.5654C8.70042 26.0966 9.33631 25.8332 9.99935 25.8332ZM29.9993 25.8332C30.6624 25.8332 31.2983 26.0966 31.7671 26.5654C32.236 27.0342 32.4993 27.6701 32.4993 28.3332C32.4993 28.9962 32.236 29.6321 31.7671 30.1009C31.2983 30.5698 30.6624 30.8332 29.9993 30.8332C29.3363 30.8332 28.7004 30.5698 28.2316 30.1009C27.7627 29.6321 27.4993 28.9962 27.4993 28.3332C27.4993 27.6701 27.7627 27.0342 28.2316 26.5654C28.7004 26.0966 29.3363 25.8332 29.9993 25.8332Z" fill="#F77705"/>
</svg>
