<svg width="20" height="14" viewBox="0 0 20 14" fill="none" xmlns="http://www.w3.org/2000/svg">
<path d="M19.9809 1.02688V1.01269C19.9655 0.972696 19.9429 0.935825 19.9143 0.90388C19.8843 0.872516 19.8488 0.846864 19.8095 0.828189C19.771 0.811676 19.7299 0.802067 19.6881 0.799805H0.333333C0.291487 0.802067 0.250375 0.811676 0.211905 0.828189C0.172632 0.846864 0.137127 0.872516 0.107143 0.90388C0.0709002 0.938546 0.0424941 0.980473 0.0238096 1.02688V1.04107C0.0105652 1.07435 0.00253528 1.10945 0 1.14515V13.445C0 13.5391 0.0376273 13.6293 0.104605 13.6959C0.171582 13.7624 0.262422 13.7998 0.357142 13.7998H19.6428C19.7375 13.7998 19.8284 13.7624 19.8954 13.6959C19.9623 13.6293 20 13.5391 20 13.445V1.14515C20.0005 1.10493 19.9941 1.06492 19.9809 1.02688ZM19.2857 12.5225L13.3952 7.29744L19.2857 1.94937V12.5225ZM0.714285 1.94937L6.42856 7.13896L0.714285 12.3971V1.94937ZM12.619 7.03015C12.6057 7.03871 12.5929 7.0482 12.5809 7.05854V7.07273L9.99998 9.4168L1.27857 1.49995H18.7214L12.619 7.03015ZM6.95951 7.61913L9.76189 10.1595C9.82737 10.2177 9.91214 10.2499 9.99998 10.2499C10.0878 10.2499 10.1726 10.2177 10.2381 10.1595L12.8571 7.77761L18.8547 13.0902H1.0119L6.95951 7.61913Z" fill="white"/>
</svg>
