<svg width="22" height="22" viewBox="0 0 22 22" fill="none" xmlns="http://www.w3.org/2000/svg">
<circle cx="10" cy="10" r="10.5" transform="matrix(-1 0 0 1 21 1)" fill="white" stroke="#F77705"/>
<path d="M7.79002 6.03284C7.31907 6.1135 6.74971 6.35549 6.38185 6.62975C5.7586 7.09298 5.29468 7.81203 5.10255 8.60253C4.99945 9.0358 4.96899 9.69263 5.0346 10.1121C5.20564 11.2091 5.87107 12.2508 7.16677 13.4492C7.64475 13.894 7.97981 14.1844 9.34581 15.339C10.187 16.0535 10.6064 16.3923 10.6954 16.436C10.8782 16.5213 11.1218 16.5213 11.3046 16.436C11.485 16.3508 13.9944 14.2259 14.8332 13.4492C16.1289 12.2508 16.7944 11.2091 16.9654 10.1121C17.031 9.69263 17.0005 9.0358 16.8975 8.60253C16.7053 7.81203 16.2414 7.09298 15.6181 6.62975C15.2409 6.34858 14.6762 6.1112 14.1865 6.03284C13.9218 5.98905 13.3805 5.98905 13.1181 6.03284C12.3918 6.15729 11.7099 6.55369 11.1968 7.15521C11.0961 7.27275 11.0094 7.36954 11 7.36954C10.9906 7.36954 10.9039 7.27275 10.8032 7.15521C10.2901 6.55369 9.60823 6.15729 8.88188 6.03284C8.62883 5.99136 8.04307 5.99136 7.79002 6.03284Z" fill="#F77705"/>
</svg>
