<svg width="40" height="40" viewBox="0 0 40 40" fill="none" xmlns="http://www.w3.org/2000/svg">
<path d="M32.7512 8.83827C32.75 8.81802 32.748 8.79817 32.7452 8.77832C32.742 8.75887 32.7384 8.73981 32.7337 8.72115C32.7289 8.70249 32.7234 8.68383 32.7166 8.66596C32.7099 8.6477 32.7027 8.62984 32.694 8.61237C32.6856 8.59529 32.6769 8.57902 32.667 8.56314C32.6571 8.54646 32.6463 8.53058 32.6348 8.5151C32.6233 8.50001 32.6114 8.48532 32.5987 8.47142C32.586 8.45753 32.5729 8.44403 32.559 8.43132C32.5447 8.41822 32.53 8.40591 32.5141 8.3944C32.499 8.38328 32.484 8.37256 32.4677 8.36304C32.451 8.35271 32.4339 8.34358 32.4165 8.33524C32.399 8.32691 32.3815 8.31936 32.3633 8.31261C32.345 8.30586 32.3267 8.30031 32.3077 8.29554C32.2882 8.29038 32.2684 8.28641 32.2481 8.28323C32.2378 8.28165 32.2283 8.27807 32.218 8.27728C27.487 7.80403 23.7872 6.84204 19.9654 3.515C19.7173 3.29902 19.3405 3.32522 19.1253 3.57296C19.1114 3.58884 19.1011 3.60671 19.0892 3.62378C15.246 6.93971 12.0365 7.82229 7.48425 8.27688C7.17974 8.30745 6.94788 8.56353 6.94788 8.86964V22.8174C6.94788 22.8702 6.95502 22.9226 6.96892 22.9735C9.384 31.8803 19.1242 36.1117 19.5375 36.2876C19.6121 36.3194 19.6915 36.3352 19.7705 36.3352C19.8487 36.3352 19.9277 36.3198 20.0012 36.2888C20.4196 36.1133 30.2714 31.8822 32.6864 22.9739C32.6948 22.9425 32.7011 22.9107 32.7043 22.8782L32.7512 22.4172C32.7531 22.3974 32.7543 22.3771 32.7543 22.3569V8.87003C32.7543 8.85852 32.7519 8.84859 32.7512 8.83827ZM31.5244 22.7075C29.44 30.2902 21.2605 34.3938 19.7717 35.085C18.296 34.3918 10.2352 30.2973 8.13855 22.7364V9.40522C12.4538 8.9276 15.8007 7.93862 19.5938 4.7545C23.3528 7.87232 27.1341 8.91291 31.5629 9.40323V22.3259L31.5244 22.7075Z" fill="#303147"/>
<path d="M25.4094 16.2143H24.8377C24.5232 13.5768 22.2574 11.5234 19.514 11.5234C16.7706 11.5234 14.5048 13.5768 14.1907 16.2143H13.4991C13.1704 16.2143 12.9036 16.4807 12.9036 16.8098V25.5443C12.9036 25.8734 13.1704 26.1398 13.4991 26.1398H25.4098C25.7385 26.1398 26.0053 25.8734 26.0053 25.5443V16.8098C26.0049 16.4807 25.7381 16.2143 25.4094 16.2143ZM19.5136 12.7145C21.5988 12.7145 23.3266 14.2359 23.6335 16.2143H15.3937C15.701 14.2359 17.4284 12.7145 19.5136 12.7145ZM24.8138 17.4053V24.9487H14.0942V17.4053H24.8138Z" fill="#303147"/>
</svg>
