<svg width="40" height="40" viewBox="0 0 40 40" fill="none" xmlns="http://www.w3.org/2000/svg">
<path d="M14.7266 4.53132C13.9219 4.62507 13.3203 5.02351 13.0078 5.67195C12.875 5.96101 12.6719 7.40632 12.6562 8.16413C12.6484 8.88288 12.3438 9.38288 11.8281 9.52351C11.3906 9.6407 11.1094 9.50007 10.0781 8.63288C9.53906 8.17976 8.94531 7.73445 8.75 7.6407C8.28906 7.40632 7.53125 7.40632 7.03125 7.63288C6.32812 7.9532 4.34375 9.93757 3.98438 10.6719C3.75 11.1407 3.71094 11.6876 3.85156 12.1954C3.95312 12.5391 4.15625 12.836 4.91406 13.7344C5.44531 14.3673 5.86719 14.9532 5.89844 15.086C5.96875 15.3985 5.8125 15.8204 5.53906 16.0469C5.24219 16.2969 5.24219 16.2969 3.71875 16.4454C2.22656 16.5938 1.89844 16.6954 1.4375 17.2032C0.914062 17.7891 0.898438 17.8594 0.898438 20.0391C0.898438 21.8516 0.90625 22.0157 1.0625 22.3438C1.25781 22.7735 1.625 23.1563 2.05469 23.3751C2.3125 23.5001 2.66406 23.5626 3.71094 23.6485C5.22656 23.7657 5.60156 23.8907 5.8125 24.336C5.97656 24.6719 5.96875 25.0704 5.80469 25.3126C5.72656 25.4219 5.3125 25.9454 4.86719 26.4766C3.95312 27.5782 3.78125 27.9454 3.85156 28.6719C3.86719 28.9141 3.96094 29.2501 4.04688 29.4219C4.42969 30.1563 6.39844 32.0938 7.10938 32.4298C7.59375 32.6641 8.36719 32.6641 8.83594 32.4298C9.02344 32.3438 9.61719 31.8907 10.1562 31.4376C10.6953 30.9844 11.2109 30.5782 11.3125 30.5391C11.6016 30.4298 11.8906 30.4532 12.1641 30.6251C12.6094 30.8907 12.6719 31.0704 12.8125 32.5626C12.8984 33.3829 13 34.0704 13.0781 34.2579C13.2578 34.6876 13.6953 35.1095 14.1719 35.3282C14.5469 35.4923 14.6641 35.5079 16.3672 35.5079C18.3906 35.5079 18.7031 35.4532 19.2734 34.961C19.7734 34.5313 19.9141 34.1016 20.0469 32.5626C20.1875 30.9454 20.3125 30.6485 20.9219 30.4688C21.3438 30.3516 21.6484 30.5157 22.6797 31.3594C23.8984 32.3829 24.1719 32.5235 24.8438 32.5313C25.4844 32.5391 25.8828 32.3594 26.5625 31.7813L27.0703 31.3438L28.4453 32.7032L29.8125 34.0626H31.7422H33.6641L33.8125 34.3985C33.9766 34.7735 34.3594 35.1798 34.7188 35.3673C34.8516 35.4376 35.2109 35.5079 35.5078 35.5313C35.9922 35.5548 36.1016 35.5391 36.4844 35.336C37.9219 34.5782 37.9062 32.6173 36.4453 31.8516C36.0078 31.6173 35.1719 31.6251 34.7188 31.8594C34.3281 32.0548 33.8672 32.5782 33.75 32.9376L33.6562 33.2032H31.9297H30.1953L25.8594 28.8673C23.4688 26.4844 21.4609 24.5313 21.3906 24.5313C21.3203 24.5313 21.0469 24.7032 20.7891 24.9219C19.8047 25.7423 18.7891 26.2579 17.6953 26.4923C16.9609 26.6485 15.5469 26.6094 14.8047 26.4141C10.4844 25.2657 8.45312 20.4219 10.7031 16.6329C11.5625 15.1876 13.1016 14.0391 14.8047 13.586C15.5469 13.3907 16.9609 13.3516 17.6953 13.5079C18.7891 13.7423 19.8047 14.2579 20.7891 15.0782C21.0469 15.2969 21.3203 15.4688 21.3906 15.4688C21.4609 15.4688 23.4688 13.5157 25.8594 11.1329L30.1953 6.79695H31.9297H33.6562L33.75 7.06257C33.8672 7.42195 34.3281 7.94538 34.7188 8.1407C35.1719 8.37507 36.0078 8.38288 36.4453 8.14851C37.2891 7.7032 37.6875 6.87507 37.5 5.96882C37.1328 4.2032 34.6562 3.8907 33.8594 5.5157L33.6562 5.93757H31.7344H29.8125L28.4453 7.29695L27.0703 8.65632L26.5234 8.18757C25.8281 7.58601 25.4141 7.39851 24.8047 7.39851C24.1328 7.39851 23.7812 7.58601 22.5859 8.5782C22.0156 9.06257 21.4609 9.47663 21.3594 9.50007C21.1094 9.56257 20.7031 9.48445 20.4844 9.3282C20.1641 9.10945 20.0781 8.78913 19.9531 7.47663C19.8125 5.97663 19.7031 5.58601 19.2969 5.16413C18.8906 4.74226 18.6172 4.61726 17.9453 4.53132C17.3125 4.44538 15.4375 4.44538 14.7266 4.53132ZM18.3047 5.50007C18.8281 5.75788 18.9531 6.09382 19.1016 7.61726C19.1953 8.66413 19.2656 9.03132 19.4062 9.35163C19.7266 10.0469 20.4766 10.4532 21.2969 10.3673C21.8516 10.3126 22.0391 10.1954 23.2031 9.21882C24.7031 7.96101 24.9141 7.94538 26.1328 9.0157L26.4453 9.28913L23.8984 11.836L21.3516 14.3907L20.8281 13.9844C19.5312 13.0079 18.0781 12.5469 16.3281 12.5548C14.2578 12.5626 12.4531 13.3204 11.0469 14.7813C9.90625 15.961 9.29688 17.1563 9.02344 18.7423C8.75781 20.2501 9.01562 22.0313 9.6875 23.3594C10.25 24.4688 11.4531 25.7735 12.4688 26.3751C13.7656 27.1407 14.9219 27.4532 16.4062 27.4454C18.1328 27.4376 19.5469 26.9766 20.8281 26.0079L21.3516 25.6094L23.8828 28.1407C25.2656 29.5235 26.4062 30.6876 26.4062 30.711C26.4062 30.8204 25.4141 31.5704 25.1641 31.6485C24.7188 31.7969 24.3906 31.6329 23.3047 30.7344C22.0781 29.711 21.8594 29.6016 21.2031 29.6016C20.5781 29.6016 20.1094 29.8048 19.7344 30.2423C19.3906 30.6485 19.3125 30.9532 19.1875 32.4688C19.1172 33.2813 19.0391 33.8126 18.9531 33.9688C18.6641 34.5313 18.1016 34.6876 16.3672 34.6798C15.1094 34.672 14.5859 34.6016 14.3203 34.4063C13.8672 34.0626 13.8203 33.9376 13.6719 32.4454C13.5234 30.9688 13.4141 30.586 13.0625 30.2032C12.7656 29.8829 12.1406 29.6094 11.7109 29.6094C11.0859 29.6094 10.7188 29.7969 9.6875 30.6719C9.14844 31.1251 8.60938 31.5548 8.47656 31.6173C8.17969 31.7735 7.75 31.7735 7.46094 31.6173C6.76562 31.2501 4.90625 29.3204 4.75 28.8126C4.60156 28.3048 4.71094 28.0704 5.63281 26.9454C6.64844 25.7188 6.72656 25.586 6.77344 25.0079C6.82812 24.4219 6.6875 23.961 6.35156 23.586C5.86719 23.0469 5.60938 22.9688 4.01562 22.8126C1.80469 22.6094 1.71875 22.5079 1.71875 19.9766C1.71875 18.461 1.78125 18.1251 2.14062 17.7657C2.45312 17.4532 2.72656 17.3829 4.14062 17.2657C5.44531 17.1563 5.86719 17.0157 6.28125 16.5548C6.53906 16.2735 6.79688 15.6329 6.79688 15.2735C6.79688 14.7501 6.55469 14.3204 5.67188 13.2657C4.32031 11.6485 4.3125 11.4923 5.48438 10.1641C6.20312 9.35163 7.26562 8.44538 7.59375 8.35163C8.07812 8.22663 8.39844 8.37507 9.46094 9.2657C10.6406 10.2579 10.8984 10.3907 11.5703 10.3907C12.1562 10.3907 12.5781 10.2188 12.9453 9.83601C13.3438 9.41413 13.4375 9.08601 13.5625 7.63288C13.7656 5.39851 13.8906 5.30476 16.6406 5.34382C17.7734 5.35945 18.0547 5.38288 18.3047 5.50007ZM36.2188 5.50788C36.3281 5.5782 36.4922 5.79695 36.5703 5.98445C36.7734 6.42976 36.6719 6.83601 36.2891 7.17976C35.9297 7.49226 35.5625 7.55476 35.1797 7.37507C34.0859 6.83601 34.4844 5.22663 35.6797 5.33601C35.8672 5.35945 36.1016 5.42976 36.2188 5.50788ZM35.9141 32.586C36.25 32.711 36.5547 33.047 36.6484 33.3751C36.7109 33.6173 36.6953 33.7345 36.5703 34.0157C36.375 34.4688 36.0938 34.6485 35.5859 34.6485C34.4375 34.6485 34.125 33.1563 35.1562 32.6407C35.4766 32.4766 35.6094 32.4688 35.9141 32.586Z" fill="#171717"/>
<path d="M36.5546 11.3594C36.1015 11.5234 35.7187 11.8594 35.4999 12.3125L35.2968 12.7266L32.6484 12.75L29.9999 12.7734L27.8281 14.9375L25.664 17.1094H19.7968C15.3437 17.1094 13.914 17.1328 13.8437 17.2031C13.6874 17.3594 13.7343 17.7109 13.9218 17.8437C14.0781 17.9531 14.789 17.9688 20.0703 17.9688H26.0468L28.2421 15.7812L30.4296 13.5937H32.8671H35.2968L35.3906 13.875C35.5156 14.2422 35.9609 14.7344 36.3593 14.9453C36.8046 15.1797 37.6484 15.1797 38.0859 14.9453C38.789 14.5703 39.1406 13.9844 39.1406 13.1797C39.1406 12.5859 38.8749 11.9766 38.4843 11.6797C37.9531 11.2734 37.1562 11.1406 36.5546 11.3594ZM37.7031 12.2344C38.3046 12.5234 38.4843 13.3594 38.0468 13.8594C37.5703 14.4062 36.8906 14.4062 36.414 13.8672C36.2187 13.6406 36.1718 13.5156 36.1718 13.2266C36.1718 12.3828 36.9531 11.8828 37.7031 12.2344Z" fill="#171717"/>
<path d="M32.4766 18.1564C32 18.3283 31.6641 18.6408 31.4297 19.133L31.2109 19.6018H24.3125L17.4219 19.6096L17.3281 19.8049C17.2656 19.9533 17.2656 20.0471 17.3281 20.1955L17.4219 20.3908H24.3125H31.2109L31.3594 20.758C31.8984 22.0705 33.6641 22.3596 34.6094 21.2814C34.9609 20.8752 35.0781 20.5549 35.0781 20.0002C35.0781 19.4455 34.9609 19.1252 34.6016 18.7111C34.0859 18.133 33.2031 17.8986 32.4766 18.1564ZM33.5781 19.0158C34.0234 19.2502 34.1797 19.508 34.1797 20.0158C34.1797 20.4533 34.1641 20.5002 33.8906 20.7424C33.5547 21.0471 33.3125 21.133 32.9375 21.0627C31.9688 20.883 31.7812 19.4768 32.6719 19.0393C32.9922 18.883 33.3047 18.8752 33.5781 19.0158Z" fill="#171717"/>
<path d="M13.9218 22.1562C13.7343 22.289 13.6874 22.6406 13.8437 22.7968C13.914 22.8671 15.3437 22.8906 19.7968 22.8906H25.664L27.8281 25.0546L29.9999 27.2265L32.6484 27.2499L35.2968 27.2734L35.4999 27.6874C35.8281 28.3515 36.4453 28.7421 37.1953 28.7499C38.3124 28.7578 39.1406 27.9374 39.1406 26.8203C39.1406 26.0156 38.789 25.4296 38.0859 25.0546C37.6484 24.8203 36.8046 24.8203 36.3593 25.0546C35.9609 25.2656 35.5156 25.7578 35.3906 26.1249L35.2968 26.4062H32.8671H30.4296L28.2421 24.2187L26.0468 22.0312H20.0703C14.789 22.0312 14.0781 22.0468 13.9218 22.1562ZM37.6015 25.8124C37.7421 25.8671 37.9531 26.0312 38.0703 26.164C38.4765 26.6484 38.2812 27.4921 37.7031 27.7656C36.9531 28.1171 36.1718 27.6093 36.1718 26.7734C36.1718 26.3671 36.4296 25.9843 36.8359 25.8124C37.1406 25.6796 37.289 25.6796 37.6015 25.8124Z" fill="#171717"/>
</svg>
