<svg width="40" height="40" viewBox="0 0 40 40" fill="none" xmlns="http://www.w3.org/2000/svg">
<path d="M34.5275 6.67275H37.8878C38.0788 6.67275 38.2619 6.59689 38.397 6.46185C38.532 6.32681 38.6079 6.14366 38.6079 5.95268C38.6079 5.76171 38.532 5.57855 38.397 5.44351C38.2619 5.30847 38.0788 5.23261 37.8878 5.23261H33.0873C32.8963 5.23261 32.7132 5.30847 32.5782 5.44351C32.4431 5.57855 32.3673 5.76171 32.3673 5.95268V10.7532C32.3673 10.9441 32.4431 11.1273 32.5782 11.2623C32.7132 11.3974 32.8963 11.4732 33.0873 11.4732C33.2783 11.4732 33.4615 11.3974 33.5965 11.2623C33.7315 11.1273 33.8074 10.9441 33.8074 10.7532V8.02169C36.6091 11.2399 38.1447 15.3672 38.1278 19.634C38.1278 23.147 37.0861 26.5811 35.1344 29.502C33.1827 32.4229 30.4087 34.6994 27.1632 36.0438C23.9177 37.3881 20.3463 37.7399 16.9009 37.0545C13.4555 36.3692 10.2906 34.6775 7.80658 32.1935C5.32255 29.7095 3.63091 26.5446 2.94556 23.0992C2.26022 19.6538 2.61196 16.0825 3.95631 12.8369C5.30066 9.59137 7.57723 6.81736 10.4981 4.86567C13.419 2.91398 16.8531 1.87227 20.3661 1.87227C20.557 1.87227 20.7402 1.79641 20.8752 1.66137C21.0103 1.52633 21.0861 1.34318 21.0861 1.1522C21.0861 0.961226 21.0103 0.778073 20.8752 0.643033C20.7402 0.507993 20.557 0.432129 20.3661 0.432129C16.5683 0.432129 12.8558 1.5583 9.69804 3.66824C6.5403 5.77817 4.07914 8.7771 2.62579 12.2858C1.17244 15.7945 0.792181 19.6553 1.53309 23.3802C2.274 27.105 4.10281 30.5264 6.78824 33.2119C9.47368 35.8973 12.8951 37.7261 16.6199 38.467C20.3448 39.2079 24.2056 38.8277 27.7143 37.3743C31.223 35.921 34.2219 33.4598 36.3319 30.3021C38.4418 27.1443 39.568 23.4318 39.568 19.634C39.5856 14.832 37.7848 10.2012 34.5275 6.67275Z" fill="#171717"/>
<path d="M7.40472 19.8742C7.40472 22.4851 8.17897 25.0375 9.62955 27.2084C11.0801 29.3794 13.1419 31.0714 15.5541 32.0706C17.9663 33.0698 20.6207 33.3312 23.1815 32.8218C25.7423 32.3125 28.0945 31.0552 29.9408 29.2089C31.787 27.3627 33.0443 25.0104 33.5537 22.4496C34.0631 19.8888 33.8016 17.2345 32.8025 14.8222C31.8033 12.41 30.1113 10.3483 27.9403 8.89768C25.7694 7.4471 23.217 6.67285 20.606 6.67285C17.106 6.67666 13.7504 8.06874 11.2755 10.5436C8.80061 13.0185 7.40854 16.3741 7.40472 19.8742ZM32.3672 19.8742C32.3672 22.2003 31.6774 24.4742 30.3851 26.4083C29.0928 28.3424 27.2559 29.8499 25.1069 30.7401C22.9578 31.6303 20.593 31.8632 18.3116 31.4094C16.0301 30.9556 13.9345 29.8354 12.2896 28.1906C10.6448 26.5457 9.52466 24.4501 9.07086 22.1687C8.61705 19.8872 8.84996 17.5224 9.74013 15.3734C10.6303 13.2243 12.1378 11.3874 14.0719 10.0951C16.006 8.80278 18.2799 8.113 20.606 8.113C23.7241 8.11681 26.7134 9.35715 28.9182 11.562C31.1231 13.7668 32.3634 16.7561 32.3672 19.8742Z" fill="#171717"/>
<path d="M19.886 11.7132V19.8741C19.8861 20.0164 19.9284 20.1555 20.0075 20.2738C20.0867 20.3921 20.1991 20.4843 20.3306 20.5387C20.4621 20.5932 20.6068 20.6074 20.7464 20.5797C20.886 20.552 21.0142 20.4835 21.1149 20.3829L27.3555 14.1423C27.4827 14.0058 27.552 13.8252 27.5487 13.6387C27.5454 13.4521 27.4698 13.2742 27.3379 13.1422C27.206 13.0103 27.028 12.9347 26.8414 12.9314C26.6549 12.9281 26.4743 12.9974 26.3378 13.1246L21.3261 18.1363V11.7132C21.3261 11.5223 21.2503 11.3391 21.1152 11.2041C20.9802 11.069 20.797 10.9932 20.6061 10.9932C20.4151 10.9932 20.2319 11.069 20.0969 11.2041C19.9619 11.3391 19.886 11.5223 19.886 11.7132Z" fill="#171717"/>
</svg>
