<svg width="40" height="40" viewBox="0 0 40 40" fill="none" xmlns="http://www.w3.org/2000/svg">
<path d="M17.0862 27.9895C17.0862 28.1458 17.0226 28.2957 16.9095 28.4063C16.7963 28.5168 16.6428 28.5789 16.4828 28.5789H12.2586C12.0986 28.5789 11.9451 28.5168 11.8319 28.4063C11.7187 28.2957 11.6552 28.1458 11.6552 27.9895C11.6552 27.8331 11.7187 27.6832 11.8319 27.5727C11.9451 27.4621 12.0986 27.4 12.2586 27.4H16.4828C16.6428 27.4 16.7963 27.4621 16.9095 27.5727C17.0226 27.6832 17.0862 27.8331 17.0862 27.9895ZM26.7414 27.4H22.5172C22.3572 27.4 22.2037 27.4621 22.0905 27.5727C21.9774 27.6832 21.9138 27.8331 21.9138 27.9895C21.9138 28.1458 21.9774 28.2957 22.0905 28.4063C22.2037 28.5168 22.3572 28.5789 22.5172 28.5789H26.7414C26.9014 28.5789 27.0549 28.5168 27.1681 28.4063C27.2812 28.2957 27.3448 28.1458 27.3448 27.9895C27.3448 27.8331 27.2812 27.6832 27.1681 27.5727C27.0549 27.4621 26.9014 27.4 26.7414 27.4ZM37 33.8842C37 34.0405 36.9364 34.1905 36.8233 34.301C36.7101 34.4116 36.5566 34.4737 36.3966 34.4737H2.60345C2.4434 34.4737 2.28991 34.4116 2.17675 34.301C2.06358 34.1905 2 34.0405 2 33.8842C2 33.7279 2.06358 33.5779 2.17675 33.4674C2.28991 33.3568 2.4434 33.2947 2.60345 33.2947H5.62069V15.0211C5.62319 14.9119 5.6552 14.8053 5.7135 14.7121C5.77179 14.619 5.85427 14.5425 5.95259 14.4905C6.05333 14.4417 6.16604 14.4213 6.278 14.4318C6.38996 14.4422 6.49671 14.4829 6.58621 14.5495L15.2759 20.9158V15.0211C15.2784 14.9119 15.3104 14.8053 15.3687 14.7121C15.427 14.619 15.5094 14.5425 15.6078 14.4905C15.7085 14.4417 15.8212 14.4213 15.9332 14.4318C16.0451 14.4422 16.1519 14.4829 16.2414 14.5495L22.8944 19.4274L24.7953 6.51789C24.8537 6.09728 25.0663 5.71165 25.3937 5.43252C25.721 5.15339 26.1409 4.99971 26.5754 5H29.3211C29.7556 4.99971 30.1755 5.15339 30.5029 5.43252C30.8303 5.71165 31.0429 6.09728 31.1013 6.51789L33.3793 22.0063V33.2947H36.3966C36.5566 33.2947 36.7101 33.3568 36.8233 33.4674C36.9364 33.5779 37 33.7279 37 33.8842ZM23.9957 20.2379L25.7306 21.5053H32.0819L29.9095 6.68C29.8853 6.54315 29.8136 6.41862 29.7064 6.32737C29.5993 6.23611 29.4632 6.1837 29.3211 6.17895H26.5754C26.4333 6.1837 26.2973 6.23611 26.1901 6.32737C26.083 6.41862 26.0113 6.54315 25.9871 6.68L23.9957 20.2379ZM6.82759 33.2947H32.1724V22.6842H25.5345C25.4041 22.6832 25.2774 22.6419 25.1724 22.5663L16.4828 16.2V22.0947C16.4803 22.2039 16.4482 22.3105 16.39 22.4037C16.3317 22.4968 16.2492 22.5733 16.1509 22.6253C16.0501 22.6741 15.9374 22.6944 15.8254 22.684C15.7135 22.6736 15.6067 22.6328 15.5172 22.5663L6.82759 16.2V33.2947Z" fill="#171717"/>
</svg>
