<svg width="40" height="40" viewBox="0 0 40 40" fill="none" xmlns="http://www.w3.org/2000/svg">
<path d="M19.2592 28.4391C19.2592 28.1091 18.9918 27.8413 18.6613 27.8413H5.14385C5.45515 21.9465 10.3479 17.247 16.3168 17.247C18.4732 17.247 20.5666 17.8617 22.3694 19.0252C22.6469 19.2037 23.0168 19.1244 23.1961 18.8466C23.3751 18.5692 23.295 18.1989 23.018 18.0199C21.0206 16.7321 18.7036 16.0513 16.3168 16.0513C9.48812 16.0513 3.93213 21.6085 3.93213 28.4391C3.93213 28.7692 4.19958 29.037 4.53002 29.037H18.6613C18.9914 29.037 19.2592 28.7692 19.2592 28.4391Z" fill="black"/>
<path d="M16.1096 14.9427C20.0604 14.9427 23.2747 11.728 23.2747 7.77636C23.2747 3.82789 20.0604 0.615234 16.1096 0.615234C12.1615 0.615234 8.94965 3.82789 8.94965 7.77636C8.94965 11.7276 12.1615 14.9427 16.1096 14.9427ZM16.1096 1.81101C19.4008 1.81101 22.0789 4.48717 22.0789 7.77636C22.0789 11.0683 19.4012 13.7469 16.1096 13.7469C12.8212 13.7469 10.1454 11.0683 10.1454 7.77636C10.1454 4.48717 12.8212 1.81101 16.1096 1.81101Z" fill="black"/>
<path d="M35.8223 35.47L31.6794 29.4449C32.4698 28.405 32.9078 27.1482 32.9166 25.8197C32.9409 22.4619 30.2293 19.7097 26.8711 19.6842C23.5257 19.6682 20.7607 22.3762 20.736 25.734C20.7268 27.096 21.1732 28.3532 21.9246 29.3739L17.6915 35.3405C17.5492 35.5418 17.5445 35.8096 17.68 36.0153C17.8155 36.221 18.0626 36.3226 18.3042 36.2712L21.6532 35.5553L22.2415 38.7014C22.2881 38.9505 22.4862 39.1431 22.7365 39.1825C22.7676 39.1873 22.7987 39.1897 22.829 39.1897C23.0462 39.1897 23.2495 39.0713 23.3547 38.876L26.7787 32.5408L30.1125 38.9238C30.2165 39.1231 30.4218 39.2451 30.6418 39.2451C30.6697 39.2451 30.698 39.2431 30.7263 39.2391C30.977 39.2032 31.1783 39.0139 31.2285 38.7656L31.8623 35.6295L35.1953 36.392C35.4345 36.4466 35.6852 36.3493 35.8235 36.1452C35.9626 35.9404 35.9618 35.6725 35.8223 35.47ZM26.8305 20.8799C26.8408 20.8799 26.852 20.8799 26.8624 20.8799C29.5612 20.9003 31.7403 23.1128 31.7204 25.8113V25.8117C31.712 27.1175 31.1943 28.3424 30.2624 29.2599C29.3396 30.1687 28.1215 30.6682 26.8285 30.6678C26.8165 30.6678 26.8038 30.6678 26.7914 30.6678C24.0937 30.6494 21.9138 28.4396 21.9318 25.742C21.9513 23.0543 24.1463 20.8799 26.8305 20.8799ZM23.1068 36.8209L22.7166 34.7322C22.6871 34.574 22.5942 34.4337 22.4603 34.3444C22.3256 34.2543 22.1606 34.2228 22.0035 34.2571L19.555 34.7805L22.7461 30.2827C23.5935 31.0504 24.6557 31.581 25.8336 31.7751L23.1068 36.8209ZM31.5319 34.3261C31.3736 34.2898 31.2094 34.3193 31.0743 34.4062C30.9388 34.4939 30.8447 34.6322 30.8124 34.7904L30.3915 36.8735L27.7361 31.7898C28.8888 31.618 29.9602 31.1214 30.8451 30.3417L33.9681 34.8837L31.5319 34.3261Z" fill="black"/>
</svg>
