<svg width="40" height="40" viewBox="0 0 40 40" fill="none" xmlns="http://www.w3.org/2000/svg">
<path d="M37.2574 20.0891H34.2871V15.1386C34.2871 14.9811 34.2245 14.83 34.1131 14.7186C34.0017 14.6071 33.8506 14.5446 33.6931 14.5446H24.3861V9.59406C24.3861 9.43651 24.3236 9.2854 24.2121 9.174C24.1007 9.06259 23.9496 9 23.7921 9H3.59406C3.43651 9 3.2854 9.06259 3.174 9.174C3.06259 9.2854 3 9.43651 3 9.59406V28.2079C3 28.3655 3.06259 28.5166 3.174 28.628C3.2854 28.7394 3.43651 28.802 3.59406 28.802H8.11683C8.1977 29.5443 8.54986 30.2306 9.10573 30.7292C9.66159 31.2278 10.382 31.5035 11.1287 31.5035C11.8754 31.5035 12.5958 31.2278 13.1517 30.7292C13.7076 30.2306 14.0597 29.5443 14.1406 28.802H27.4277C27.5087 29.5453 27.8613 30.2326 28.4179 30.7319C28.9745 31.2312 29.6958 31.5073 30.4436 31.5073C31.1913 31.5073 31.9127 31.2312 32.4693 30.7319C33.0259 30.2326 33.3785 29.5453 33.4594 28.802H37.2574C37.415 28.802 37.5661 28.7394 37.6775 28.628C37.7889 28.5166 37.8515 28.3655 37.8515 28.2079V20.6832C37.8515 20.5256 37.7889 20.3745 37.6775 20.2631C37.5661 20.1517 37.415 20.0891 37.2574 20.0891ZM11.1188 30.3228C10.7533 30.3243 10.3955 30.2173 10.0909 30.0153C9.7863 29.8133 9.54852 29.5254 9.40774 29.1881C9.26695 28.8508 9.2295 28.4792 9.30014 28.1206C9.37077 27.762 9.54631 27.4324 9.80449 27.1737C10.0627 26.9149 10.3919 26.7387 10.7504 26.6673C11.1088 26.5959 11.4804 26.6325 11.8181 26.7726C12.1557 26.9126 12.4441 27.1498 12.6468 27.454C12.8494 27.7582 12.9572 28.1157 12.9564 28.4812C12.9554 28.9659 12.7638 29.4307 12.4229 29.7753C12.0821 30.1199 11.6193 30.3165 11.1347 30.3228H11.1188ZM11.1188 25.4475C10.4685 25.4516 9.83665 25.6642 9.31622 26.0542C8.79579 26.4442 8.41424 26.9909 8.22772 27.6139H4.18812V10.1881H23.198V27.6139H14.0337C13.8473 26.9892 13.4647 26.4412 12.9426 26.0511C12.4204 25.6609 11.7865 25.4492 11.1347 25.4475H11.1188ZM30.4416 30.3228C30.0764 30.3228 29.7194 30.2144 29.4158 30.0115C29.1123 29.8085 28.8757 29.52 28.7361 29.1826C28.5966 28.8451 28.5603 28.4738 28.6318 28.1157C28.7033 27.7576 28.8795 27.4288 29.138 27.1708C29.3965 26.9129 29.7257 26.7374 30.084 26.6667C30.4422 26.5959 30.8134 26.633 31.1506 26.7733C31.4878 26.9136 31.7757 27.1508 31.978 27.4548C32.1803 27.7588 32.2879 28.116 32.2871 28.4812C32.2861 28.97 32.0912 29.4384 31.7452 29.7836C31.3992 30.1289 30.9304 30.3228 30.4416 30.3228ZM36.6634 27.6139H33.3485C33.1587 26.9936 32.7747 26.4506 32.2532 26.0649C31.7317 25.6791 31.1002 25.4709 30.4515 25.4709C29.8028 25.4709 29.1713 25.6791 28.6497 26.0649C28.1282 26.4506 27.7443 26.9936 27.5545 27.6139H24.3861V15.7327H33.099V20.6832C33.099 20.8407 33.1616 20.9918 33.273 21.1032C33.3844 21.2146 33.5355 21.2772 33.6931 21.2772H36.6634V27.6139Z" fill="#171717"/>
<path d="M6.76238 16.1287H18.8416L16.8614 18.1089C16.803 18.1633 16.7562 18.2289 16.7237 18.3018C16.6913 18.3746 16.6738 18.4533 16.6724 18.5331C16.671 18.6128 16.6857 18.692 16.7155 18.766C16.7454 18.84 16.7899 18.9072 16.8463 18.9636C16.9027 19.02 16.9699 19.0645 17.0439 19.0944C17.1179 19.1242 17.1971 19.1389 17.2768 19.1375C17.3566 19.1361 17.4353 19.1186 17.5081 19.0862C17.581 19.0537 17.6466 19.0069 17.701 18.9485L20.3663 16.2832C20.4776 16.1718 20.5401 16.0208 20.5401 15.8634C20.5401 15.7059 20.4776 15.555 20.3663 15.4436L17.701 12.7782C17.6448 12.7231 17.5783 12.6796 17.5054 12.6501C17.4324 12.6207 17.3543 12.6059 17.2756 12.6067C17.1969 12.6074 17.1191 12.6236 17.0467 12.6544C16.9742 12.6852 16.9086 12.73 16.8535 12.7861C16.7983 12.8423 16.7548 12.9088 16.7254 12.9818C16.6959 13.0548 16.6812 13.1328 16.6819 13.2115C16.6826 13.2902 16.6989 13.368 16.7297 13.4405C16.7605 13.5129 16.8052 13.5785 16.8614 13.6337L18.1683 14.9406H6.76238C6.60482 14.9406 6.45372 15.0032 6.34231 15.1146C6.23091 15.226 6.16832 15.3771 6.16832 15.5347C6.16832 15.6922 6.23091 15.8433 6.34231 15.9547C6.45372 16.0661 6.60482 16.1287 6.76238 16.1287Z" fill="#171717"/>
<path d="M19.6337 21.8713C19.6337 21.7137 19.5711 21.5626 19.4597 21.4512C19.3483 21.3398 19.1972 21.2772 19.0396 21.2772H7L8.94059 19.3406C8.99546 19.2849 9.03883 19.219 9.06823 19.1466C9.09763 19.0742 9.11247 18.9967 9.11192 18.9186C9.11137 18.8404 9.09543 18.7631 9.06502 18.6912C9.0346 18.6192 8.9903 18.5539 8.93465 18.499C8.879 18.4441 8.81309 18.4008 8.74068 18.3714C8.66827 18.342 8.59078 18.3271 8.51263 18.3277C8.43448 18.3282 8.35721 18.3442 8.28522 18.3746C8.21323 18.405 8.14794 18.4493 8.09307 18.5049L5.42772 21.1703C5.31648 21.2817 5.25399 21.4327 5.25399 21.5901C5.25399 21.7475 5.31648 21.8985 5.42772 22.0099L8.09307 24.6752C8.20493 24.7876 8.35686 24.851 8.51543 24.8514C8.674 24.8517 8.82623 24.7891 8.93861 24.6772C9.051 24.5654 9.11435 24.4134 9.11472 24.2549C9.11509 24.0963 9.05246 23.9441 8.94059 23.8317L7.5703 22.4653H19.0554C19.2102 22.4612 19.3573 22.3968 19.4653 22.2858C19.5733 22.1749 19.6337 22.0261 19.6337 21.8713Z" fill="#171717"/>
</svg>
