<svg width="40" height="40" viewBox="0 0 40 40" fill="none" xmlns="http://www.w3.org/2000/svg">
<path d="M7.1709 27.6582C7.1709 29.6207 8.76756 31.2177 10.7304 31.2177C12.6933 31.2177 14.29 29.6207 14.29 27.6582C14.29 25.6957 12.6933 24.0986 10.7304 24.0986C8.76756 24.0986 7.1709 25.6953 7.1709 27.6582ZM13.12 27.6582C13.12 28.9756 12.0479 30.0477 10.7304 30.0477C9.41301 30.0477 8.3409 28.9756 8.3409 27.6582C8.3409 26.3407 9.41301 25.2686 10.7304 25.2686C12.0479 25.2686 13.12 26.3407 13.12 27.6582Z" fill="#171717"/>
<path d="M35.2505 14.3653C35.0095 14.1504 34.6401 14.1711 34.4245 14.4121L25.9275 23.9293L21.5533 19.555C21.3247 19.3265 20.9546 19.3265 20.7261 19.555C20.4976 19.7836 20.4976 20.1537 20.7261 20.3822L25.5383 25.1941C25.6483 25.304 25.7969 25.3653 25.9521 25.3653C25.9576 25.3653 25.963 25.3653 25.9685 25.3649C26.1292 25.3602 26.2813 25.29 26.3885 25.1699L35.2977 15.1909C35.5126 14.9503 35.4915 14.5802 35.2505 14.3653Z" fill="#171717"/>
<path d="M26.1541 26.8282C25.8308 26.8282 25.5691 27.0902 25.5691 27.4132V33.2347H4.85457V5.93465H25.5691V18.1912C25.5691 18.5141 25.8308 18.7762 26.1541 18.7762C26.4774 18.7762 26.7391 18.5141 26.7391 18.1912V5.34965C26.7391 5.02673 26.4774 4.76465 26.1541 4.76465H4.26957C3.94626 4.76465 3.68457 5.02673 3.68457 5.34965V33.8197C3.68457 34.1426 3.94626 34.4047 4.26957 34.4047H26.1541C26.4774 34.4047 26.7391 34.1426 26.7391 33.8197V27.4132C26.7391 27.0902 26.4774 26.8282 26.1541 26.8282Z" fill="#171717"/>
<path d="M19.3156 12.6524C19.6389 12.6524 19.9006 12.3903 19.9006 12.0674C19.9006 11.7445 19.6389 11.4824 19.3156 11.4824H7.56254C7.23923 11.4824 6.97754 11.7445 6.97754 12.0674C6.97754 12.3903 7.23923 12.6524 7.56254 12.6524H19.3156Z" fill="#171717"/>
<path d="M20.0449 17.2715C20.0449 16.9486 19.7833 16.6865 19.4599 16.6865H7.71C7.38669 16.6865 7.125 16.9486 7.125 17.2715C7.125 17.5944 7.38669 17.8565 7.71 17.8565H19.4599C19.7833 17.8565 20.0449 17.5944 20.0449 17.2715Z" fill="#171717"/>
</svg>
