<svg width="40" height="40" viewBox="0 0 40 40" fill="none" xmlns="http://www.w3.org/2000/svg">
<path d="M35.2002 31H33.4002V6.40005C33.4002 6.24092 33.337 6.08831 33.2245 5.97578C33.1119 5.86326 32.9593 5.80005 32.8002 5.80005H27.2002C27.0411 5.80005 26.8885 5.86326 26.7759 5.97578C26.6634 6.08831 26.6002 6.24092 26.6002 6.40005V31H23.4002V15.6C23.4002 15.4409 23.337 15.2883 23.2245 15.1758C23.1119 15.0633 22.9593 15 22.8002 15H17.2002C17.0411 15 16.8885 15.0633 16.7759 15.1758C16.6634 15.2883 16.6002 15.4409 16.6002 15.6V31H13.4002V24.4C13.4002 24.2409 13.337 24.0883 13.2245 23.9758C13.1119 23.8633 12.9593 23.8 12.8002 23.8H7.2002C7.04107 23.8 6.88845 23.8633 6.77593 23.9758C6.66341 24.0883 6.6002 24.2409 6.6002 24.4V31H4.8002C4.64107 31 4.48845 31.0633 4.37593 31.1758C4.26341 31.2883 4.2002 31.4409 4.2002 31.6C4.2002 31.7592 4.26341 31.9118 4.37593 32.0243C4.48845 32.1368 4.64107 32.2 4.8002 32.2H35.2002C35.3593 32.2 35.5119 32.1368 35.6245 32.0243C35.737 31.9118 35.8002 31.7592 35.8002 31.6C35.8002 31.4409 35.737 31.2883 35.6245 31.1758C35.5119 31.0633 35.3593 31 35.2002 31ZM27.8002 7.00005H32.2002V31H27.8002V7.00005ZM17.8002 16.2H22.2002V31H17.8002V16.2ZM7.8002 25H12.2002V31H7.8002V25Z" fill="white"/>
<path d="M5.20006 19.8C5.35913 19.7999 5.51164 19.7366 5.62406 19.624L22.2001 3.048V5.6C22.2001 5.75913 22.2633 5.91174 22.3758 6.02426C22.4883 6.13679 22.6409 6.2 22.8001 6.2C22.9592 6.2 23.1118 6.13679 23.2243 6.02426C23.3368 5.91174 23.4001 5.75913 23.4001 5.6V1.6C23.3995 1.52454 23.3845 1.44989 23.3561 1.38C23.3259 1.3063 23.2814 1.23933 23.225 1.18302C23.1687 1.12671 23.1018 1.08217 23.0281 1.052C22.9562 1.01978 22.8787 1.00211 22.8001 1H18.8001C18.6409 1 18.4883 1.06321 18.3758 1.17574C18.2633 1.28826 18.2001 1.44087 18.2001 1.6C18.2001 1.75913 18.2633 1.91174 18.3758 2.02426C18.4883 2.13679 18.6409 2.2 18.8001 2.2H21.3521L4.77606 18.776C4.69225 18.8599 4.63519 18.9668 4.61209 19.0831C4.58898 19.1994 4.60086 19.32 4.64623 19.4295C4.6916 19.5391 4.76842 19.6328 4.86699 19.6987C4.96557 19.7646 5.08147 19.7999 5.20006 19.8Z" fill="white"/>
</svg>
