<svg width="40" height="40" viewBox="0 0 40 40" fill="none" xmlns="http://www.w3.org/2000/svg">
<path d="M7.25781 5.53906C6.72656 5.71094 6.04688 6.16406 5.50781 6.70312C4.96875 7.23438 2.10938 10.7969 1.10156 12.1875C0.875 12.5078 0.539062 13.0703 0.359375 13.4375C0.046875 14.0859 0.0390625 14.1172 0.0390625 14.9219C0.0390625 15.6953 0.0546875 15.7734 0.296875 16.2656C0.585938 16.8594 0.898438 17.1641 2.53906 18.4531C3.09375 18.8984 3.65625 19.4062 3.78125 19.5938L4.01562 19.9219L3.54688 20.4141C2.91406 21.0547 2.75781 21.2969 2.61719 21.8438C2.17969 23.4766 3.5 25.25 5.25 25.375L5.78125 25.4141V25.6641C5.78125 26.0547 6.03906 26.8125 6.3125 27.2031C6.79688 27.9062 7.66406 28.4062 8.53906 28.4922L9.03906 28.5391L9.08594 28.9844C9.16406 29.9141 9.84375 30.8516 10.7578 31.3047C11.1094 31.4688 11.3516 31.5312 11.8125 31.5469L12.4062 31.5781L12.5391 31.9766C13.1172 33.7344 15.2969 34.4922 16.5703 33.3672L16.9219 33.0625L17.7656 33.7188C18.6641 34.4141 18.9219 34.5312 19.625 34.5312C20.7656 34.5312 21.8594 33.6562 22.1562 32.5078L22.2422 32.1484L22.8594 32.1094C23.3125 32.0781 23.5938 32.0078 23.9141 31.8594C24.7578 31.4453 25.4766 30.4688 25.5859 29.5859L25.6406 29.1797H26.3906C27.1016 29.1797 27.1797 29.1641 27.6406 28.9141C27.9141 28.7656 28.2656 28.4922 28.4297 28.3125C28.7891 27.8984 29.125 27.2188 29.1875 26.7734L29.2344 26.4297L29.6016 26.5391C30.4922 26.8203 31.6875 26.4609 32.3594 25.7109C33.2422 24.7344 33.4297 23.4766 32.8594 22.4062L32.6797 22.0703L33.4453 21.6719C34.6875 21.0156 35.2969 20.5703 36.25 19.625C36.7422 19.125 37.5156 18.4375 37.9688 18.0781C38.9141 17.3438 39.4531 16.7812 39.75 16.2109C39.9375 15.8594 39.9609 15.7344 39.9609 15C39.9609 13.9922 39.8281 13.6094 39.0703 12.4922C38.2344 11.25 35.1719 7.28906 34.6172 6.72656C33.6484 5.75 32.9297 5.42188 31.9062 5.48438C31.1016 5.53906 30.4531 5.875 28.9141 7.03125C28.0938 7.64844 27.5156 8.03125 27.2812 8.09375C26.9375 8.20312 25.1875 8.40625 24.2578 8.45312C23.8438 8.46875 23.6719 8.42188 22.7812 8.05469C21.2891 7.44531 20.5078 7.26562 19.3047 7.26562C18.7656 7.26562 17.4609 7.35156 16.4062 7.46875C15.3516 7.57812 13.9453 7.6875 13.2812 7.71094L12.0703 7.75781L10.9766 6.91406C9.57812 5.83594 8.98438 5.53906 8.10938 5.5C7.75 5.48438 7.36719 5.5 7.25781 5.53906ZM8.85938 6.84375C9.07812 6.95312 9.58594 7.28906 9.98438 7.59375L10.7109 8.14062L10.4922 8.42969C10.1875 8.82812 3.42969 17.4453 3.36719 17.5234C3.29688 17.6016 1.99219 16.5938 1.64062 16.2031C0.890625 15.3438 0.929688 14.4844 1.80469 13.1953C2.1875 12.6172 5.28906 8.65625 5.95312 7.88281C6.73438 6.96875 7.51562 6.52344 8.15625 6.60938C8.32812 6.63281 8.64844 6.73438 8.85938 6.84375ZM32.9141 6.80469C33.4609 7.08594 34.1797 7.89844 36.0391 10.3281C38.0078 12.9062 38.5078 13.6328 38.7422 14.2656C39.1406 15.3125 38.7656 16.0234 37.1875 17.2344L36.6797 17.625L33.0859 12.9453C31.1094 10.3672 29.4844 8.21875 29.4688 8.16406C29.4453 8.0625 29.9531 7.64062 30.7422 7.10156C31.5625 6.54688 32.2266 6.45312 32.9141 6.80469ZM20.8828 8.55469C21.3828 8.71094 21.4375 8.78906 21.1016 8.85156C20.9766 8.875 19.75 9.30469 18.3828 9.79688C16.7266 10.3984 15.6875 10.7266 15.3047 10.7812C13.75 11 13.25 11.2891 13.0078 12.1328C12.6094 13.5078 13.7812 15.0156 15.5938 15.4375C16.2812 15.5938 17.2031 15.5547 19.1406 15.2812C19.9375 15.1719 20.8047 15.0781 21.0625 15.0781C21.9219 15.0781 22.3047 15.3359 27.2266 19.2031C29.6719 21.125 31.7578 22.8203 31.8516 22.9609C32.0625 23.2734 32.0938 23.9141 31.9219 24.3281C31.5938 25.1172 30.5391 25.7188 29.9062 25.4766C29.7969 25.4375 28.8047 24.6953 27.7031 23.8359C26.6094 22.9766 25.6328 22.2344 25.5469 22.1875C25.1875 21.9922 24.7656 22.2734 24.7656 22.6953C24.7656 22.9922 24.8594 23.0781 26.6641 24.4922C28.0781 25.5938 28.2812 25.9297 28.0234 26.75C27.7188 27.7109 26.6797 28.3438 25.8984 28.0469C25.7812 28 25.0391 27.4531 24.2344 26.8281C22.8594 25.75 22.7734 25.6953 22.4688 25.7188C22.2188 25.7344 22.125 25.7891 22.0391 25.9531C21.8359 26.3203 21.9844 26.5234 23.125 27.4219C23.7031 27.875 24.2422 28.3672 24.3281 28.5078C24.4219 28.6719 24.4766 28.9141 24.4766 29.1797C24.4766 30.2109 23.4219 31.1641 22.4609 30.9844C22.2891 30.9531 21.8125 30.6328 21.0938 30.0781C20.2344 29.4141 19.9297 29.2188 19.7422 29.2188C19.4062 29.2188 19.2188 29.4141 19.2188 29.7734C19.2188 30.0625 19.25 30.0938 20.1562 30.7969L21.0938 31.5234V31.8594C21.0938 32.6953 20.1719 33.5547 19.4297 33.4062C19.0703 33.3359 17.7109 32.2734 17.7812 32.1172C17.8125 32.0469 17.9062 31.7969 17.9922 31.5625C18.2656 30.7891 18.0312 29.8203 17.3984 29.0938C17.1328 28.7891 16.3047 28.2812 16.0781 28.2812C15.9922 28.2812 15.9688 28.125 15.9766 27.5547C15.9766 26.9375 15.9453 26.7734 15.7656 26.3906C15.3047 25.3984 14.2969 24.6797 13.2734 24.625L12.7578 24.5938L12.7109 24.125C12.5859 22.75 11.4219 21.6484 9.95312 21.5078L9.46875 21.4609L9.4375 21.0234C9.33594 19.6797 8.125 18.5156 6.74219 18.4453C5.99219 18.4141 5.73438 18.4688 5.22656 18.7734L4.80469 19.0312L4.51562 18.6562L4.21875 18.2891L7.92188 13.5781L11.6172 8.86719L11.9609 8.875C12.6328 8.89844 14.9844 8.73438 16.6797 8.55469C18.6797 8.33594 20.1484 8.33594 20.8828 8.55469ZM32.1875 13.6484L35.8438 18.3984L35.2422 18.9922C34.9141 19.3125 34.3672 19.7656 34.0312 19.9922C33.2734 20.5078 31.7188 21.2656 31.6016 21.1797C31.5625 21.1406 29.8125 19.7734 27.7266 18.1406C23.5234 14.8516 23.1016 14.5391 22.4688 14.2578C21.6094 13.875 21.1953 13.8672 19.1406 14.1406C16.6172 14.4844 16.625 14.4844 16.0781 14.375C14.7344 14.1172 13.75 13.0703 14.1484 12.3359C14.2578 12.125 14.4844 12.0469 15.4219 11.9141C16.0547 11.8125 16.7266 11.6094 18.8047 10.8594C21.7109 9.8125 21.9375 9.75781 24.375 9.57031C26.5156 9.39844 27.6328 9.1875 28.2578 8.83594C28.3359 8.79688 28.4297 8.78906 28.4688 8.82812C28.5078 8.86719 30.1797 11.0312 32.1875 13.6484ZM7.1875 19.6953C7.65625 19.9062 7.95312 20.1953 8.17188 20.6641C8.5625 21.4844 8.40625 21.8516 7.0625 23.2266C6.23438 24.0781 6.07031 24.2109 5.78906 24.2578C5 24.3906 4.10938 23.8672 3.78125 23.0781C3.64844 22.7578 3.64844 22.2266 3.77344 21.9375C3.89062 21.6719 5.75781 19.6953 5.96875 19.6094C6.25781 19.4922 6.82812 19.5312 7.1875 19.6953ZM10.4531 22.7812C10.9922 23 11.4688 23.5938 11.5938 24.1953C11.7109 24.7109 11.5312 25.0234 10.5391 26.0938C10.0156 26.6484 9.46875 27.1562 9.32031 27.2266C8.89062 27.4297 8.21094 27.3594 7.79688 27.0625C7.34375 26.7422 7.02344 26.2656 6.97656 25.8359C6.89844 25.1328 6.96875 25 7.97656 23.9219C8.49219 23.375 9.02344 22.8672 9.16406 22.7891C9.46875 22.625 10.0625 22.6172 10.4531 22.7812ZM13.5312 25.7969C13.9141 25.9141 14.4922 26.4062 14.6875 26.8047C14.8906 27.1953 14.8906 27.8438 14.6953 28.1641C14.6172 28.2969 14.1172 28.8438 13.5859 29.3906C12.5391 30.4531 12.4062 30.5312 11.7578 30.4375C11.0312 30.3281 10.2969 29.5938 10.1875 28.8672C10.1094 28.3359 10.3281 27.9688 11.3984 26.8594C12.5156 25.6953 12.7734 25.5703 13.5312 25.7969ZM15.7891 29.3828C16.6562 29.6484 17.2109 30.6953 16.8438 31.3906C16.6562 31.75 15.6797 32.6484 15.3984 32.7344C14.6797 32.9375 13.7422 32.2734 13.5547 31.4297C13.5078 31.1875 13.5469 31.125 14.3828 30.2344C14.8672 29.7188 15.3125 29.2969 15.375 29.2969C15.4375 29.2969 15.625 29.3359 15.7891 29.3828Z" fill="#171717"/>
</svg>
