<svg width="20" height="20" viewBox="0 0 20 20" fill="none" xmlns="http://www.w3.org/2000/svg">
<path d="M16.1386 6.53488H15.0495V2.67349C15.0495 2.59472 15.0182 2.51917 14.9625 2.46346C14.9068 2.40776 14.8313 2.37646 14.7525 2.37646H10C9.92123 2.37646 9.84568 2.40776 9.78997 2.46346C9.73427 2.51917 9.70298 2.59472 9.70298 2.67349V4.95072H7.82179C7.74301 4.95072 7.66746 4.98202 7.61175 5.03772C7.55605 5.09342 7.52476 5.16897 7.52476 5.24775V9.10914H5.54456V5.04973C5.54456 4.97095 5.51327 4.8954 5.45756 4.8397C5.40186 4.784 5.32631 4.7527 5.24753 4.7527H2.47525C2.39648 4.7527 2.32092 4.784 2.26522 4.8397C2.20952 4.8954 2.17822 4.97095 2.17822 5.04973C2.17822 5.12851 2.20952 5.20406 2.26522 5.25976C2.32092 5.31547 2.39648 5.34676 2.47525 5.34676H4.9505V15.1487C4.94985 15.16 4.94985 15.1712 4.9505 15.1824C4.9505 15.2042 4.9505 15.226 4.9505 15.2478C4.94951 15.4908 4.99822 15.7314 5.09364 15.9549C5.18907 16.1784 5.32919 16.38 5.50539 16.5473C5.6816 16.7147 5.89017 16.8442 6.11828 16.928C6.34639 17.0118 6.58922 17.048 6.83185 17.0345C7.07448 17.0209 7.31178 16.9579 7.52917 16.8493C7.74655 16.7407 7.93943 16.5888 8.09595 16.4029C8.25247 16.217 8.36931 16.0011 8.43931 15.7684C8.50931 15.5357 8.53097 15.2911 8.50297 15.0497H12.8832C12.8552 15.2911 12.8768 15.5357 12.9468 15.7684C13.0168 16.0011 13.1337 16.217 13.2902 16.4029C13.4467 16.5888 13.6396 16.7407 13.857 16.8493C14.0744 16.9579 14.3117 17.0209 14.5543 17.0345C14.7969 17.048 15.0398 17.0118 15.2679 16.928C15.496 16.8442 15.7045 16.7147 15.8808 16.5473C16.057 16.38 16.1971 16.1784 16.2925 15.9549C16.3879 15.7314 16.4366 15.4908 16.4356 15.2478C16.4356 15.226 16.4356 15.2042 16.4356 15.1824C16.4363 15.1712 16.4363 15.16 16.4356 15.1487V6.83191C16.4356 6.75313 16.4044 6.67758 16.3487 6.62188C16.2929 6.56617 16.2174 6.53488 16.1386 6.53488ZM15.8416 9.10914H12.2772V7.12894H15.8416V9.10914ZM10.297 2.97052H14.4555V6.53488H12.2772V5.24775C12.2772 5.16897 12.2459 5.09342 12.1902 5.03772C12.1345 4.98202 12.059 4.95072 11.9802 4.95072H10.297V2.97052ZM8.11882 5.54478H11.6832V9.10914H8.11882V5.54478ZM6.73268 16.4359C6.49769 16.4359 6.26798 16.3662 6.07259 16.2356C5.87721 16.1051 5.72493 15.9195 5.635 15.7024C5.54507 15.4853 5.52154 15.2464 5.56739 15.016C5.61323 14.7855 5.72639 14.5738 5.89255 14.4076C6.05871 14.2415 6.27041 14.1283 6.50089 14.0825C6.73136 14.0366 6.97025 14.0601 7.18735 14.1501C7.40445 14.24 7.59001 14.3923 7.72056 14.5877C7.85112 14.7831 7.9208 15.0128 7.9208 15.2478C7.9208 15.5629 7.79562 15.8651 7.5728 16.0879C7.34999 16.3107 7.04779 16.4359 6.73268 16.4359ZM8.41585 14.4557C8.3876 14.4563 8.35959 14.4609 8.33268 14.4695C8.21179 14.2223 8.03528 14.0064 7.81698 13.8388C7.59868 13.6711 7.34452 13.5564 7.07443 13.5034C6.80434 13.4505 6.52566 13.4608 6.26024 13.5336C5.99481 13.6064 5.74985 13.7397 5.54456 13.923V9.7032H15.8416V13.923C15.6373 13.7404 15.3936 13.6073 15.1295 13.5342C14.8654 13.4611 14.5879 13.4498 14.3188 13.5014C14.0496 13.5529 13.796 13.6658 13.5776 13.8313C13.3591 13.9968 13.1818 14.2105 13.0594 14.4557H8.41585ZM14.6535 16.4359C14.4185 16.4359 14.1888 16.3662 13.9934 16.2356C13.798 16.1051 13.6457 15.9195 13.5558 15.7024C13.4659 15.4853 13.4423 15.2464 13.4882 15.016C13.534 14.7855 13.6472 14.5738 13.8133 14.4076C13.9795 14.2415 14.1912 14.1283 14.4217 14.0825C14.6522 14.0366 14.891 14.0601 15.1081 14.1501C15.3252 14.24 15.5108 14.3923 15.6414 14.5877C15.7719 14.7831 15.8416 15.0128 15.8416 15.2478C15.8416 15.5629 15.7164 15.8651 15.4936 16.0879C15.2708 16.3107 14.9686 16.4359 14.6535 16.4359Z" fill="white"/>
</svg>
