<svg width="20" height="20" viewBox="0 0 20 20" fill="none" xmlns="http://www.w3.org/2000/svg">
<path d="M13.523 3.22754C11.9239 3.22754 10.5487 4.2059 9.96516 5.5956C9.38121 4.2059 8.00546 3.22754 6.40549 3.22754C4.27838 3.22754 2.54767 4.95765 2.54767 7.08436C2.54767 7.90507 2.81274 8.69629 3.32095 9.38128L9.73178 17.3875C9.78858 17.4582 9.87428 17.4995 9.96516 17.4995H9.96536C10.0562 17.4995 10.1421 17.458 10.1987 17.3871L16.7483 9.17919C16.7545 9.17122 16.7606 9.16285 16.7662 9.15428C17.1694 8.52609 17.3827 7.81021 17.3827 7.08436C17.3828 4.95765 15.6511 3.22754 13.523 3.22754ZM16.2714 8.81866L9.96476 16.722L3.79428 9.01636C3.36977 8.44378 3.14536 7.77573 3.14536 7.08436C3.14536 5.28729 4.60782 3.82543 6.40529 3.82543C8.20336 3.82543 9.66621 5.28729 9.66621 7.08436C9.66621 7.24958 9.79994 7.38331 9.96516 7.38331C10.1304 7.38331 10.2641 7.24958 10.2641 7.08436C10.2641 5.28729 11.726 3.82543 13.523 3.82543C15.3215 3.82543 16.785 5.28729 16.785 7.08436C16.785 7.69083 16.6074 8.29012 16.2714 8.81866Z" fill="white"/>
</svg>
