<svg width="20" height="20" viewBox="0 0 20 20" fill="none" xmlns="http://www.w3.org/2000/svg">
<path d="M8.99609 1.33192C8.58203 1.46082 8.25 1.7616 8.05469 2.17567C7.95312 2.39832 7.94922 2.42176 7.9375 3.22254C7.92969 3.67176 7.93359 4.08192 7.94922 4.12879C7.99609 4.3202 8.34375 4.43348 8.56641 4.33192C8.76172 4.24207 8.78906 4.12489 8.78906 3.40223C8.78906 2.68739 8.81641 2.53895 8.99609 2.35145C9.19531 2.1366 8.96875 2.14832 13.4375 2.14832C16.9297 2.14832 17.5977 2.15614 17.6875 2.20301C17.8281 2.27723 17.9922 2.45692 18.043 2.58973C18.0742 2.66785 18.0859 4.98426 18.0859 10.1561C18.0859 15.328 18.0742 17.6444 18.043 17.7225C17.9883 17.871 17.8203 18.0468 17.668 18.1093C17.5625 18.1561 16.8359 18.1639 13.4336 18.1639H9.32422L9.16406 18.0702C9.07422 18.0194 8.96484 17.9061 8.91406 17.8202C8.83594 17.6757 8.82812 17.6171 8.82812 17.0272C8.82812 16.2772 8.79688 16.121 8.62109 16.0116C8.44922 15.9022 8.19141 15.9296 8.05078 16.0702L7.94922 16.1718V17.0233C7.94922 17.8163 7.95703 17.8866 8.04297 18.0975C8.16797 18.4139 8.49219 18.7538 8.82031 18.9139L9.08203 19.0429H17.832L18.0469 18.9413C18.4922 18.7304 18.8438 18.2929 18.9414 17.8202C18.9727 17.6718 18.9844 15.4608 18.9844 10.1444C18.9844 3.64051 18.9766 2.64442 18.9258 2.4491C18.7969 1.95692 18.5391 1.6366 18.0938 1.41785L17.7969 1.26942L13.5195 1.2616C9.35938 1.25379 9.23047 1.25379 8.99609 1.33192Z" fill="white"/>
<path d="M11.0156 5.84754C10.8242 5.91785 10.7031 6.17176 10.7578 6.3866C10.7734 6.4452 11.4414 7.17957 12.3047 8.09754L13.8281 9.70692L1.41016 9.72645L1.29297 9.84754C1.19531 9.9452 1.17188 9.99989 1.17188 10.1405C1.17188 10.3202 1.24609 10.4764 1.35938 10.535C1.39453 10.5507 4.21484 10.5741 7.625 10.5858L13.8281 10.6054L12.3047 12.246C10.7227 13.9491 10.6953 13.9882 10.7578 14.2421C10.8203 14.4804 11.1328 14.6327 11.3555 14.5233C11.4141 14.496 12.3125 13.5585 13.3477 12.4452C15.3125 10.3319 15.3242 10.3202 15.2578 10.0585C15.2305 9.95692 11.6445 6.05848 11.4375 5.90614C11.3242 5.8241 11.1484 5.80067 11.0156 5.84754Z" fill="white"/>
</svg>
