<svg width="20" height="20" viewBox="0 0 20 20" fill="none" xmlns="http://www.w3.org/2000/svg">
<path d="M18.7785 3.66031C18.7219 3.59415 18.639 3.55608 18.5517 3.55608H4.44588L3.87071 1.62849C3.83264 1.50173 3.71625 1.41504 3.58412 1.41504H1.37811C1.21289 1.41504 1.07916 1.54877 1.07916 1.71398C1.07916 1.8792 1.21289 2.01293 1.37811 2.01293H3.36131L6.99528 14.1907C6.99568 14.1921 6.99687 14.1933 6.99727 14.1947L7.44868 15.7301C7.16368 16.0133 6.98711 16.4053 6.98711 16.8376C6.98711 17.7006 7.68883 18.4027 8.55119 18.4027C9.38584 18.4027 10.0676 17.7434 10.1097 16.9177H14.0277C14.0275 16.9287 14.0261 16.9394 14.0261 16.9506C14.0261 17.8128 14.7274 18.5143 15.5893 18.5143C16.4513 18.5143 17.1528 17.8128 17.1528 16.9506C17.1528 16.0884 16.4513 15.3869 15.5893 15.3869C14.9518 15.3869 14.4031 15.7712 14.1602 16.3198H10.0244C9.94786 16.1016 9.82449 15.9009 9.65609 15.7325C9.36093 15.4373 8.96871 15.2745 8.55178 15.2745C8.55158 15.2745 8.55139 15.2745 8.55139 15.2745C8.34631 15.2745 8.1508 15.3152 7.97123 15.3873L7.68225 14.4042H16.984C17.1317 14.4042 17.2573 14.2964 17.2794 14.1505L18.8472 3.90007C18.8604 3.81397 18.8353 3.72648 18.7785 3.66031ZM15.5893 15.985C16.1217 15.985 16.5549 16.4183 16.5549 16.9508C16.5549 17.4833 16.1217 17.9166 15.5893 17.9166C15.057 17.9166 14.6239 17.4833 14.6239 16.9508C14.6239 16.4183 15.057 15.985 15.5893 15.985ZM8.55139 15.8726H8.55159C8.80888 15.8726 9.05082 15.973 9.23298 16.1554C9.41534 16.3378 9.51558 16.5803 9.51558 16.838C9.51558 17.3713 9.08291 17.8052 8.55099 17.8052C8.01827 17.8052 7.5848 17.3713 7.5848 16.838C7.585 16.3057 8.01847 15.8726 8.55139 15.8726ZM16.7271 13.8065H7.50628L6.94107 11.8837C6.9339 11.8594 6.92313 11.8372 6.91078 11.8163L4.62425 4.15397H18.2035L16.7271 13.8065Z" fill="white"/>
</svg>
