<svg width="40" height="40" viewBox="0 0 40 40" fill="none" xmlns="http://www.w3.org/2000/svg">
<path d="M37.288 17.9133L20.6512 3.69557C20.4269 3.50341 20.0957 3.505 19.8734 3.69915L3.59311 17.8661C3.34498 18.0817 3.31917 18.4581 3.53515 18.7062C3.75073 18.9543 4.12711 18.9805 4.37525 18.7642L7.88453 15.7103V34.7602C7.88453 35.0893 8.15093 35.3557 8.48006 35.3557H31.7976C32.1267 35.3557 32.3931 35.0893 32.3931 34.7602V15.2966L36.5142 18.8186C36.6266 18.9146 36.7639 18.9615 36.9009 18.9615C37.0692 18.9615 37.2364 18.8908 37.3543 18.753C37.5679 18.5029 37.5381 18.1269 37.288 17.9133ZM31.2021 34.1651H9.0756V14.6744L20.2681 4.93508L31.2024 14.2794L31.2021 34.1651Z" fill="#171717"/>
</svg>
