<svg width="30" height="30" viewBox="0 0 30 30" fill="none" xmlns="http://www.w3.org/2000/svg">
<g clip-path="url(#clip0_4734_350)">
<path d="M13.6227 5.66016C13.5289 5.67188 13.1422 5.72461 12.7731 5.77734C10.7985 6.04102 8.57775 6.79102 6.8258 7.77539C4.18322 9.26367 2.02111 11.3672 0.456657 13.9688C-0.105843 14.9121 -0.123421 15.0293 0.245719 15.6621C0.632438 16.3359 1.24181 17.2207 1.7633 17.877C2.26134 18.5039 3.58556 19.8691 4.15978 20.3496C4.33556 20.4961 4.47033 20.625 4.45275 20.6426C4.43517 20.6543 3.48009 21.2402 2.33166 21.9375C1.17736 22.6406 0.181266 23.2793 0.116813 23.3613C-0.0706871 23.5957 -0.0413902 23.9883 0.169547 24.2051C0.310172 24.3398 0.392204 24.375 0.609 24.375C0.855094 24.375 1.75158 23.8418 15.275 15.6094C23.1969 10.7871 29.7477 6.77344 29.8414 6.69141C29.9703 6.56836 29.9996 6.49219 29.9996 6.25195C29.9996 6.01758 29.9703 5.94141 29.8297 5.79492C29.6891 5.66016 29.607 5.625 29.3961 5.625C29.1676 5.625 29.0035 5.70117 28.0895 6.25781C27.5094 6.60938 26.443 7.25977 25.7106 7.69922L24.3805 8.50781L23.7594 8.11523C22.9567 7.61133 21.5738 6.9375 20.6656 6.60352C19.8512 6.30469 18.3102 5.90625 17.402 5.76562C16.816 5.67773 14.068 5.5957 13.6227 5.66016ZM17.1676 7.06055C18.7731 7.30664 20.3844 7.81641 21.7555 8.50195C22.3063 8.77734 23.0152 9.19336 23.0563 9.25781C23.0738 9.28711 22.1481 9.87305 21.0055 10.5703L18.9254 11.8359L18.65 11.5371C18.0465 10.8926 17.1676 10.3711 16.2594 10.1309C15.5973 9.94922 14.402 9.94922 13.7457 10.1309C11.7125 10.6758 10.2711 12.3398 10.0133 14.4258C9.92541 15.1172 10.0016 15.8672 10.2242 16.5645C10.3004 16.8164 10.3473 17.0391 10.3238 17.0566C10.1598 17.2148 5.71252 19.8633 5.65392 19.8398C5.47814 19.7754 4.47619 18.873 3.80236 18.1758C3.02892 17.3789 2.16173 16.2773 1.68127 15.4805L1.39416 15.0117L1.49963 14.8125C1.66955 14.4785 2.43713 13.3535 2.84728 12.832C3.35705 12.1934 4.63439 10.916 5.27306 10.4062C7.60509 8.55469 10.4176 7.37695 13.4176 7.00195C14.2848 6.89648 16.3004 6.92578 17.1676 7.06055ZM15.7906 11.3789C16.2535 11.4727 17.0035 11.8594 17.3668 12.1934C17.5485 12.3574 17.6949 12.5098 17.6949 12.5391C17.6949 12.5625 16.3238 13.418 14.6422 14.4434C12.2574 15.8965 11.5778 16.2891 11.5367 16.2246C11.3551 15.9434 11.2438 15.0762 11.3141 14.5137C11.4488 13.4414 11.9703 12.5684 12.8434 11.9531C13.693 11.3555 14.7184 11.1562 15.7906 11.3789Z" fill="#5D5D5D"/>
<path d="M25.8621 10.5118C25.698 10.6759 25.6628 10.7579 25.6628 10.9513C25.6628 11.1739 25.7097 11.2384 26.3132 11.9064C27.0574 12.7325 27.907 13.8341 28.3171 14.5196L28.6043 14.9884L28.4988 15.1876C28.0711 16.0314 26.9695 17.4493 25.991 18.4337C23.5125 20.9181 20.3484 22.4767 16.7566 22.9806C15.9011 23.0978 13.7273 23.0802 12.8601 22.9454C11.4656 22.7345 9.92457 22.2775 8.73512 21.7325C8.22535 21.4923 7.96168 21.4571 7.70387 21.5743C7.35816 21.7325 7.27027 22.2657 7.54566 22.5528C7.99683 23.045 10.6336 23.9181 12.6257 24.2403C13.4461 24.3751 16.2 24.3868 17.0203 24.2696C20.9754 23.672 24.2156 22.0724 26.9226 19.3653C28.0535 18.2403 28.8445 17.2091 29.6648 15.8087C30.0925 15.088 30.0984 14.9298 29.7527 14.338C29.1082 13.2306 28.2468 12.0646 27.3386 11.0743C26.7058 10.3888 26.6062 10.3185 26.2898 10.3126C26.1082 10.3126 26.0203 10.3536 25.8621 10.5118Z" fill="#5D5D5D"/>
<path d="M18.9258 14.7541C18.8086 14.8771 18.75 15.006 18.7207 15.2111C18.6035 16.1721 18.2988 16.881 17.7539 17.4728C16.7227 18.6037 15.2051 18.9904 13.7578 18.4924C13.1602 18.2814 12.9844 18.2932 12.7383 18.5392C12.5742 18.7033 12.5391 18.7853 12.5391 18.9846C12.5391 19.3478 12.791 19.5705 13.3945 19.7639C15.5391 20.4435 17.8184 19.717 19.0781 17.9474C19.6289 17.1857 19.9863 16.1721 20.0039 15.3635C20.0098 14.9474 20.0039 14.9299 19.8164 14.7599C19.5469 14.5197 19.166 14.5197 18.9258 14.7541Z" fill="#5D5D5D"/>
</g>
<defs>
<clipPath id="clip0_4734_350">
<rect width="30" height="30" fill="white"/>
</clipPath>
</defs>
</svg>
