<svg width="30" height="30" viewBox="0 0 30 30" fill="none" xmlns="http://www.w3.org/2000/svg">
<path d="M13.6813 6.09977C10.318 6.35172 7.04848 7.62321 4.33559 9.73258C3.15199 10.6525 1.69301 12.2052 0.802385 13.4943C-0.158553 14.883 -0.176131 14.9709 0.327775 15.7853C1.32973 17.4025 2.88832 19.1486 4.33559 20.2677C5.60707 21.258 7.23012 22.1896 8.67153 22.7521C12.5504 24.2756 16.9157 24.34 20.8356 22.9396C21.8434 22.5822 23.5368 21.7384 24.4039 21.1642C26.5485 19.7521 28.359 17.9006 29.6715 15.7853C30.1754 14.9709 30.1579 14.883 29.1969 13.4943C28.3063 12.2052 26.8473 10.6525 25.6637 9.73258C24.07 8.49626 22.1774 7.48258 20.32 6.88493C18.2223 6.20524 15.9137 5.92985 13.6813 6.09977ZM16.8161 7.47087C21.445 8.00993 25.5934 10.5353 28.2125 14.4025L28.6168 15.0002L28.2125 15.5978C26.1325 18.6681 22.9508 20.9943 19.4528 22.0021C17.7946 22.4767 16.4352 22.6466 14.5661 22.5998C12.4332 22.547 10.6813 22.1779 8.78871 21.3752C5.99379 20.1857 3.50356 18.1349 1.78676 15.5978L1.38246 15.0002L1.78676 14.4025C2.39613 13.5002 3.11684 12.6506 3.96645 11.8302C6.47426 9.40446 9.65004 7.89274 13.1246 7.47087C13.9918 7.3654 15.9254 7.3654 16.8161 7.47087Z" fill="#5D5D5D"/>
<path d="M13.8877 9.45703C11.626 9.9375 9.8916 11.6895 9.45801 13.9336C9.35254 14.4844 9.35254 15.5098 9.45801 16.0664C9.8623 18.1582 11.3506 19.7812 13.4482 20.4258C13.9404 20.5781 14.0459 20.5898 15.001 20.5898C15.9502 20.5898 16.0674 20.5781 16.5537 20.4316C18.3408 19.8809 19.6943 18.6152 20.2979 16.9277C20.5732 16.166 20.6494 15.6211 20.6084 14.7246C20.5498 13.2539 20.0225 12.0469 18.9854 11.0156C18.2588 10.2832 17.4326 9.80859 16.3604 9.51562C15.8975 9.38672 14.3975 9.35156 13.8877 9.45703ZM16.2021 10.8457C17.6553 11.2969 18.7158 12.3574 19.167 13.8281C19.3662 14.4609 19.3662 15.5449 19.167 16.1719C18.7041 17.6543 17.6494 18.709 16.1729 19.166C15.54 19.3652 14.4619 19.3652 13.8291 19.166C12.3525 18.709 11.2979 17.6543 10.835 16.1719C10.6357 15.5449 10.6357 14.4609 10.835 13.8281C11.3389 12.1934 12.6455 11.0215 14.2861 10.7227C14.7432 10.6348 15.7393 10.6992 16.2021 10.8457Z" fill="#5D5D5D"/>
</svg>
