<svg width="22" height="24" viewBox="0 0 22 24" fill="none" xmlns="http://www.w3.org/2000/svg">
<path d="M20.7624 16.9717C20.5162 16.9717 20.3169 17.1709 20.3169 17.4171V22.9107H1.60888V17.4171C1.60888 17.1709 1.40962 16.9717 1.16345 16.9717C0.917274 16.9717 0.718018 17.1709 0.718018 17.4171V23.3562C0.718018 23.6023 0.917274 23.8016 1.16345 23.8016H20.7624C21.0085 23.8016 21.2078 23.6023 21.2078 23.3562V17.4171C21.2078 17.1712 21.0085 16.9717 20.7624 16.9717Z" fill="black"/>
<path d="M10.6481 18.6231C10.7352 18.7101 10.8492 18.7535 10.9632 18.7535C11.0772 18.7535 11.1913 18.7101 11.2783 18.6231L15.1387 14.7627C15.3127 14.589 15.3127 14.3066 15.1387 14.1329C14.9647 13.9589 14.6828 13.9589 14.5088 14.1329L11.4089 17.2328V0.49084C11.4089 0.244666 11.2097 0.0454102 10.9635 0.0454102C10.7173 0.0454102 10.5181 0.244666 10.5181 0.49084V17.2328L7.41819 14.1329C7.24417 13.9589 6.96236 13.9589 6.78835 14.1329C6.61433 14.3066 6.61433 14.589 6.78835 14.7627L10.6481 18.6231Z" fill="black"/>
</svg>
