<svg width="77" height="63" viewBox="0 0 77 63" fill="none" xmlns="http://www.w3.org/2000/svg">
<path d="M36.0195 0.0218449C31.0852 0.463213 27.7204 1.41385 23.6894 3.48489C19.1502 5.81622 15.4015 9.07555 12.3189 13.3421C11.9237 13.8967 11.6415 14.372 11.6866 14.4172C11.7318 14.4625 12.1835 14.5191 12.7029 14.5304L13.64 14.5757L14.0917 13.9532C15.1757 12.4933 17.7727 9.65273 18.5405 9.10951C18.8454 8.89448 18.8567 8.89448 19.9519 9.16609C21.6682 9.59614 24.9992 10.2412 26.8284 10.4789C27.7317 10.6034 28.4995 10.7052 28.5221 10.7052C28.635 10.7052 28.5334 11.2258 28.1043 12.7197C27.7317 14.0438 27.6752 14.372 27.7994 14.4512C27.8785 14.5078 28.285 14.553 28.6914 14.553H29.4367L29.8432 13.1271C30.0803 12.3462 30.34 11.5201 30.4303 11.305L30.5997 10.8976L31.1981 10.9768C33.6258 11.2711 39.5538 11.3163 44.1381 11.09L45.6059 11.0108L45.7414 11.339C45.8092 11.5201 46.0576 12.3009 46.2834 13.0818L46.7012 14.4965L47.3787 14.5304C48.6207 14.587 48.5981 14.6549 48.0223 12.6405C47.7513 11.6898 47.548 10.875 47.5819 10.8523C47.6045 10.8184 48.6433 10.6486 49.8741 10.4676C52.1098 10.1507 55.5311 9.48297 56.5473 9.17741C56.8409 9.08687 57.1909 9.00765 57.3264 9.00765C57.778 9.00765 61.3122 12.7649 62.272 14.2475C62.4753 14.5644 62.4978 14.5757 63.4124 14.5304C63.9205 14.5191 64.3835 14.4625 64.4287 14.4059C64.6319 14.2022 62.272 11.2145 60.4089 9.33585C56.7054 5.60119 52.4937 3.00957 47.6045 1.43649C46.0463 0.938533 43.3589 0.350041 41.8346 0.180285C40.7281 0.0557957 36.8325 -0.0460587 36.0195 0.0218449ZM39.6892 2.03629C40.5587 2.45503 42.083 3.98284 42.896 5.21641C43.6977 6.44998 44.872 8.82658 44.7929 9.0416C44.6913 9.31321 43.167 9.40375 38.3343 9.40375C33.9984 9.40375 31.695 9.31321 31.3901 9.12082C31.2546 9.0416 31.3675 8.74736 31.9208 7.62696C33.5354 4.37894 35.1953 2.47766 37.0132 1.79864C37.702 1.54966 38.8988 1.65151 39.6892 2.03629ZM33.4225 2.05893C33.4225 2.09288 33.1515 2.45503 32.8128 2.87376C31.8417 4.0847 30.9271 5.57856 30.0803 7.34403L29.3012 8.98502L28.7366 8.92843C26.9187 8.74736 20.9907 7.67223 20.7988 7.49116C20.6971 7.37798 21.2504 6.95925 22.6957 6.08783C25.7218 4.25445 28.635 3.05484 31.9547 2.28527C33.2306 1.99103 33.4225 1.95708 33.4225 2.05893ZM44.6687 2.38713C47.119 2.95298 50.1451 4.16392 52.4824 5.51066C54.1874 6.49525 55.4407 7.33272 55.4407 7.49116C55.4407 7.55906 54.9439 7.72882 54.289 7.86462C52.8437 8.17018 48.6546 8.84921 47.5819 8.95107L46.7802 9.03029L46.577 8.47575C45.9673 6.81213 44.0703 3.63201 43.0541 2.53425C42.5234 1.96839 42.7831 1.94576 44.6687 2.38713Z" fill="#F77705"/>
<path d="M30.0351 17.3484C29.7528 17.3711 28.8947 17.4955 28.1269 17.62C23.4409 18.4009 20.6181 20.5399 19.6809 24.0595C19.3873 25.1233 19.4212 27.432 19.7487 28.6203C20.5391 31.608 22.7409 33.4188 26.7042 34.3581C27.201 34.4826 29.0528 34.7881 30.8142 35.0371C35.1162 35.6482 35.8727 35.8519 36.5164 36.6215C37.1035 37.3232 36.8325 38.5567 35.9744 39.0547C35.0598 39.5866 34.179 39.6998 31.503 39.6432C28.9511 39.5866 27.7881 39.4055 26.6251 38.8962L26.0831 38.6699V37.8098V36.961H22.8651H19.647V41.0352V45.1094H22.9554C25.2927 45.1094 26.8171 45.1659 28.1269 45.3017C29.3689 45.4376 30.9158 45.4941 32.8015 45.4941C36.0308 45.4941 37.6003 45.2904 39.7231 44.5888C44.1606 43.1402 46.2947 39.9827 45.843 35.5577C45.7075 34.2789 45.5495 33.6451 45.1091 32.751C44.409 31.3364 43.4493 30.4084 41.8346 29.6049C40.1296 28.7674 38.3794 28.3487 34.5404 27.862C30.6561 27.3528 29.6964 27.1151 28.985 26.4474C27.6526 25.2138 28.4995 23.6521 30.7239 23.256C31.8191 23.0636 35.0146 23.1881 36.2454 23.4823C37.431 23.7539 38.1875 24.0255 38.3004 24.2066C38.3456 24.2858 38.3907 24.6819 38.3907 25.1007V25.8702H41.6088H44.8268V21.7961V17.7219H41.4168C39.3618 17.7219 37.2955 17.654 36.2454 17.5634C34.4049 17.3937 30.8933 17.2692 30.0351 17.3484Z" fill="#F77705"/>
<path d="M59.6185 17.4388C55.994 17.9368 53.1599 19.2382 51.0258 21.3659C48.7788 23.618 47.5706 26.4699 47.2996 30.1367C46.9948 34.3466 48.0675 38.1039 50.3257 40.7295C51.071 41.5896 52.5163 42.8345 53.4534 43.389C54.8536 44.2491 56.9425 44.9621 59.1669 45.3582C60.4315 45.5845 64.1464 45.5506 65.4562 45.3016C70.3905 44.3736 73.6537 42.0989 75.5507 38.2624C76.2846 36.7572 76.7137 35.3991 76.8943 33.9958C77.0524 32.6604 77.0298 29.8424 76.8492 28.5862C76.0136 23.0634 72.0503 18.9666 66.3256 17.7218C65.3207 17.5067 62.4978 17.2691 61.1993 17.2804C60.917 17.2917 60.2057 17.3596 59.6185 17.4388ZM63.977 23.8896C65.1626 24.2291 66.2917 25.225 66.9354 26.4925C67.658 27.9411 67.9854 30.4196 67.7596 32.8641C67.6128 34.5164 67.4096 35.3878 66.9692 36.2932C66.0772 38.0926 64.7561 38.9753 62.6672 39.1677C59.6524 39.4393 57.5974 37.8889 56.7957 34.754C56.6602 34.1995 56.5473 33.2828 56.5021 32.2303C56.2876 27.2734 57.7103 24.4668 60.7816 23.7764C61.5945 23.584 63.085 23.6406 63.977 23.8896Z" fill="#F77705"/>
<path d="M0 21.1736V24.5122H2.20182H4.40364V31.4722V38.4323H2.20182H0V41.7708V45.1094H8.75082H17.5016V41.7708V38.4323H15.2998H13.098V31.4722V24.5122H15.2998H17.5016V21.1736V17.8351H8.75082H0V21.1736Z" fill="#F77705"/>
<path d="M11.6301 48.5723C11.6301 48.6062 11.8334 48.9344 12.0931 49.3079C13.5271 51.4242 16.2596 54.3666 18.3485 56.0302C21.6682 58.6898 25.4169 60.6363 29.4931 61.8133C34.1338 63.1487 39.3166 63.3638 44.0364 62.4244C49.4337 61.3493 54.4019 58.9501 58.4893 55.4644C59.5281 54.5703 61.5154 52.5672 62.351 51.56C63.0285 50.7451 64.4738 48.7307 64.4738 48.6062C64.4738 48.5496 64.0221 48.5043 63.4688 48.5043H62.4752L61.459 49.7719C60.2847 51.2431 58.7378 52.918 57.9135 53.6084L57.3489 54.0724L55.8585 53.7215C53.2727 53.1104 51.6355 52.8049 48.8126 52.4088C48.1577 52.3182 47.5819 52.2164 47.5593 52.1824C47.5254 52.1485 47.7174 51.3902 47.9658 50.4962C48.2255 49.5908 48.44 48.776 48.44 48.6741C48.44 48.5383 48.2819 48.5043 47.5593 48.5043H46.6786L46.2721 49.9416C46.0462 50.7451 45.8091 51.526 45.7414 51.6958L45.6285 52.0127L44.2396 51.9221C42.4556 51.8203 33.0273 51.8203 31.5933 51.9221L30.4867 52.0013L30.2157 51.0733C30.0577 50.5641 29.8318 49.7719 29.6963 49.3192L29.4592 48.5043H28.5672C28.0704 48.5043 27.6639 48.5496 27.6639 48.6062C27.6639 48.6628 27.8897 49.4776 28.1607 50.4169C28.4317 51.3563 28.6236 52.1485 28.5785 52.1711C28.5446 52.1937 28.2059 52.2503 27.8333 52.2843C26.0379 52.488 23.2151 52.9746 21.16 53.4273C19.9067 53.7102 18.8114 53.9366 18.7324 53.9366C18.4162 53.9366 15.1305 50.4396 14.1255 49.0363L13.7416 48.5043H12.6802C12.1044 48.5043 11.6301 48.527 11.6301 48.5723ZM42.5233 53.6536C44.5784 53.7102 44.8268 53.7442 44.8268 54.0271C44.8268 54.2648 43.3476 57.0714 42.7717 57.9315C41.9926 59.0972 40.4683 60.5571 39.5876 60.9645C38.8875 61.2927 38.7633 61.3153 37.9052 61.2701C37.1599 61.2361 36.8551 61.1569 36.3582 60.8966C35.5227 60.4439 34.0548 58.9614 33.287 57.7844C32.6095 56.7432 31.2771 54.1629 31.2771 53.88C31.2771 53.7555 31.4239 53.7102 31.8756 53.6989C32.1917 53.6876 33.1515 53.6536 33.9871 53.6084C35.4775 53.5292 38.6165 53.5405 42.5233 53.6536ZM29.3689 54.1403C29.414 54.1856 29.6286 54.6496 29.8657 55.1815C30.6448 56.9809 31.8078 58.8935 32.9482 60.2515C33.2305 60.5797 33.4225 60.874 33.3886 60.9193C33.2757 61.0324 30.6561 60.3987 29.0866 59.8781C26.4783 59.018 23.1473 57.343 21.1826 55.8944C20.6971 55.5436 20.6519 55.4757 20.8213 55.3852C21.1826 55.1815 24.5813 54.5477 27.6639 54.1063C28.6914 53.9592 29.2108 53.9705 29.3689 54.1403ZM49.5692 54.3327C51.8726 54.6609 55.4407 55.3852 55.4407 55.521C55.4407 55.6455 53.4986 56.9017 52.121 57.6599C49.7724 58.9614 47.3673 59.9007 44.6687 60.5684C42.9863 60.9758 42.7943 61.0098 42.7943 60.8627C42.7943 60.8061 43.054 60.4326 43.3815 60.0365C44.3187 58.8595 45.1091 57.5694 45.9559 55.8379C46.385 54.9551 46.7802 54.1629 46.8479 54.095C46.9157 54.0045 47.1641 54.0045 47.6157 54.0611C47.9771 54.1177 48.8578 54.2308 49.5692 54.3327Z" fill="#F77705"/>
</svg>
