<svg width="20" height="20" viewBox="0 0 20 20" fill="none" xmlns="http://www.w3.org/2000/svg">
<g clip-path="url(#clip0_4639_1829)">
<path d="M9.2187 0.0585938C7.71089 0.394531 6.5898 1.51953 6.26558 3.02734C6.23042 3.1875 6.20698 3.5 6.20698 3.78906C6.20698 4.55859 6.37886 5.18359 6.76167 5.80859L6.8398 5.93359L5.32417 5.94531L3.80855 5.95703L3.5937 6.05859C3.47652 6.11328 3.31245 6.22656 3.23042 6.30469C2.91792 6.61328 2.97261 6.36328 1.84761 12.6094C0.710891 18.9375 0.718703 18.8711 0.902297 19.2578C1.02339 19.5156 1.26948 19.7695 1.51558 19.8906L1.69917 19.9805H9.99995H18.3007L18.4843 19.8906C18.7304 19.7695 18.9765 19.5156 19.0976 19.2578C19.2812 18.8711 19.289 18.9375 18.1523 12.6094C17.0273 6.36328 17.082 6.61328 16.7695 6.30469C16.6875 6.22656 16.5234 6.11328 16.4062 6.05859L16.1914 5.95703L14.6757 5.94531L13.1601 5.93359L13.2382 5.80859C13.621 5.18359 13.7929 4.55859 13.7929 3.78906C13.7929 3.5 13.7695 3.1875 13.7343 3.02734C13.4335 1.625 12.4335 0.542969 11.0664 0.132812C10.7695 0.0429688 10.6367 0.0273438 10.0976 0.015625C9.6523 0.00390625 9.39839 0.0195312 9.2187 0.0585938ZM10.3984 0.683594C11.5937 0.785156 12.7187 1.78125 13.0507 3.02734C13.164 3.46094 13.164 4.11719 13.0507 4.55078C12.8828 5.1875 12.6171 5.61719 12.0351 6.19141C11.8398 6.38281 11.6796 6.55469 11.6796 6.57031C11.6796 6.58984 12.6484 6.60156 13.8281 6.60156C15.7343 6.60156 15.996 6.60938 16.1054 6.66406C16.3125 6.76953 16.4062 6.87891 16.4648 7.08984C16.4921 7.19531 16.9804 9.85547 17.539 13C18.2539 16.9922 18.5546 18.7539 18.539 18.8477C18.5039 19.0234 18.3437 19.2109 18.1445 19.3008C17.996 19.3711 17.6679 19.375 9.99995 19.375C2.33198 19.375 2.00386 19.3711 1.85542 19.3008C1.6562 19.2109 1.49605 19.0234 1.46089 18.8477C1.44527 18.7539 1.75386 16.957 2.47652 12.9141C3.05073 9.72266 3.53511 7.0625 3.55855 7.00391C3.61323 6.85547 3.70308 6.76172 3.87495 6.67578C4.01167 6.60547 4.13667 6.60156 6.17183 6.60156C7.35152 6.60156 8.32027 6.58984 8.32027 6.57031C8.32027 6.55469 8.16011 6.38281 7.9648 6.19141C7.38277 5.61719 7.11714 5.1875 6.94917 4.55078C6.83589 4.11719 6.83589 3.46094 6.94917 3.02734C7.28902 1.75 8.38667 0.800781 9.67964 0.667969C9.84761 0.652344 10.0156 0.640625 10.0585 0.648438C10.1015 0.65625 10.2539 0.667969 10.3984 0.683594Z" fill="#F77705"/>
<path d="M9.55491 1.97656C8.676 2.1875 8.06272 3.03906 8.13694 3.94531C8.21506 4.91016 9.03147 5.66406 10.0002 5.66406C11.1252 5.66406 12.008 4.64844 11.8479 3.53906C11.6916 2.4375 10.6291 1.71484 9.55491 1.97656ZM10.4807 2.69141C10.7307 2.80469 10.9612 3.02734 11.0822 3.27344C11.2229 3.5625 11.2346 3.98438 11.1057 4.26172C10.9924 4.51172 10.7658 4.75 10.5315 4.875C10.3596 4.96484 10.2854 4.98047 10.0002 4.98047C9.73069 4.98047 9.63694 4.96484 9.50022 4.89063C8.64866 4.4375 8.55491 3.33984 9.32444 2.79688C9.64475 2.57422 10.1252 2.52734 10.4807 2.69141Z" fill="#F77705"/>
<path d="M11.7732 10.9765C10.8982 11.1054 10.242 11.7343 10.0545 12.6288C9.96074 13.0585 9.99589 13.7187 10.1326 14.121C10.2615 14.5038 10.5193 14.8944 10.7693 15.0858C11.2303 15.4374 11.7264 15.5702 12.4217 15.5351C12.8982 15.5116 13.2342 15.4179 13.6834 15.1874C14.1521 14.9413 14.1404 14.9765 14.1404 14.0429C14.1404 12.9882 14.2107 13.0702 13.2889 13.0546C12.4646 13.039 12.3396 13.0702 12.242 13.3046C12.1639 13.4882 12.199 13.6444 12.3514 13.7694C12.4568 13.8593 12.4998 13.8671 12.8357 13.8671H13.2068L13.1951 14.1288C13.1834 14.3788 13.1756 14.3944 13.0545 14.4804C12.66 14.7421 12.074 14.8241 11.7146 14.6601C11.1482 14.4062 10.8553 13.7069 10.9725 12.9062C11.0857 12.1288 11.5584 11.7187 12.281 11.7655C12.6248 11.789 12.7654 11.8593 13.0467 12.1523C13.2498 12.3632 13.285 12.3827 13.4334 12.3827C13.867 12.3827 14.0662 11.9804 13.8162 11.6054C13.4881 11.1093 12.6404 10.8476 11.7732 10.9765Z" fill="#F77705"/>
<path d="M6.26956 11.0703C6.00784 11.1836 6.01565 11.1172 6.01565 13.2656V15.2031L6.14846 15.3359C6.25393 15.4414 6.31252 15.4688 6.44143 15.4688C6.64065 15.4688 6.77737 15.4062 6.86331 15.2773C6.91799 15.1953 6.93752 15.0703 6.94534 14.6445L6.96096 14.1133L7.30471 13.7695L7.64456 13.4297L8.22268 14.4102C8.53909 14.9531 8.83206 15.4102 8.87112 15.4297C8.91018 15.4531 9.08987 15.4688 9.27737 15.4688C9.58206 15.4688 9.62112 15.4609 9.70706 15.3711C9.89065 15.1914 9.90627 15.2266 8.87112 13.6367C8.58206 13.1953 8.34768 12.8164 8.34377 12.7891C8.33987 12.7617 8.60549 12.4609 8.92971 12.1211C9.25393 11.7812 9.53518 11.4609 9.55081 11.4102C9.62112 11.1836 9.4219 11.0156 9.08206 11.0156C8.71877 11.0156 8.73049 11.0078 7.81643 11.9961L6.95315 12.9336V12.1875C6.95315 11.3516 6.92581 11.2266 6.71096 11.0938C6.56252 11.0039 6.43752 10.9961 6.26956 11.0703Z" fill="#F77705"/>
</g>
<defs>
<clipPath id="clip0_4639_1829">
<rect width="20" height="20" fill="white"/>
</clipPath>
</defs>
</svg>
