<svg width="20" height="20" viewBox="0 0 20 20" fill="none" xmlns="http://www.w3.org/2000/svg">
<path d="M1.10547 5.35154C1.05859 5.37107 1.00391 5.42185 0.980469 5.46482C0.953125 5.5156 0.9375 6.11326 0.9375 7.23826V8.93357L1.02734 9.0156C1.15234 9.13279 1.36719 9.12888 1.47656 9.01169C1.5625 8.92185 1.5625 8.91404 1.5625 7.21873C1.5625 5.65623 1.55859 5.51169 1.49609 5.43357C1.41406 5.33982 1.23047 5.29685 1.10547 5.35154Z" fill="#F77705"/>
<path d="M18.6055 5.35154C18.5586 5.37107 18.5039 5.42185 18.4805 5.46482C18.4531 5.5156 18.4375 6.11326 18.4375 7.23826V8.93357L18.5273 9.0156C18.6523 9.13279 18.8672 9.12888 18.9766 9.01169C19.0625 8.92185 19.0625 8.91404 19.0625 7.21873C19.0625 5.65623 19.0586 5.51169 18.9961 5.43357C18.9141 5.33982 18.7305 5.29685 18.6055 5.35154Z" fill="#F77705"/>
<path d="M3.01953 6.53516C2.50781 7.04297 2.5 7.05859 2.5 7.22656C2.5 7.39453 2.50781 7.41016 3.01953 7.91797C3.5 8.39844 3.55078 8.4375 3.68359 8.4375C3.88281 8.4375 4.02344 8.30078 4.02344 8.10547C4.02344 7.99219 3.98828 7.92578 3.84375 7.77344L3.66016 7.57812H10H16.3359L16.1562 7.77734C16.0156 7.93359 15.9766 8.00781 15.9766 8.11328C15.9766 8.29688 16.1211 8.4375 16.3125 8.4375C16.4453 8.4375 16.5 8.39844 16.9453 7.95703C17.4922 7.42188 17.5703 7.29688 17.4844 7.10156C17.457 7.03125 17.2109 6.75781 16.9453 6.49219C16.5 6.05469 16.4453 6.01562 16.3125 6.01562C16.0547 6.01562 15.9023 6.26562 16.0195 6.49609C16.043 6.54297 16.125 6.64844 16.2031 6.72656L16.3438 6.875H10.0039H3.66406L3.84375 6.67578C3.98438 6.51953 4.02344 6.44531 4.02344 6.33984C4.02344 6.15625 3.87891 6.01562 3.68359 6.01562C3.55078 6.01562 3.5 6.05469 3.01953 6.53516Z" fill="#F77705"/>
<path d="M1.25781 10.3398C1.18359 10.375 1.08594 10.4648 1.03125 10.543L0.9375 10.6836V12.4648V14.2461L1.02734 14.3789C1.07422 14.4531 1.19141 14.5508 1.28906 14.5977L1.46094 14.6875H10H18.5391L18.7109 14.5977C18.8086 14.5508 18.9258 14.4531 18.9727 14.3789L19.0625 14.2461V12.4648V10.6836L18.9688 10.543C18.7695 10.25 19.5898 10.2734 9.99219 10.2734C2.10156 10.2734 1.375 10.2812 1.25781 10.3398ZM2.1875 11.1484C2.1875 11.4336 2.27344 11.543 2.5 11.543C2.72656 11.543 2.8125 11.4336 2.8125 11.1484V10.9375H3.125H3.4375V11.4609C3.4375 12.0859 3.47266 12.168 3.75 12.168C4.02734 12.168 4.0625 12.0859 4.0625 11.4609V10.9375H4.375H4.6875V11.1484C4.6875 11.4336 4.77344 11.543 5 11.543C5.22656 11.543 5.3125 11.4336 5.3125 11.1484V10.9375H5.625H5.9375V11.4609C5.9375 12.0859 5.97266 12.168 6.25 12.168C6.52734 12.168 6.5625 12.0859 6.5625 11.4609V10.9375H6.875H7.1875V11.1484C7.1875 11.4336 7.27344 11.543 7.5 11.543C7.72656 11.543 7.8125 11.4336 7.8125 11.1484V10.9375H8.125H8.4375V11.4609C8.4375 12.0859 8.47266 12.168 8.75 12.168C9.02734 12.168 9.0625 12.0859 9.0625 11.4609V10.9375H9.375H9.6875V11.1484C9.6875 11.4336 9.77344 11.543 10 11.543C10.2266 11.543 10.3125 11.4336 10.3125 11.1484V10.9375H10.625H10.9375V11.4609C10.9375 12.0859 10.9727 12.168 11.25 12.168C11.5273 12.168 11.5625 12.0859 11.5625 11.4609V10.9375H11.875H12.1875V11.1484C12.1875 11.4336 12.2734 11.543 12.5 11.543C12.7266 11.543 12.8125 11.4336 12.8125 11.1484V10.9375H13.125H13.4375V11.4609C13.4375 12.0859 13.4727 12.168 13.75 12.168C14.0273 12.168 14.0625 12.0859 14.0625 11.4609V10.9375H14.375H14.6875V11.1484C14.6875 11.4336 14.7734 11.543 15 11.543C15.2266 11.543 15.3125 11.4336 15.3125 11.1484V10.9375H15.625H15.9375V11.4609C15.9375 12.0859 15.9727 12.168 16.25 12.168C16.5273 12.168 16.5625 12.0859 16.5625 11.4609V10.9375H16.875H17.1875V11.1484C17.1875 11.4336 17.2734 11.543 17.5 11.543C17.7266 11.543 17.8125 11.4336 17.8125 11.1484V10.9375H18.125H18.4375V12.4805V14.0234H10H1.5625V12.4805V10.9375H1.875H2.1875V11.1484Z" fill="#F77705"/>
</svg>
