<svg width="40" height="40" viewBox="0 0 40 40" fill="none" xmlns="http://www.w3.org/2000/svg">
<path d="M17.911 3.12727C16.9235 3.30413 16.3708 3.46626 15.4349 3.84209C13.8726 4.46111 12.7967 5.19068 11.4997 6.48768C9.77528 8.20473 8.8099 9.94389 8.24246 12.3463C8.02138 13.3043 7.92558 15.3751 8.0656 16.4363C8.63303 20.7252 11.0797 25.8027 15.2433 31.2855C16.7467 33.2678 18.7585 35.6186 19.1564 35.8618C19.4659 36.0461 20.1144 36.0461 20.424 35.8618C20.8219 35.6186 22.8337 33.2678 24.3371 31.2855C28.1249 26.2891 30.4978 21.6464 31.3306 17.5564C31.559 16.451 31.6474 14.3729 31.5148 13.3485C31.1611 10.6882 30.0336 8.43318 28.0807 6.48768C26.3636 4.76326 24.6245 3.79787 22.2221 3.23043C21.1462 2.97251 19.009 2.92093 17.911 3.12727ZM21.3451 10.3861C22.6642 10.843 23.7844 11.9926 24.2192 13.319C24.3739 13.7833 24.396 13.997 24.396 14.8519C24.3887 15.7951 24.3813 15.8762 24.1528 16.4363C23.5928 17.8364 22.3621 18.9345 20.9251 19.3103C20.3576 19.4577 19.2596 19.4577 18.6701 19.3103C16.9972 18.8755 15.6929 17.5638 15.2581 15.8836C15.0738 15.1614 15.1328 13.9602 15.3907 13.2306C16.2529 10.8135 18.9132 9.53858 21.3451 10.3861Z" fill="#F77705"/>
</svg>
