<svg width="15" height="20" viewBox="0 0 15 20" fill="none" xmlns="http://www.w3.org/2000/svg">
<path d="M6.30555 0.0771637C5.6773 0.184354 5.32566 0.282612 4.73022 0.510391C3.73626 0.885556 3.05174 1.32771 2.22657 2.11378C1.12946 3.15441 0.51527 4.20845 0.154257 5.66445C0.0136023 6.24506 -0.0473481 7.50008 0.0417332 8.14322C0.402747 10.7426 1.95932 13.8198 4.60832 17.1427C5.56477 18.3441 6.84473 19.7689 7.09791 19.9163C7.29482 20.0279 7.70741 20.0279 7.90433 19.9163C8.15751 19.7689 9.43746 18.3441 10.3939 17.1427C12.8038 14.1146 14.3135 11.3009 14.8433 8.82209C14.9886 8.15215 15.0449 6.89267 14.9605 6.27186C14.7355 4.65954 14.0181 3.29287 12.7757 2.11378C11.6832 1.06867 10.5768 0.483594 9.04832 0.139692C8.3638 -0.0166265 7.00414 -0.0478914 6.30555 0.0771637ZM8.49039 4.47642C9.32963 4.75333 10.0423 5.45007 10.3189 6.25399C10.4174 6.53537 10.4314 6.66489 10.4314 7.18297C10.4267 7.75465 10.422 7.80378 10.2767 8.14322C9.92038 8.9918 9.1374 9.65728 8.22314 9.88505C7.86213 9.97438 7.16355 9.97438 6.78847 9.88505C5.72418 9.62155 4.89432 8.82655 4.6177 7.80825C4.50049 7.37055 4.53799 6.64256 4.70209 6.2004C5.25064 4.73547 6.94319 3.9628 8.49039 4.47642Z" fill="#171717"/>
</svg>
