<svg width="570" height="236" viewBox="0 0 570 236" fill="none" xmlns="http://www.w3.org/2000/svg">
<path fill-rule="evenodd" clip-rule="evenodd" d="M0 147.88V57.2171L98.9834 4.64624e-05V19.0174L16.4492 66.7255V138.371L0 147.88Z" fill="white"/>
<path fill-rule="evenodd" clip-rule="evenodd" d="M206.191 157.388V176.406L103.095 236V216.983L206.191 157.388Z" fill="white"/>
<path fill-rule="evenodd" clip-rule="evenodd" d="M4.59468e-05 157.388V176.406L103.095 236V216.983L4.59468e-05 157.388Z" fill="white"/>
<path fill-rule="evenodd" clip-rule="evenodd" d="M107.208 0L206.191 57.217V147.88L189.742 138.371V66.7255L107.208 19.0173V0Z" fill="white"/>
<path fill-rule="evenodd" clip-rule="evenodd" d="M98.9834 28.5258L82.5341 38.0342V104.802L98.9834 114.229V28.5258ZM74.3095 100.172L57.8602 90.6632V124.191L74.3095 114.765V100.172Z" fill="white"/>
<path fill-rule="evenodd" clip-rule="evenodd" d="M98.9834 114.229L82.5341 104.802L82.5341 195.588L98.9834 205.097L98.9834 114.229ZM8.22464 152.634L49.6352 128.903V176.364L8.22464 152.634ZM74.3095 114.765L57.8602 124.191L57.8598 181.325L74.309 190.833L74.3095 114.765Z" fill="white"/>
<path fill-rule="evenodd" clip-rule="evenodd" d="M131.882 100.172L148.331 90.6632V124.191L131.882 114.765V100.172ZM107.208 28.5258L123.657 38.0342V104.802L107.208 114.229V28.5258Z" fill="white"/>
<path fill-rule="evenodd" clip-rule="evenodd" d="M131.882 114.765L148.331 124.191V181.325L131.882 190.834V114.765ZM107.208 114.229L123.657 104.802V195.588L107.208 205.097V114.229ZM197.967 152.634L156.556 128.903V176.364L197.967 152.634Z" fill="white"/>
<path fill-rule="evenodd" clip-rule="evenodd" d="M275.93 162.067C271.286 162.067 267.094 161.614 263.378 160.706C259.662 159.799 256.4 158.483 253.567 156.781C250.735 155.08 248.311 152.993 246.317 150.543C244.323 148.093 242.737 145.303 241.536 142.218C240.562 139.722 239.86 136.978 239.452 133.983C239.021 130.967 238.818 127.609 238.818 123.889V71.5553H255.131V122.414C255.131 128.698 255.879 133.621 257.374 137.159C259.073 141.107 261.52 143.942 264.738 145.689C267.955 147.436 271.762 148.321 276.135 148.321C280.508 148.321 284.314 147.436 287.532 145.689C290.749 143.942 293.196 141.107 294.896 137.159C296.391 133.621 297.139 128.698 297.139 122.414V71.5553H313.452V123.889C313.452 127.609 313.248 130.967 312.818 133.983C312.41 136.978 311.707 139.722 310.734 142.218C309.533 145.303 307.924 148.093 305.908 150.543C303.914 152.993 301.444 155.08 298.544 156.781C295.644 158.483 292.313 159.799 288.552 160.706C284.791 161.614 280.575 162.067 275.93 162.067ZM385.342 94.9434C383.62 103.223 381.627 111.776 379.361 120.577L369.414 160.434H353.214L325.006 71.5553H342.316L353.01 106.966C356.25 118.082 358.856 128.131 360.85 137.114H361.235C363.184 127.473 365.449 117.56 368.009 107.42L377.163 71.5553H393.907L403.06 107.42C405.62 117.469 407.886 127.382 409.835 137.114H410.22C412.667 126.497 415.272 116.448 418.059 106.966L428.753 71.5553H446.063L417.855 160.434H401.655L391.709 120.577C389.443 111.594 387.449 103.042 385.727 94.9434H385.342ZM458.005 160.434V71.5553H474.318V160.434H458.005ZM518.953 89.8167C523.235 96.0777 526.248 100.547 527.97 103.246H528.31C530.712 99.5256 533.68 95.0796 537.283 89.8848L549.948 71.5557H568.663L537.736 115.269L570 160.434H551.534L537.668 140.562C534.269 135.708 531.12 131.103 528.243 126.747H527.971C524.98 131.261 521.83 135.889 518.545 140.562L504.679 160.434H486.236L518.477 115.269L487.55 71.5557H506.265L518.953 89.8167Z" fill="white"/>
</svg>
