<svg width="95" height="40" viewBox="0 0 95 40" fill="none" xmlns="http://www.w3.org/2000/svg">
<path fill-rule="evenodd" clip-rule="evenodd" d="M0.604248 24.9209V19.8193V10.0335L9.07887 5.14075L16.8775 0.638184V3.76094L10.4311 7.48272L3.30857 11.5949V19.8193V23.3595L0.604248 24.9209Z" fill="url(#paint0_linear_4538_83)"/>
<path fill-rule="evenodd" clip-rule="evenodd" d="M34.503 26.4824V29.6052L26.0283 34.4981L17.5536 39.3909V36.2682L18.6909 35.6116L24.0063 32.5427L31.7986 28.0438L32.2911 27.7595L34.503 26.4824Z" fill="url(#paint1_linear_4538_83)"/>
<path fill-rule="evenodd" clip-rule="evenodd" d="M0.604248 26.4824V29.6052L9.07887 34.4981L17.5536 39.3909V36.2682L16.4163 35.6116L11.1009 32.5427L3.30857 28.0438L2.81619 27.7595L0.604248 26.4824Z" fill="#B74800"/>
<path fill-rule="evenodd" clip-rule="evenodd" d="M18.2297 0.638184L26.0283 5.14075L34.503 10.0335V19.8193V24.9209L31.7986 23.3595V19.8193V11.5949L24.6762 7.48272L18.2297 3.76094V0.638184Z" fill="url(#paint2_linear_4538_83)"/>
<path fill-rule="evenodd" clip-rule="evenodd" d="M16.8775 5.32227L14.1732 6.8836V17.8473L16.8775 19.3952V5.32227ZM12.821 17.0869L10.1167 15.5256V21.031L12.821 19.4832V17.087V17.0869Z" fill="url(#paint3_linear_4538_83)"/>
<path fill-rule="evenodd" clip-rule="evenodd" d="M16.8775 19.395L14.1732 17.8472V32.7548L16.8775 34.3162V19.395ZM1.95642 25.7014L8.76449 21.8047V22.5787V26.4753V29.598L7.41233 28.8241L1.95642 25.7014ZM12.821 19.4829L10.1166 21.0308V30.4127L12.821 31.974V19.4829V19.4829Z" fill="url(#paint4_linear_4538_83)"/>
<path fill-rule="evenodd" clip-rule="evenodd" d="M22.2862 17.0869L24.9905 15.5256V21.031L22.2862 19.4832V17.087V17.0869ZM18.2297 5.32227L20.9341 6.8836V17.8473L18.2297 19.3952V5.32227Z" fill="url(#paint5_linear_4538_83)"/>
<path fill-rule="evenodd" clip-rule="evenodd" d="M22.2862 19.483L24.9905 21.0309V30.4128L22.2862 31.9741V19.4829V19.483ZM18.2297 19.395L20.9341 17.8472V32.7548L18.2297 34.3162V19.395ZM33.1509 25.7014L26.3428 21.8047V22.5787V26.4753V29.598L27.695 28.8241L33.1509 25.7014Z" fill="url(#paint6_linear_4538_83)"/>
<path fill-rule="evenodd" clip-rule="evenodd" d="M45.9684 27.2508C45.2048 27.2508 44.5157 27.1763 43.9048 27.0273C43.2939 26.8783 42.7574 26.6622 42.2918 26.3828C41.8262 26.1035 41.4277 25.7607 41.0999 25.3584C40.7721 24.9562 40.5113 24.498 40.3139 23.9914C40.1537 23.5816 40.0382 23.1309 39.9712 22.6392C39.9004 22.1439 39.8669 21.5925 39.8669 20.9817V12.3882H42.5489V20.7396C42.5489 21.7713 42.6718 22.5797 42.9177 23.1608C43.1971 23.8089 43.5993 24.2745 44.1284 24.5613C44.6573 24.8482 45.2831 24.9935 46.002 24.9935C46.7209 24.9935 47.3467 24.8482 47.8757 24.5613C48.4046 24.2745 48.8069 23.8089 49.0864 23.1608C49.3322 22.5797 49.4552 21.7713 49.4552 20.7396V12.3882H52.1371V20.9817C52.1371 21.5926 52.1036 22.1439 52.0329 22.6392C51.9658 23.1309 51.8503 23.5816 51.6902 23.9914C51.4928 24.498 51.2283 24.9562 50.8968 25.3584C50.569 25.7607 50.163 26.1034 49.6862 26.3828C49.2094 26.6622 48.6618 26.8783 48.0435 27.0273C47.4251 27.1763 46.7323 27.2508 45.9686 27.2508H45.9684ZM63.9562 16.2286C63.6731 17.5883 63.3453 18.9926 62.9728 20.4378L61.3376 26.9826H58.6742L54.0367 12.3882H56.8825L58.6407 18.2028C59.1734 20.0281 59.6017 21.6782 59.9295 23.1533H59.9928C60.3132 21.5702 60.6856 19.9424 61.1066 18.2773L62.6115 12.3882H65.3642L66.8691 18.2773C67.29 19.9275 67.6625 21.5553 67.9829 23.1533H68.0462C68.4485 21.41 68.8768 19.7598 69.335 18.2028L71.0932 12.3882H73.939L69.3015 26.9826H66.6381L65.0029 20.4378C64.6304 18.9627 64.3026 17.5584 64.0195 16.2286H63.9561H63.9562ZM75.9022 26.9826V12.3882H78.5841V26.9826H75.9022ZM85.9223 15.3868C86.6263 16.4149 87.1218 17.1487 87.4048 17.592H87.4607C87.8555 16.9811 88.3435 16.251 88.9358 15.398L91.0181 12.3883H94.0949L89.0103 19.5662L94.3147 26.9826H91.2789L88.9992 23.7195C88.4405 22.9224 87.9227 22.1662 87.4496 21.451H87.4049C86.9132 22.1923 86.3954 22.9522 85.8553 23.7195L83.5756 26.9826H80.5435L85.8441 19.5662L80.7595 12.3883H83.8364L85.9224 15.3869L85.9223 15.3868Z" fill="#B74800"/>
<defs>
<linearGradient id="paint0_linear_4538_83" x1="17.1526" y1="19.898" x2="0.329151" y2="29.1021" gradientUnits="userSpaceOnUse">
<stop stop-color="#F8AB0C"/>
<stop offset="1" stop-color="#F57604"/>
</linearGradient>
<linearGradient id="paint1_linear_4538_83" x1="50.2542" y1="52.3303" x2="22.0007" y2="27.8121" gradientUnits="userSpaceOnUse">
<stop stop-color="#943601"/>
<stop offset="1" stop-color="#582111"/>
</linearGradient>
<linearGradient id="paint2_linear_4538_83" x1="34.1537" y1="10.5547" x2="18.5789" y2="0.117056" gradientUnits="userSpaceOnUse">
<stop stop-color="#B74800"/>
<stop offset="1" stop-color="#F77603"/>
</linearGradient>
<linearGradient id="paint3_linear_4538_83" x1="17.1432" y1="19.8861" x2="4.41862" y2="26.772" gradientUnits="userSpaceOnUse">
<stop stop-color="#F77705"/>
<stop offset="1" stop-color="#F67501"/>
</linearGradient>
<linearGradient id="paint4_linear_4538_83" x1="1.63636" y1="26.3896" x2="17.1976" y2="33.6281" gradientUnits="userSpaceOnUse">
<stop stop-color="#F27005"/>
<stop offset="1" stop-color="#BE5703"/>
</linearGradient>
<linearGradient id="paint5_linear_4538_83" x1="18.335" y1="19.4631" x2="25.6917" y2="8.06195" gradientUnits="userSpaceOnUse">
<stop stop-color="#B74800"/>
<stop offset="1" stop-color="#B74800"/>
</linearGradient>
<linearGradient id="paint6_linear_4538_83" x1="24.2083" y1="34.4338" x2="28.9519" y2="18.9581" gradientUnits="userSpaceOnUse">
<stop stop-color="#581201"/>
<stop offset="1" stop-color="#8A3001"/>
</linearGradient>
</defs>
</svg>
