<svg width="97" height="40" viewBox="0 0 97 40" fill="none" xmlns="http://www.w3.org/2000/svg">
<path fill-rule="evenodd" clip-rule="evenodd" d="M0 25.0644V9.69781L16.8445 7.87499e-06V3.22329L2.79926 11.3094V23.4528L0 25.0644Z" fill="white"/>
<path fill-rule="evenodd" clip-rule="evenodd" d="M35.0887 26.676V29.8992L17.5443 40V36.7767L35.0887 26.676Z" fill="white"/>
<path fill-rule="evenodd" clip-rule="evenodd" d="M7.81902e-06 26.676V29.8992L17.5443 40V36.7767L7.81902e-06 26.676Z" fill="white"/>
<path fill-rule="evenodd" clip-rule="evenodd" d="M18.2442 0L35.0887 9.6978V25.0644L32.2894 23.4528V11.3094L18.2442 3.22328V0Z" fill="white"/>
<path fill-rule="evenodd" clip-rule="evenodd" d="M16.8445 4.83488L14.0453 6.44648V17.7631L16.8445 19.3608V4.83488ZM12.6456 16.9782L9.84639 15.3666V21.0493L12.6456 19.4516V16.9782Z" fill="white"/>
<path fill-rule="evenodd" clip-rule="evenodd" d="M16.8445 19.3608L14.0453 17.7631L14.0453 33.1506L16.8445 34.7622L16.8445 19.3608ZM1.39963 25.8701L8.44669 21.848V29.8922L1.39963 25.8701ZM12.6456 19.4516L9.84639 21.0493L9.84631 30.733L12.6456 32.3446L12.6456 19.4516Z" fill="white"/>
<path fill-rule="evenodd" clip-rule="evenodd" d="M22.4431 16.9782L25.2423 15.3666V21.0493L22.4431 19.4516V16.9782ZM18.2442 4.83488L21.0434 6.44648V17.7631L18.2442 19.3608V4.83488Z" fill="white"/>
<path fill-rule="evenodd" clip-rule="evenodd" d="M22.4431 19.4516L25.2423 21.0493V30.7331L22.4431 32.3447V19.4516ZM18.2442 19.3608L21.0434 17.7631V33.1506L18.2442 34.7622V19.3608ZM33.6891 25.8701L26.642 21.848V29.8922L33.6891 25.8701Z" fill="white"/>
<path fill-rule="evenodd" clip-rule="evenodd" d="M46.9566 27.469C46.1661 27.469 45.4528 27.3921 44.8205 27.2383C44.1881 27.0845 43.6329 26.8616 43.1509 26.5731C42.669 26.2848 42.2564 25.931 41.9171 25.5158C41.5778 25.1005 41.3079 24.6276 41.1036 24.1047C40.9377 23.6818 40.8182 23.2165 40.7489 22.709C40.6756 22.1977 40.6409 21.6286 40.6409 20.9981V12.128H43.417V20.7482C43.417 21.8132 43.5443 22.6476 43.7988 23.2473C44.0879 23.9164 44.5043 24.397 45.0519 24.693C45.5994 24.9891 46.2472 25.1391 46.9914 25.1391C47.7355 25.1391 48.3833 24.9891 48.9308 24.693C49.4783 24.397 49.8947 23.9164 50.184 23.2473C50.4385 22.6476 50.5657 21.8132 50.5657 20.7482V12.128H53.3418V20.9981C53.3418 21.6287 53.3071 22.1977 53.2339 22.709C53.1645 23.2165 53.0449 23.6818 52.8792 24.1047C52.6748 24.6276 52.4011 25.1005 52.058 25.5158C51.7187 25.931 51.2985 26.2847 50.8048 26.5731C50.3113 26.8615 49.7445 27.0845 49.1045 27.2383C48.4644 27.3921 47.747 27.469 46.9566 27.469ZM65.5758 16.0921C65.2827 17.4955 64.9435 18.945 64.5579 20.4368L62.8653 27.1923H60.1084L55.308 12.128H58.2538L60.0737 18.1298C60.6251 20.0138 61.0685 21.717 61.4077 23.2396H61.4733C61.8049 21.6056 62.1904 19.9254 62.6262 18.2067L64.1839 12.128H67.0332L68.5909 18.2067C69.0266 19.91 69.4122 21.5902 69.7438 23.2396H69.8093C70.2258 21.4402 70.6692 19.7369 71.1434 18.1298L72.9633 12.128H75.909L71.1087 27.1923H68.3518L66.6592 20.4368C66.2736 18.9142 65.9343 17.4647 65.6413 16.0921H65.5758ZM77.9411 27.1923V12.128H80.7172V27.1923H77.9411ZM88.313 15.2232C89.0417 16.2843 89.5546 17.0418 89.8475 17.4993H89.9054C90.3141 16.8688 90.8192 16.1152 91.4323 15.2347L93.5876 12.1281H96.7725L91.5094 19.5371L97 27.1923H93.8576L91.4979 23.8241C90.9195 23.0013 90.3836 22.2208 89.8939 21.4826H89.8476C89.3387 22.2477 88.8027 23.0321 88.2436 23.8241L85.8839 27.1923H82.7454L88.232 19.5371L82.969 12.1281H86.1538L88.313 15.2232Z" fill="white"/>
</svg>
