<svg width="40" height="40" viewBox="0 0 40 40" fill="none" xmlns="http://www.w3.org/2000/svg">
<path d="M12.869 16.917H8.97789C8.64746 16.917 8.38 17.1844 8.38 17.5149V21.4059C8.38 21.736 8.64746 22.0038 8.97789 22.0038H12.869C13.1994 22.0038 13.4668 21.736 13.4668 21.4059V17.5149C13.4668 17.1848 13.1994 16.917 12.869 16.917ZM12.2711 20.8081H9.57578V18.1128H12.2711V20.8081Z" fill="white"/>
<path d="M21.9442 16.917H18.0531C17.7227 16.917 17.4552 17.1844 17.4552 17.5149V21.4059C17.4552 21.736 17.7227 22.0038 18.0531 22.0038H21.9442C22.2742 22.0038 22.542 21.736 22.542 21.4059V17.5149C22.542 17.1848 22.2742 16.917 21.9442 16.917ZM21.3463 20.8081H18.651V18.1128H21.3463V20.8081Z" fill="white"/>
<path d="M30.7394 16.917H26.8484C26.5183 16.917 26.2505 17.1844 26.2505 17.5149V21.4059C26.2505 21.736 26.5183 22.0038 26.8484 22.0038H30.7394C31.0695 22.0038 31.3373 21.736 31.3373 21.4059V17.5149C31.3373 17.1848 31.0695 16.917 30.7394 16.917ZM30.1416 20.8081H27.4463V18.1128H30.1416V20.8081Z" fill="white"/>
<path d="M12.869 25.7803H8.97789C8.64746 25.7803 8.38 26.0481 8.38 26.3782V30.2692C8.38 30.5993 8.64746 30.8671 8.97789 30.8671H12.869C13.1994 30.8671 13.4668 30.5993 13.4668 30.2692V26.3782C13.4668 26.0481 13.1994 25.7803 12.869 25.7803ZM12.2711 29.6713H9.57578V26.9761H12.2711V29.6713Z" fill="white"/>
<path d="M21.9442 25.7803H18.0531C17.7227 25.7803 17.4552 26.0481 17.4552 26.3782V30.2692C17.4552 30.5993 17.7227 30.8671 18.0531 30.8671H21.9442C22.2742 30.8671 22.542 30.5993 22.542 30.2692V26.3782C22.542 26.0481 22.2742 25.7803 21.9442 25.7803ZM21.3463 29.6713H18.651V26.9761H21.3463V29.6713Z" fill="white"/>
<path d="M30.7394 25.7803H26.8484C26.5183 25.7803 26.2505 26.0481 26.2505 26.3782V30.2692C26.2505 30.5993 26.5183 30.8671 26.8484 30.8671H30.7394C31.0695 30.8671 31.3373 30.5993 31.3373 30.2692V26.3782C31.3373 26.0481 31.0695 25.7803 30.7394 25.7803ZM30.1416 29.6713H27.4463V26.9761H30.1416V29.6713Z" fill="white"/>
<path d="M35.4748 5.33899H31.5259C31.5207 5.33899 31.5163 5.34018 31.5111 5.34058V4.54419C31.5111 3.24159 30.4517 2.18213 29.1491 2.18213C27.8465 2.18213 26.787 3.24199 26.787 4.54419V5.33899H22.3375V4.54419C22.3375 3.24159 21.2781 2.18213 19.9755 2.18213C18.6729 2.18213 17.6134 3.24199 17.6134 4.54419V5.33899H13.1635V4.54419C13.1635 3.24159 12.104 2.18213 10.8014 2.18213C9.49884 2.18213 8.43938 3.24199 8.43938 4.54419V5.33938C8.43739 5.33938 8.4354 5.33899 8.4334 5.33899H4.48534C4.15491 5.33899 3.88745 5.60644 3.88745 5.93687V36.9259C3.88745 37.2559 4.15491 37.5238 4.48534 37.5238H35.4748C35.8048 37.5238 36.0726 37.2559 36.0726 36.9259V5.93687C36.0726 5.60644 35.8048 5.33899 35.4748 5.33899ZM27.9828 4.54419C27.9828 3.90086 28.5057 3.37791 29.1491 3.37791C29.7924 3.37791 30.3154 3.90086 30.3154 4.54419V7.84335C30.3154 8.48628 29.7924 9.00963 29.1491 9.00963C28.5057 9.00963 27.9828 8.48667 27.9828 7.84335V4.54419ZM19.9755 3.37791C20.6184 3.37791 21.1417 3.90086 21.1417 4.54419V7.84335C21.1417 8.48628 20.6188 9.00963 19.9755 9.00963C19.3321 9.00963 18.8092 8.48667 18.8092 7.84335V5.99268C18.8108 5.97394 18.8148 5.95601 18.8148 5.93648C18.8148 5.91694 18.8108 5.89901 18.8092 5.88027V4.54419C18.8092 3.90086 19.3321 3.37791 19.9755 3.37791ZM9.63516 4.54419C9.63516 3.90086 10.1581 3.37791 10.8014 3.37791C11.4444 3.37791 11.9677 3.90086 11.9677 4.54419V7.84335C11.9677 8.48628 11.4448 9.00963 10.8014 9.00963C10.1581 9.00963 9.63516 8.48667 9.63516 7.84335V4.54419ZM34.8769 36.328H5.08323V6.53476H8.4334C8.4354 6.53476 8.43739 6.53437 8.43938 6.53437V7.84374C8.43938 9.14635 9.49924 10.2058 10.8014 10.2058C12.1036 10.2058 13.1635 9.14635 13.1635 7.84374V6.53516H17.6134V7.84374C17.6134 9.14635 18.6733 10.2058 19.9755 10.2058C21.2777 10.2058 22.3375 9.14635 22.3375 7.84374V6.53516H26.787V7.84374C26.787 9.14635 27.8465 10.2058 29.1491 10.2058C30.4517 10.2058 31.5111 9.14635 31.5111 7.84374V6.53317C31.5163 6.53317 31.5207 6.53476 31.5259 6.53476H34.8769V36.328Z" fill="white"/>
</svg>
