<svg width="40" height="40" viewBox="0 0 40 40" fill="none" xmlns="http://www.w3.org/2000/svg">
<path d="M34.349 24.9797L29.3382 21.6868C29.0647 21.5069 28.6942 21.5823 28.5132 21.8575C28.3326 22.1322 28.4092 22.5018 28.6839 22.6821L32.826 25.4041L15.4559 31.573L3.06684 23.3761L10.1493 20.7986C10.4582 20.6863 10.6182 20.3444 10.5051 20.0351C10.3927 19.7263 10.0505 19.5663 9.74198 19.6794L1.5395 22.6646C1.24014 22.7734 1.08292 23.0978 1.17622 23.3991V26.9382C1.17622 27.0076 1.19051 27.0732 1.21235 27.1351C1.21632 27.3237 1.30922 27.5071 1.47835 27.6191L15.0462 36.5957C15.1474 36.6624 15.2618 36.6946 15.3745 36.6946C15.4924 36.6946 15.6064 36.6557 15.7056 36.5894L34.3947 29.9524C34.6146 29.8742 34.758 29.6792 34.7842 29.462C34.8171 29.3882 34.8362 29.3068 34.8362 29.2207V25.5645C34.8358 25.2727 34.6258 25.0309 34.349 24.9797ZM2.36729 24.3416L14.7794 32.5537V34.991L2.36729 26.779V24.3416ZM15.9705 32.6541L33.6451 26.3772V28.9543L15.9705 35.2312V32.6541Z" fill="#E1E1E1"/>
<path d="M38.555 12.5838C38.555 12.2924 38.3454 12.0506 38.0687 11.9994L24.6358 3.1073C24.6251 3.10015 24.6132 3.09618 24.6025 3.08983C24.5842 3.0795 24.5663 3.06918 24.5469 3.06084C24.5286 3.0529 24.5104 3.04655 24.4921 3.0406C24.4742 3.03464 24.4568 3.02908 24.4385 3.02511C24.4186 3.02074 24.3988 3.01797 24.3785 3.01558C24.3607 3.0136 24.3428 3.01122 24.3245 3.01082C24.3039 3.01042 24.2837 3.01161 24.263 3.0132C24.2451 3.01439 24.2273 3.01598 24.209 3.01876C24.188 3.02233 24.1673 3.02789 24.1467 3.03385C24.1344 3.03742 24.1221 3.03861 24.1098 3.04258L5.2639 9.67643C4.95938 9.78362 4.79819 10.1132 4.89546 10.4185V13.9528C4.89546 14.0202 4.90896 14.0842 4.93 14.1445C4.93278 14.3347 5.02608 14.5205 5.19641 14.6332L18.7619 23.6131C18.8631 23.6798 18.9771 23.712 19.0902 23.712C19.2085 23.712 19.3229 23.6731 19.4221 23.606L38.1115 16.9725C38.3307 16.8947 38.4732 16.7013 38.5006 16.4854C38.5348 16.4103 38.555 16.3273 38.555 16.2396V12.5838ZM24.2257 4.26422L36.5489 12.4218L19.1716 18.5892L6.79839 10.3986L24.2257 4.26422ZM6.08653 11.3558L18.4951 19.5698V22.0075L6.08653 13.7935V11.3558ZM19.6861 19.6703L37.3639 13.3961V15.9732L19.6861 22.2477V19.6703Z" fill="#E1E1E1"/>
</svg>
