<svg width="40" height="40" viewBox="0 0 40 40" fill="none" xmlns="http://www.w3.org/2000/svg">
<path d="M36.4334 23.9267C36.1739 23.5594 35.7998 23.2885 35.3697 23.1566C34.9397 23.0247 34.4781 23.0393 34.0572 23.198C34.0251 22.8552 33.9051 22.5264 33.7087 22.2436C33.4018 21.8062 32.9347 21.5076 32.409 21.4127C31.8832 21.3177 31.3412 21.4342 30.9007 21.7366L30.5681 21.9545C30.5296 21.6303 30.4127 21.3203 30.2275 21.0515C29.9172 20.6132 29.4464 20.3153 28.9175 20.2226C28.3886 20.1299 27.8445 20.2499 27.4037 20.5564L27.376 20.5802C24.6988 22.8297 21.4512 25.1149 20.6196 25.1149C20.0057 25.1149 18.1285 24.0653 16.6235 23.2218C14.7067 22.1485 12.8928 21.1347 11.871 21.0515C9.91461 20.901 3.95025 24.3663 3.28491 24.7624C3.21964 24.8006 3.16253 24.8513 3.11686 24.9116C3.07119 24.9719 3.03784 25.0406 3.01871 25.1138C2.99959 25.187 2.99507 25.2632 3.00541 25.3381C3.01574 25.4131 3.04074 25.4852 3.07897 25.5505C3.11719 25.6158 3.1679 25.6729 3.2282 25.7185C3.28849 25.7642 3.35719 25.7976 3.43037 25.8167C3.50356 25.8358 3.57979 25.8403 3.65472 25.83C3.72965 25.8197 3.80181 25.7947 3.86708 25.7564C6.29481 24.3307 10.5998 22.1248 11.7879 22.1921C12.58 22.2515 14.4374 23.297 16.0809 24.2198C18.2512 25.4356 19.6453 26.2 20.5205 26.2475C20.5587 26.2513 20.5972 26.2513 20.6354 26.2475H24.5958C24.9424 26.2475 25.2748 26.3852 25.5199 26.6303C25.765 26.8754 25.9027 27.2078 25.9027 27.5545C25.9027 27.9011 25.765 28.2335 25.5199 28.4786C25.2748 28.7237 24.9424 28.8614 24.5958 28.8614H24.5562C24.5166 28.8614 20.6552 29.1307 19.0671 28.8614C17.574 28.6119 15.6691 26.9208 15.6493 26.905C15.5358 26.8031 15.3866 26.7504 15.2343 26.7586C15.082 26.7668 14.9393 26.8351 14.8374 26.9485C14.7355 27.062 14.6828 27.2112 14.691 27.3635C14.6992 27.5157 14.7675 27.6585 14.8809 27.7604C14.9681 27.8396 17.0552 29.6931 18.877 29.998C19.6436 30.0989 20.4167 30.1426 21.1899 30.1287C22.8334 30.1287 24.5285 30.0099 24.6354 30.002C25.2415 29.9343 25.8007 29.6435 26.2042 29.1861C26.6076 28.7288 26.8265 28.1377 26.8181 27.5279C26.8097 26.9181 26.5746 26.3332 26.1587 25.8872C25.7428 25.4411 25.1758 25.1658 24.5681 25.1149H23.2215C24.9057 24.0083 26.5243 22.805 28.0691 21.5109C28.2113 21.4128 28.3795 21.3589 28.5523 21.3562C28.7251 21.3535 28.8948 21.402 29.0401 21.4956C29.1854 21.5892 29.2997 21.7237 29.3686 21.8822C29.4376 22.0407 29.458 22.216 29.4275 22.3861C29.4078 22.4997 29.3659 22.6082 29.304 22.7054C29.2421 22.8026 29.1616 22.8866 29.0671 22.9525L29.0275 22.9842L28.9839 23.0198L28.9483 23.0634L28.9126 23.1109L28.8889 23.1584L28.8611 23.2099C28.8611 23.2099 28.8611 23.2416 28.8611 23.2614C28.8603 23.2799 28.8603 23.2984 28.8611 23.3168C28.8611 23.3168 28.8611 23.3525 28.8611 23.3683C28.8601 23.3881 28.8601 23.4079 28.8611 23.4277C28.8611 23.4277 28.8611 23.4634 28.8611 23.4832C28.8602 23.5016 28.8602 23.5201 28.8611 23.5386C28.8603 23.5571 28.8603 23.5756 28.8611 23.5941C28.8611 23.5941 28.8611 23.6297 28.8611 23.6455C28.8694 23.6645 28.8786 23.683 28.8889 23.701L28.9087 23.7406L28.9285 23.7644C28.9476 23.7898 28.9688 23.8137 28.9918 23.8356L29.0275 23.8634L29.0988 23.9109L29.1344 23.9267L29.2215 23.9584H29.2532C29.294 23.9628 29.3352 23.9628 29.376 23.9584C29.4228 23.9575 29.4694 23.9509 29.5146 23.9386H29.5503C29.5963 23.9231 29.6403 23.9019 29.6809 23.8752L31.5146 22.6871C31.7053 22.5534 31.9413 22.5008 32.1707 22.5409C32.4002 22.581 32.6043 22.7105 32.7384 22.901C32.8045 22.9951 32.8514 23.1013 32.8764 23.2136C32.9014 23.3258 32.9041 23.4419 32.8842 23.5552C32.8644 23.6685 32.8224 23.7768 32.7607 23.8738C32.6989 23.9709 32.6187 24.0548 32.5245 24.1208L31.9344 24.5168C31.8691 24.5621 31.8134 24.6197 31.7704 24.6865C31.7274 24.7533 31.698 24.8279 31.6839 24.906C31.6697 24.9842 31.6711 25.0644 31.6879 25.142C31.7047 25.2196 31.7367 25.2931 31.7819 25.3584C31.8272 25.4237 31.8848 25.4794 31.9516 25.5224C32.0184 25.5654 32.093 25.5948 32.1711 25.6089C32.2493 25.6231 32.3295 25.6217 32.4071 25.6049C32.4847 25.5881 32.5582 25.5561 32.6235 25.5109L33.2057 25.1149L34.2829 24.3901C34.3767 24.3145 34.4851 24.2592 34.6013 24.2274C34.7176 24.1957 34.8391 24.1883 34.9583 24.2057C35.0775 24.223 35.1918 24.2648 35.2941 24.3285C35.3964 24.3921 35.4845 24.4761 35.5528 24.5753C35.6211 24.6745 35.6682 24.7868 35.6912 24.905C35.7141 25.0233 35.7124 25.145 35.6861 25.2625C35.6599 25.3801 35.6096 25.491 35.5385 25.5882C35.4675 25.6855 35.3771 25.767 35.273 25.8277C29.0275 30.2119 21.9423 34.7584 20.8968 34.7703C20.1047 34.7703 18.4097 33.7485 16.8968 32.8495C15.1899 31.8317 13.5819 30.8693 12.4453 30.7228C10.18 30.4218 6.67897 33.0356 6.28689 33.3525C6.1661 33.4454 6.08718 33.5826 6.0675 33.7337C6.04781 33.8849 6.08898 34.0376 6.18194 34.1584C6.27489 34.2792 6.41203 34.3581 6.56317 34.3778C6.71431 34.3975 6.86708 34.3563 6.98788 34.2634C7.94629 33.5267 10.7661 31.6574 12.2948 31.8594C13.1978 31.9782 14.8493 32.9644 16.3106 33.8396C18.1087 34.9129 19.8077 35.9228 20.8968 35.9228C22.8017 35.9228 33.7562 28.299 35.9463 26.7703L35.9978 26.7267C36.4216 26.4093 36.7045 25.9387 36.7859 25.4155C36.8673 24.8922 36.7408 24.3579 36.4334 23.9267Z" fill="white"/>
<path d="M16.1007 13.3723C16.929 13.3731 17.7389 13.1281 18.4279 12.6684C19.1169 12.2088 19.6541 11.555 19.9714 10.7899C20.2888 10.0249 20.372 9.18284 20.2106 8.37044C20.0492 7.55804 19.6504 6.81177 19.0648 6.22609C18.4791 5.64041 17.7328 5.24164 16.9204 5.08024C16.108 4.91885 15.266 5.00208 14.5009 5.31941C13.7358 5.63674 13.0821 6.1739 12.6224 6.86292C12.1627 7.55193 11.9178 8.36182 11.9186 9.1901C11.9207 10.2986 12.362 11.3612 13.1458 12.145C13.9297 12.9289 14.9922 13.3702 16.1007 13.3723ZM16.1007 6.15248C16.7008 6.15248 17.2873 6.3304 17.7862 6.66374C18.285 6.99708 18.6739 7.47088 18.9035 8.02521C19.1331 8.57954 19.1932 9.1895 19.0761 9.77798C18.9591 10.3664 18.6701 10.907 18.2459 11.3313C17.8216 11.7555 17.2811 12.0445 16.6926 12.1615C16.1041 12.2786 15.4941 12.2185 14.9398 11.9889C14.3855 11.7593 13.9117 11.3704 13.5784 10.8716C13.245 10.3727 13.0671 9.78614 13.0671 9.18614C13.0681 8.38188 13.3881 7.61087 13.9568 7.04217C14.5255 6.47348 15.2965 6.15352 16.1007 6.15248Z" fill="white"/>
<path d="M26.4493 12.4059C27.0853 12.4059 27.707 12.2173 28.2359 11.864C28.7647 11.5106 29.1769 11.0084 29.4203 10.4207C29.6637 9.83313 29.7274 9.18653 29.6033 8.56272C29.4792 7.93891 29.173 7.3659 28.7232 6.91616C28.2735 6.46641 27.7005 6.16013 27.0766 6.03605C26.4528 5.91196 25.8062 5.97565 25.2186 6.21905C24.631 6.46245 24.1288 6.87463 23.7754 7.40347C23.422 7.93232 23.2334 8.55407 23.2334 9.1901C23.2345 10.0427 23.5736 10.86 24.1765 11.4629C24.7793 12.0657 25.5967 12.4049 26.4493 12.4059ZM26.4493 7.12673C26.8572 7.12752 27.2557 7.2492 27.5945 7.4764C27.9333 7.7036 28.1972 8.02612 28.3527 8.40322C28.5083 8.78032 28.5486 9.19507 28.4685 9.59506C28.3885 9.99506 28.1917 10.3623 27.9029 10.6505C27.6142 10.9387 27.2465 11.1348 26.8464 11.2141C26.4462 11.2934 26.0316 11.2523 25.6548 11.096C25.278 10.9397 24.956 10.6753 24.7294 10.336C24.5029 9.9968 24.3819 9.59803 24.3819 9.1901C24.3819 8.64181 24.5997 8.11598 24.9874 7.72828C25.3751 7.34058 25.901 7.12277 26.4493 7.12277V7.12673Z" fill="white"/>
<path d="M16.9364 18.1446C16.9364 18.9725 17.1819 19.7818 17.6419 20.4702C18.1019 21.1587 18.7556 21.6952 19.5206 22.012C20.2855 22.3289 21.1272 22.4118 21.9392 22.2503C22.7512 22.0887 23.4971 21.69 24.0826 21.1046C24.668 20.5192 25.0667 19.7733 25.2282 18.9612C25.3898 18.1492 25.3069 17.3075 24.99 16.5426C24.6732 15.7777 24.1366 15.1239 23.4482 14.6639C22.7598 14.2039 21.9505 13.9584 21.1225 13.9584C20.0126 13.9595 18.9485 14.4008 18.1636 15.1857C17.3788 15.9705 16.9374 17.0346 16.9364 18.1446ZM21.1225 15.1109C21.7225 15.1109 22.3091 15.2888 22.8079 15.6222C23.3068 15.9555 23.6957 16.4293 23.9253 16.9836C24.1549 17.538 24.215 18.1479 24.0979 18.7364C23.9808 19.3249 23.6919 19.8654 23.2677 20.2897C22.8434 20.7139 22.3028 21.0029 21.7144 21.1199C21.1259 21.237 20.5159 21.1769 19.9616 20.9473C19.4073 20.7177 18.9335 20.3289 18.6001 19.83C18.2668 19.3311 18.0889 18.7446 18.0889 18.1446C18.0899 17.3403 18.4099 16.5693 18.9786 16.0006C19.5473 15.4319 20.3183 15.1119 21.1225 15.1109Z" fill="white"/>
</svg>
