<svg width="40" height="40" viewBox="0 0 40 40" fill="none" xmlns="http://www.w3.org/2000/svg">
<path d="M33.0505 7.64704C33.0088 7.63275 32.9651 7.62124 32.9195 7.61687C28.2124 7.146 24.4327 6.10382 20.1421 2.36863C19.9015 2.1598 19.5374 2.18481 19.3282 2.42501C19.3163 2.43851 19.3127 2.45598 19.3024 2.47027C15.0463 6.14749 11.2845 7.18173 6.60762 7.64903C6.59651 7.65022 6.58658 7.65379 6.57586 7.65538C6.5576 7.65816 6.53973 7.66173 6.52226 7.6661C6.50281 7.67126 6.48415 7.67682 6.46549 7.68357C6.44842 7.68992 6.43214 7.69667 6.41586 7.70461C6.39839 7.71295 6.38132 7.72208 6.36504 7.7324C6.34956 7.74193 6.33487 7.75186 6.32058 7.76258C6.30549 7.77369 6.29159 7.7856 6.2777 7.79791C6.2638 7.81062 6.2507 7.82372 6.238 7.83801C6.22648 7.85111 6.21537 7.86421 6.20465 7.87811C6.19274 7.89399 6.18162 7.91067 6.1713 7.92774C6.16256 7.94203 6.15502 7.95632 6.14747 7.97141C6.13834 7.99007 6.1304 8.00873 6.12365 8.02818C6.11809 8.04406 6.11293 8.05995 6.10896 8.07622C6.1038 8.09647 6.09943 8.11672 6.09626 8.13776C6.09388 8.15483 6.09189 8.17191 6.0911 8.18938C6.0903 8.20089 6.08752 8.21161 6.08752 8.22312V23.0543C6.08752 23.1055 6.09427 23.1559 6.10777 23.2052C8.68802 32.7198 19.0972 37.2415 19.539 37.4289C19.6113 37.4594 19.6879 37.4749 19.7645 37.4749C19.8404 37.4749 19.9166 37.4598 19.9881 37.4301C20.4347 37.2419 30.9638 32.721 33.5436 23.2052C33.5519 23.175 33.5575 23.1444 33.5607 23.113L33.6111 22.6192C33.6131 22.5997 33.6143 22.5798 33.6143 22.5608V8.22272C33.6143 7.90868 33.363 7.65419 33.0505 7.64704ZM32.4176 22.9487C30.1677 31.1456 21.2971 35.5585 19.7657 36.2656C18.2479 35.5577 9.50668 31.1635 7.24127 22.9769V8.74005C11.805 8.23543 15.5696 7.12377 19.7824 3.5728C24.0341 7.14243 27.8316 8.23186 32.4605 8.72734V22.531L32.4176 22.9487Z" fill="white"/>
<path d="M27.3789 14.0183C27.1185 13.819 26.7445 13.8683 26.544 14.1295L18.623 24.4811L13.3652 18.0179C13.1576 17.7626 12.7824 17.7241 12.5275 17.9318C12.2722 18.1394 12.2337 18.5146 12.4413 18.7695L18.1755 25.8178C18.2887 25.9572 18.4582 26.0378 18.6377 26.0378C18.6404 26.0378 18.6436 26.0378 18.6464 26.0378C18.8286 26.035 18.9997 25.9489 19.1105 25.8039L27.4905 14.8533C27.6898 14.5924 27.6401 14.2184 27.3789 14.0183Z" fill="white"/>
</svg>
