<svg width="40" height="40" viewBox="0 0 40 40" fill="none" xmlns="http://www.w3.org/2000/svg">
<path d="M22.5499 6.57357V4.82058H24.1833C24.5021 4.82058 24.7809 4.5417 24.7809 4.22297V1.35445C24.7809 1.03572 24.5021 0.756836 24.1833 0.756836H17.2112C16.8925 0.756836 16.6136 1.03572 16.6136 1.35445V4.22297C16.6136 4.5417 16.8925 4.82058 17.2112 4.82058H18.8447V6.57357C14.9801 7.01182 11.5538 8.80464 8.9642 11.4341L8.28691 10.7568L9.40245 9.6413C9.64149 9.40225 9.64149 9.04369 9.40245 8.80464L7.09169 6.49389C6.85265 6.25484 6.49408 6.25484 6.25504 6.49389L3.10763 9.56162C2.86858 9.80066 2.86858 10.1592 3.10763 10.3983L5.41838 12.709C5.53791 12.8285 5.69727 12.8684 5.85663 12.8684C6.01599 12.8684 6.17536 12.8285 6.29488 12.709L7.45026 11.5536L8.20723 12.3106C5.81679 15.1393 4.38253 18.8046 4.38253 22.7887C4.38253 31.7927 11.7132 39.1234 20.7172 39.1234C29.7212 39.1234 37.0518 31.7927 37.0518 22.7887C37.012 14.4222 30.6773 7.4899 22.5499 6.57357ZM5.85663 11.474L4.38253 9.96002L6.6136 7.72895L8.08771 9.20305L7.21121 10.0795C7.09169 10.1991 6.93233 10.3584 6.77297 10.5178L5.85663 11.474ZM19.4423 3.62536H17.8088V1.95205H23.5857V3.62536H21.9522C21.6335 3.62536 21.3546 3.90425 21.3546 4.22297V6.49389C21.1554 6.49389 20.9164 6.49389 20.7172 6.49389C20.518 6.49389 20.2789 6.49389 20.0797 6.49389V4.22297C20.0399 3.86441 19.761 3.62536 19.4423 3.62536ZM20.6773 37.9281C12.3507 37.9281 5.53791 31.1552 5.53791 22.7887C5.53791 14.4222 12.3108 7.64927 20.6773 7.64927C20.9961 7.64927 21.3148 7.64927 21.6335 7.68911C21.7929 7.68911 21.9522 7.72895 22.1116 7.72895C29.8009 8.44608 35.8168 14.9401 35.8168 22.7887C35.8168 31.1552 29.0439 37.9281 20.6773 37.9281Z" fill="white"/>
<path d="M29.283 12.9878C29.2431 12.948 29.2033 12.9082 29.1634 12.8683C26.8925 10.9161 23.9443 9.76074 20.7172 9.76074C13.5061 9.76074 7.68933 15.6173 7.68933 22.7886C7.68933 29.9599 13.5061 35.8564 20.6774 35.8564C27.8487 35.8564 33.7053 29.9998 33.7053 22.8285C33.7451 18.8842 31.9921 15.3783 29.283 12.9878ZM20.6774 34.6611C14.1435 34.6611 8.84471 29.3623 8.84471 22.8285C8.84471 16.2946 14.1435 10.9958 20.6774 10.9958C23.4264 10.9958 25.9363 11.952 27.9284 13.5058L21.4742 20.9161C21.2351 20.8364 20.9563 20.7568 20.7172 20.7568C19.6017 20.7568 18.6853 21.6731 18.6853 22.7886C18.6853 23.9042 19.6017 24.8205 20.7172 24.8205C21.8328 24.8205 22.7093 23.9042 22.7093 22.7886C22.7093 22.3902 22.5897 21.9918 22.3905 21.6731L28.8846 14.2229C31.1555 16.3743 32.5499 19.4022 32.5499 22.7886C32.5499 29.3225 27.2112 34.6611 20.6774 34.6611ZM21.514 22.7886C21.514 23.2667 21.1555 23.6253 20.6774 23.6253C20.1993 23.6253 19.8407 23.2667 19.8407 22.7886C19.8407 22.3504 20.1993 21.952 20.6774 21.952C21.1555 21.952 21.514 22.3504 21.514 22.7886Z" fill="white"/>
</svg>
