<svg width="40" height="40" viewBox="0 0 40 40" fill="none" xmlns="http://www.w3.org/2000/svg">
<path d="M30.0086 3.02893C26.7343 3.38975 24.2249 5.51709 23.5398 8.50137C23.2689 9.659 23.4362 11.4255 23.8983 12.4478L24.0496 12.7861L22.8148 14.1918L21.58 15.605L21.4047 15.2367C21.1498 14.733 20.7435 14.3722 20.0265 14.0339C18.8076 13.4551 15.0235 11.7863 14.6332 11.6585C14.0436 11.4556 12.7212 11.4255 11.8847 11.5834C7.50309 12.4253 4.14917 15.6125 3.18522 19.8371C2.93826 20.9346 2.93826 22.9041 3.18522 24.0016C3.77475 26.58 5.14499 28.6697 7.32783 30.3084C7.75006 30.6317 8.11652 30.9023 8.12448 30.9098C8.14042 30.9173 7.68632 31.4661 7.11273 32.12C5.95758 33.428 5.70265 33.8339 5.60705 34.5255C5.40789 35.9086 6.10895 37.1565 7.39953 37.7203C8.39535 38.1638 9.6222 38.0736 10.5543 37.4948C10.7295 37.382 11.4147 36.6829 12.0679 35.9387C12.8725 35.0292 13.3027 34.5932 13.3904 34.6157C13.4621 34.6307 13.8445 34.6458 14.2348 34.6533C14.912 34.6608 14.9837 34.6458 15.4537 34.4052C15.9795 34.1346 16.2743 33.8414 16.5929 33.2702C16.7523 32.9845 16.7841 32.8191 16.7841 32.2403V31.5412H17.3816C18.3854 31.5412 19.206 31.0601 19.7078 30.1731C19.8592 29.9025 19.8911 29.7371 19.8911 29.1358V28.4216H20.4886C21.5402 28.4216 22.4165 27.8879 22.8546 26.9784C23.0538 26.5724 23.1255 25.8207 23.006 25.3321L22.9502 25.0991L23.4521 25.0465C23.731 25.0164 24.1054 24.9262 24.2886 24.851C24.7427 24.6631 25.3243 24.1444 25.5712 23.6859C25.7545 23.3551 25.7863 23.2198 25.7863 22.5959C25.7863 21.9269 25.7704 21.8367 25.5234 21.3781L25.2526 20.8895L28.957 16.6574L29.3633 16.71C30.1361 16.8228 31.8807 16.7702 32.4703 16.6273C35.0674 15.9809 36.9793 14.2219 37.7441 11.7939C38.1504 10.4859 38.0628 8.55399 37.5529 7.4565C37.4095 7.16333 37.3538 7.11071 37.1626 7.11071C36.9714 7.11071 36.6766 7.40388 34.9479 9.29818L32.9562 11.4857L32.2392 11.4405C31.8489 11.418 31.0681 11.3804 30.5105 11.3503C29.9449 11.3203 29.4908 11.2902 29.4908 11.2677C29.4908 11.2526 29.2916 10.5235 29.0446 9.65148C28.6623 8.32096 28.6065 8.04283 28.6861 7.91504C28.7419 7.83235 29.6262 6.84761 30.6539 5.72005C32.5738 3.60775 32.7252 3.38975 32.3747 3.20934C32.064 3.05148 30.7017 2.94624 30.0086 3.02893ZM31.1797 3.69795L31.4744 3.74306L29.6421 5.7426C28.5428 6.95285 27.8178 7.8098 27.8178 7.9C27.8258 8.17814 28.9092 11.8615 29.0048 11.9216C29.1004 11.9743 29.6979 12.0043 32.303 12.1171L33.3545 12.1622L35.147 10.1702C36.1349 9.07267 36.9634 8.17062 36.9953 8.17062C37.0829 8.1631 37.2343 8.91481 37.2741 9.60638C37.4573 12.3651 35.5374 14.9736 32.6774 15.838C29.0367 16.9431 25.141 14.8082 24.2727 11.2376C24.0895 10.4558 24.0974 9.20046 24.3045 8.44123C24.7825 6.7123 26.0253 5.20889 27.6505 4.41208C28.7897 3.85581 30.2635 3.55513 31.1797 3.69795ZM14.2826 12.2975C15.0474 12.523 19.9229 14.733 20.2735 15.0036C20.4328 15.1314 20.6479 15.3795 20.7515 15.5524C20.9188 15.8531 20.9267 15.9433 20.9108 17.2964C20.8949 19.1531 20.5842 24.8134 20.4886 25.1592C20.2814 25.8733 19.4928 26.4296 18.6802 26.4296C17.6525 26.4296 16.808 25.6328 16.8001 24.6631C16.8001 24.4526 16.8479 23.2198 16.9036 21.9118L17.0072 19.5364L16.8319 19.1907C16.6407 18.8148 16.2822 18.5592 15.8042 18.454C15.5812 18.4089 15.2864 18.4465 14.5535 18.6118C12.4025 19.108 10.7375 19.0854 8.78571 18.5367C8.14838 18.3563 7.90142 18.4089 7.90142 18.7246C7.90142 18.9802 8.12448 19.1005 9.05657 19.326C10.7933 19.7469 12.8247 19.7469 14.5535 19.326C15.5971 19.0629 15.7724 19.0704 16.0512 19.3636C16.2504 19.574 16.2663 19.6342 16.2663 20.2506V20.9121L15.9715 21.0098C14.904 21.3706 14.195 22.438 14.2986 23.528C14.3225 23.7836 14.3623 24.0392 14.3942 24.1068C14.434 24.2121 14.3623 24.2346 13.9162 24.2647C12.5698 24.3699 11.5501 25.3923 11.5342 26.6551C11.5262 26.8806 11.5501 27.1663 11.582 27.2941L11.6298 27.5196L11.088 27.5271C9.76559 27.5421 8.71401 28.4893 8.57061 29.7973C8.53874 30.0528 8.49891 30.2633 8.48298 30.2633C8.37941 30.2633 7.20833 29.3162 6.65864 28.79C5.27246 27.4519 4.34037 25.7831 3.91018 23.8512C3.66322 22.7688 3.66322 21.0699 3.91018 19.9875C4.5714 17.0257 6.56304 14.515 9.30353 13.1845C11.1836 12.2674 13.0637 11.9367 14.2826 12.2975ZM24.7347 13.9062C25.3482 14.7781 26.6706 15.808 27.6903 16.2064C27.9771 16.3191 28.1285 16.4244 28.1046 16.4845C28.0249 16.6724 24.6869 20.4235 24.6152 20.4009C24.5754 20.3859 23.8903 19.9048 23.0857 19.326L21.6198 18.2736L21.6597 17.4467C21.6836 16.9882 21.7234 16.5822 21.7553 16.5371C21.819 16.4169 24.3842 13.5002 24.424 13.5002C24.44 13.5002 24.5754 13.6806 24.7347 13.9062ZM23.4521 20.4836C24.3205 21.1075 24.6869 21.4157 24.8463 21.6713C25.5792 22.8515 24.679 24.3474 23.237 24.3474C22.7033 24.3474 22.4404 24.2497 21.7792 23.7686L21.349 23.4679L21.3968 22.7913C21.4207 22.4155 21.4605 21.6638 21.4844 21.1301C21.5083 20.5888 21.5481 19.9198 21.572 19.6417L21.6198 19.1305L21.9544 19.3861C22.1297 19.5214 22.8068 20.0175 23.4521 20.4836ZM16.1468 22.7613C16.1229 23.3551 16.091 24.0918 16.0831 24.415C16.0671 25.0389 16.0831 25.0389 15.6051 24.633C15.1111 24.2121 14.8881 23.4679 15.0793 22.844C15.151 22.5809 15.3023 22.3704 15.5971 22.0847C15.8281 21.8743 16.0592 21.6938 16.107 21.6938C16.1787 21.6938 16.1866 21.9795 16.1468 22.7613ZM22.0181 24.9713C22.289 25.3321 22.4085 25.8733 22.3049 26.3018C22.1297 27.0535 21.58 27.5647 20.7993 27.715C20.2735 27.8203 19.8831 27.7376 19.3414 27.3993L18.967 27.1663L19.4768 27.0009C20.6081 26.6401 21.2852 25.7756 21.2852 24.6781V24.3023L21.5481 24.4902C21.6836 24.5954 21.8986 24.8134 22.0181 24.9713ZM14.8084 25.0765C15.2386 25.2569 18.6005 27.7225 18.8475 28.0383C19.5644 28.9478 19.1582 30.3235 18.0428 30.767C17.6764 30.9098 16.9116 30.8948 16.585 30.7294C16.0831 30.4888 12.753 27.9932 12.5619 27.715C12.1157 27.0761 12.1317 26.2943 12.6097 25.6854C13.1275 25.0089 14.0516 24.7533 14.8084 25.0765ZM11.9644 28.369C12.3707 28.5645 15.4298 30.8271 15.6927 31.1353C16.3221 31.8494 16.2185 32.8793 15.4696 33.5182C14.8642 34.0294 14.0596 34.1572 13.4143 33.8414C13.1593 33.7137 10.2994 31.6389 9.90899 31.2856C9.0964 30.5715 9.0725 29.4665 9.86119 28.7298C10.4507 28.1736 11.2553 28.0307 11.9644 28.369ZM10.5941 32.7139C11.5899 33.443 12.4503 34.082 12.5061 34.1346C12.5858 34.2023 12.4025 34.4579 11.5262 35.4576C10.3551 36.7806 9.94882 37.1189 9.31947 37.2542C8.14838 37.5248 6.81 36.8257 6.42761 35.7583C6.25234 35.2547 6.29218 34.4128 6.51524 34.0068C6.65864 33.7512 8.67418 31.3909 8.75384 31.3909C8.76977 31.3909 9.5983 31.9847 10.5941 32.7139Z" fill="white"/>
<path d="M8.17228 33.4055C6.99323 33.9317 6.88967 35.4952 7.98905 36.1793C8.27585 36.3522 8.41128 36.3897 8.84944 36.3897C9.5027 36.3897 9.91696 36.2018 10.2516 35.7583C10.4427 35.5027 10.4905 35.3524 10.5144 34.9389C10.5463 34.315 10.3312 33.8715 9.82933 33.5332C9.39116 33.2476 8.66621 33.1875 8.17228 33.4055ZM9.2876 34.0594C9.60626 34.2023 9.81339 34.5255 9.81339 34.8788C9.81339 35.2096 9.43896 35.6455 9.0964 35.7132C8.53078 35.8335 7.95719 35.3975 7.95719 34.8563C7.95719 34.4954 8.08465 34.2774 8.40331 34.097C8.71401 33.9166 8.94504 33.9091 9.2876 34.0594Z" fill="white"/>
</svg>
