<svg width="40" height="40" viewBox="0 0 40 40" fill="none" xmlns="http://www.w3.org/2000/svg">
<path d="M34.7263 24.4876H15.3134V5.07504C15.3134 4.74509 15.0463 4.47803 14.7163 4.47803H5.07455C4.7446 4.47803 4.47754 4.74509 4.47754 5.07504V25.0846V34.7268C4.47754 35.0567 4.7446 35.3238 5.07455 35.3238H34.7263C35.0558 35.3238 35.3233 35.0567 35.3233 34.7268V25.0846C35.3233 24.7546 35.0558 24.4876 34.7263 24.4876ZM14.1193 5.67206V24.4876H5.67157V20.4979H8.56868C8.89863 20.4979 9.1657 20.2309 9.1657 19.9009C9.1657 19.571 8.89863 19.3039 8.56868 19.3039H5.67157V15.4352H10.9818C11.3118 15.4352 11.5788 15.1682 11.5788 14.8382C11.5788 14.5083 11.3118 14.2412 10.9818 14.2412H5.67157V10.3726H8.56868C8.89863 10.3726 9.1657 10.1055 9.1657 9.77554C9.1657 9.44559 8.89863 9.17852 8.56868 9.17852H5.67157V5.67206H14.1193ZM34.1293 34.1298H5.67157V25.6816H34.1293V34.1298Z" fill="white"/>
<path d="M29.9045 32.4314C31.2975 32.4314 32.4307 31.2979 32.4307 29.9048C32.4307 28.5118 31.2971 27.3787 29.9045 27.3787C28.5115 27.3787 27.3779 28.5118 27.3779 29.9048C27.3779 31.2979 28.5115 32.4314 29.9045 32.4314ZM29.9045 28.5727C30.6388 28.5727 31.2366 29.1701 31.2366 29.9048C31.2366 30.6396 30.6388 31.2374 29.9045 31.2374C29.1698 31.2374 28.572 30.6396 28.572 29.9048C28.572 29.1705 29.1698 28.5727 29.9045 28.5727Z" fill="white"/>
</svg>
