<svg width="150" height="130" viewBox="0 0 150 130" fill="none" xmlns="http://www.w3.org/2000/svg">
<rect x="0.5" y="0.5" width="149" height="129" rx="9.5" fill="white" stroke="#DDDDDD"/>
<path d="M71.2304 10.0989C64.1004 10.5559 57.0584 12.754 50.9847 16.3666C46.9135 18.804 42.3142 22.7212 39.3214 26.3338C34.7661 31.7962 31.2231 39.0867 29.8807 45.7896C27.482 57.759 29.8807 69.9678 36.5926 79.7828C44.2508 90.9905 55.9361 98.0198 69.4479 99.565C72.6388 99.9132 78.9986 99.7173 82.2335 99.1515C91.08 97.5846 99.2223 93.4932 105.648 87.3561C110.688 82.5248 113.944 77.8676 116.409 71.9047C118.742 66.2464 119.688 61.3498 119.71 55.0387C119.71 47.5959 118.412 41.9376 115.155 35.2347C111.656 28.0531 106.396 22.0901 99.6184 17.607C91.234 12.0358 81.4193 9.44604 71.2304 10.0989ZM72.9689 37.3239C73.7171 37.4763 74.3773 37.8245 74.9935 38.3685C75.8957 39.152 75.9397 39.2608 76.0277 40.6101C76.1158 41.8723 75.9617 42.634 74.7514 46.8124C73.9812 49.4239 73.1009 52.1007 72.7708 52.7536C70.8783 56.475 67.6874 59.0648 63.9903 59.8482C63.0221 60.0441 61.0195 60.1529 57.9166 60.1529H53.2953L51.7329 65.55L50.1925 70.9254L47.1776 70.9907C44.8229 71.0342 44.1628 70.9907 44.1628 70.773C44.1628 70.1854 53.4274 38.5209 53.6914 38.1944C53.8455 38.0203 54.2636 37.7157 54.6157 37.4763C55.2319 37.1063 55.9141 37.0845 63.5722 37.0845C68.6557 37.0845 72.2867 37.1716 72.9689 37.3239ZM103.734 37.5851C104.724 38.1074 105.208 39.1085 105.054 40.2401C104.922 41.1759 103.007 48.314 102.787 48.6405C102.589 48.9669 97.1977 48.8799 97.1977 48.5534C97.1977 48.2705 98.386 44.005 98.6501 43.3086C98.7822 42.9387 98.5841 42.9387 94.8651 43.004C91.146 43.0693 90.8599 43.091 89.6716 43.6568C88.0431 44.3968 86.5467 45.7896 85.8865 47.1824C85.4244 48.0964 81.3092 61.5675 79.9228 66.6817C79.7028 67.4651 79.3727 68.2268 79.1966 68.3574C78.4044 68.9885 75.5876 68.4444 74.3553 67.3998L73.6511 66.7905L76.0718 58.5207C79.3727 47.2694 79.5267 46.7907 80.473 44.9191C82.0794 41.7417 84.3021 39.5872 87.2289 38.3903C89.8256 37.3239 91.5861 37.1063 97.6378 37.1498C102.325 37.1934 103.117 37.2369 103.734 37.5851ZM98.7602 54.6034C99.4644 54.9734 100.279 56.105 100.279 56.7144C100.279 57.5849 97.1317 68.1615 96.4715 69.489C95.5032 71.4694 92.7745 74.1898 90.8159 75.1256C88.0871 76.4313 86.5027 76.6925 80.9351 76.6925C77.2381 76.6925 75.6096 76.6054 74.6413 76.366C72.5508 75.8437 69.5359 74.2333 67.8194 72.7099C66.455 71.5347 58.9289 63.2649 58.7309 62.7426C58.6869 62.6338 60.2713 62.5468 62.2519 62.5468H65.8609L68.3476 65.2889C71.0323 68.2268 73.0569 69.8808 74.9714 70.6425C76.0938 71.0995 76.5339 71.143 81.0232 71.143C85.5564 71.143 85.9525 71.0995 87.1409 70.6207C90.1557 69.4455 91.234 68.0092 92.5324 63.5696C93.0385 61.8286 93.4567 60.2835 93.4567 60.1529C93.4567 60.0223 92.4444 59.9353 90.5959 59.9353C89.0334 59.9353 87.735 59.87 87.735 59.8047C87.735 59.7394 88.1091 58.4554 88.5493 56.9756L89.3415 54.277H93.7207C97.2417 54.277 98.232 54.3423 98.7602 54.6034Z" fill="#E41A30"/>
<path d="M58.1366 43.2219C58.0706 43.3743 57.3444 45.9205 56.5301 48.8802L55.0117 54.2773H58.2686C60.8874 54.2773 61.7676 54.1903 62.934 53.8421C64.6944 53.298 66.3669 52.0576 67.1811 50.6648C67.7313 49.7507 69.6899 43.9183 69.6899 43.2437C69.6899 42.8302 58.2906 42.8302 58.1366 43.2219Z" fill="#E41A30"/>
<path d="M81.3752 108.924C80.3629 109.229 78.6465 110.97 78.3164 112.079C77.7662 113.951 78.1183 115.67 79.3066 116.976C80.451 118.217 81.5073 118.695 83.1137 118.695C85.0943 118.695 86.7447 117.716 87.691 115.975C88.2412 114.974 88.1751 112.515 87.581 111.383C86.3926 109.163 83.95 108.206 81.3752 108.924ZM84.5661 110.774C86.7227 111.797 86.8988 115.279 84.8302 116.519C83.3778 117.39 81.2652 116.911 80.3189 115.518C79.7908 114.713 79.8128 112.906 80.3629 111.971C81.1992 110.578 83.0257 110.056 84.5661 110.774Z" fill="#E41A30"/>
<path d="M16.875 113.689V118.477H17.7552H18.6355V116.409V114.342H19.6258C22.0245 114.342 23.2568 112.427 22.2445 110.316C21.7604 109.271 20.7921 108.901 18.6575 108.901H16.875V113.689ZM20.418 110.86C20.8801 111.121 20.9682 111.948 20.572 112.34C20.418 112.492 19.9339 112.601 19.4717 112.601H18.6355V111.621C18.6355 110.664 18.6575 110.642 19.3177 110.642C19.6918 110.642 20.1759 110.751 20.418 110.86Z" fill="#E41A30"/>
<path d="M24.5771 113.689V118.477H25.4574H26.3376V114.559V110.642H27.768H29.1985V109.772V108.901H26.8878H24.5771V113.689Z" fill="#E41A30"/>
<path d="M38.111 112.862C36.6586 116.605 36.5266 116.844 35.9764 116.91C35.3602 116.975 35.3602 116.997 35.3602 118.498V120H36.2405C37.0987 120 37.1207 119.978 37.1207 119.238V118.477H40.5317H43.9426V119.238C43.9426 119.978 43.9647 120 44.8229 120H45.7031V118.477C45.7031 117.04 45.6811 116.953 45.219 116.953C44.7789 116.953 44.5368 116.474 43.1504 112.971L41.588 109.01L40.6197 108.945L39.6514 108.879L38.111 112.862ZM41.72 114.102C42.2262 115.365 42.6223 116.518 42.6223 116.67C42.6223 116.888 42.1381 116.953 40.6857 116.953C39.6074 116.953 38.6832 116.91 38.6171 116.844C38.5511 116.779 38.9472 115.56 39.5194 114.124C40.0696 112.71 40.5977 111.621 40.6857 111.687C40.7738 111.774 41.2359 112.862 41.72 114.102Z" fill="#E41A30"/>
<path d="M47.0234 113.689V118.477H49.6642H52.3049V117.606V116.736H50.5444H48.7839V115.43V114.124H50.5444H52.3049V113.254V112.383H50.5444H48.7839V111.513V110.642H50.5444H52.3049V109.772V108.901H49.6642H47.0234V113.689Z" fill="#E41A30"/>
<path d="M54.0656 113.689V118.477H56.1341C57.8946 118.477 58.2907 118.411 58.9289 117.976C60.4253 116.975 60.5354 114.69 59.127 113.667C58.5108 113.21 58.5108 113.188 58.9289 112.753C59.4571 112.187 59.4791 110.729 58.9949 110.011C58.4668 109.271 57.3445 108.901 55.606 108.901H54.0656V113.689ZM57.4545 111.099C58.0047 111.882 57.5205 112.601 56.4422 112.601C55.8701 112.601 55.826 112.535 55.826 111.621C55.826 110.686 55.8481 110.642 56.4642 110.642C56.8823 110.642 57.2344 110.816 57.4545 111.099ZM58.0927 115.038C58.5108 115.582 58.5108 115.647 58.1587 116.17C57.8506 116.649 57.6306 116.736 56.8163 116.736H55.826V115.517V114.32L56.7503 114.385C57.4325 114.429 57.7626 114.603 58.0927 115.038Z" fill="#E41A30"/>
<path d="M61.9877 113.689V118.477H64.6284H67.2692V117.606V116.736H65.5087H63.7482V115.43V114.124H65.5087H67.2692V113.254V112.383H65.5087H63.7482V111.513V110.642H65.5087H67.2692V109.772V108.901H64.6284H61.9877V113.689Z" fill="#E41A30"/>
<path d="M69.866 113.689L67.9955 118.498L68.9638 118.433L69.954 118.367L71.1424 115.321C71.8026 113.645 72.4187 112.078 72.5068 111.86C72.6388 111.534 73.0129 112.252 74.0252 114.907L75.3456 118.367L76.2698 118.433C76.754 118.476 77.1721 118.411 77.1721 118.302C77.1721 118.106 76.4679 116.256 74.4213 111.012L73.5851 108.901H72.6828H71.7585L69.866 113.689Z" fill="#E41A30"/>
<path d="M89.9357 113.689V118.477H90.8159H91.6962V114.559V110.642H93.4567H95.2172V114.559V118.477H96.0974H96.9777V113.689V108.901H93.4567H89.9357V113.689Z" fill="#E41A30"/>
<path d="M99.4422 113.189C99.0241 115.561 98.65 117.715 98.584 117.977C98.474 118.434 98.54 118.477 99.3542 118.477C100.366 118.477 100.256 118.717 100.851 115.147C101.071 113.863 101.313 112.819 101.379 112.819C101.445 112.819 101.929 114.081 102.435 115.648L103.381 118.477H104.24H105.076L106 115.692C106.528 114.168 107.012 112.862 107.078 112.754C107.166 112.667 107.408 113.711 107.629 115.039C108.201 118.695 108.113 118.477 109.125 118.477C109.939 118.477 110.005 118.434 109.895 117.977C109.829 117.715 109.455 115.561 109.059 113.189L108.355 108.902H107.452H106.528L105.45 112.166C104.856 113.95 104.306 115.43 104.24 115.43C104.174 115.43 103.645 113.95 103.029 112.166L101.929 108.902H101.049H100.168L99.4422 113.189Z" fill="#E41A30"/>
<path d="M111.502 113.689V118.477H114.142H116.783V117.606V116.736H115.023H113.262V115.43V114.124H115.023H116.783V113.254V112.383H115.023H113.262V111.513V110.642H115.023H116.783V109.772V108.901H114.142H111.502V113.689Z" fill="#E41A30"/>
<path d="M118.544 113.689V118.476H119.424H120.304V116.409V114.341H121.955H123.583L123.649 116.344L123.715 118.367L124.661 118.433L125.586 118.498V113.71V108.901H124.595H123.605V110.751V112.6H121.955H120.304V110.751V108.901H119.424H118.544V113.689Z" fill="#E41A30"/>
<path d="M126.906 109.772V110.642H127.786H128.667V114.559V118.477H129.547H130.427V114.559V110.642H131.307H132.187V109.772V108.901H129.547H126.906V109.772Z" fill="#E41A30"/>
<path d="M30.8269 114.429C30.7609 114.603 30.7389 114.973 30.7829 115.256C30.8489 115.713 30.959 115.756 32.5654 115.821L34.2599 115.887V114.994V114.124H32.6094C31.3771 114.124 30.9149 114.211 30.8269 114.429Z" fill="#E41A30"/>
</svg>
