<svg width="110" height="110" viewBox="0 0 110 110" fill="none" xmlns="http://www.w3.org/2000/svg">
<path d="M51.8511 0.0989227C45.0496 0.555931 38.332 2.75396 32.5381 6.36655C28.6545 8.80396 24.2671 12.7212 21.4122 16.3338C17.0667 21.7962 13.687 29.0867 12.4064 35.7896C10.1183 47.759 12.4064 59.9678 18.8091 69.7828C26.1145 80.9905 37.2614 88.0198 50.1507 89.565C53.1946 89.9132 59.2614 89.7173 62.3473 89.1515C70.7862 87.5846 78.5534 83.4932 84.6832 77.3561C89.4904 72.5248 92.5973 67.8676 94.9484 61.9047C97.1736 56.2464 98.0763 51.3498 98.0973 45.0387C98.0973 37.5959 96.8588 31.9376 93.7519 25.2347C90.4141 18.0531 85.3969 12.0901 78.9313 7.60702C70.9332 2.0358 61.5706 -0.553955 51.8511 0.0989227ZM53.5095 27.3239C54.2232 27.4763 54.853 27.8245 55.4408 28.3685C56.3015 29.152 56.3435 29.2608 56.4274 30.6101C56.5114 31.8723 56.3645 32.634 55.2099 36.8124C54.4752 39.4239 53.6355 42.1007 53.3206 42.7536C51.5152 46.475 48.4713 49.0648 44.9446 49.8482C44.021 50.0441 42.1106 50.1529 39.1507 50.1529H34.7423L33.2519 55.55L31.7824 60.9254L28.9064 60.9907C26.6603 61.0342 26.0305 60.9907 26.0305 60.773C26.0305 60.1854 34.8683 28.5209 35.1202 28.1944C35.2671 28.0203 35.666 27.7157 36.0019 27.4763C36.5897 27.1063 37.2404 27.0845 44.5458 27.0845C49.395 27.0845 52.8587 27.1716 53.5095 27.3239ZM82.8568 27.5851C83.8015 28.1074 84.2633 29.1085 84.1164 30.2401C83.9904 31.1759 82.1641 38.314 81.9542 38.6405C81.7652 38.9669 76.6221 38.8799 76.6221 38.5534C76.6221 38.2705 77.7557 34.005 78.0076 33.3086C78.1336 32.9387 77.9446 32.9387 74.3969 33.004C70.8492 33.0693 70.5763 33.091 69.4427 33.6568C67.8893 34.3968 66.4618 35.7896 65.832 37.1824C65.3912 38.0964 61.4656 51.5675 60.1431 56.6817C59.9332 57.4651 59.6183 58.2268 59.4503 58.3574C58.6946 58.9885 56.0076 58.4444 54.832 57.3998L54.1603 56.7905L56.4694 48.5207C59.6183 37.2694 59.7652 36.7907 60.6679 34.9191C62.2003 31.7417 64.3206 29.5872 67.1126 28.3903C69.5897 27.3239 71.2691 27.1063 77.042 27.1498C81.5133 27.1934 82.2691 27.2369 82.8568 27.5851ZM78.1126 44.6034C78.7843 44.9734 79.561 46.105 79.561 46.7144C79.561 47.5849 76.5591 58.1615 75.9294 59.489C75.0057 61.4694 72.4026 64.1898 70.5343 65.1256C67.9313 66.4313 66.4198 66.6925 61.1087 66.6925C57.582 66.6925 56.0286 66.6054 55.1049 66.366C53.1106 65.8437 50.2347 64.2333 48.5973 62.7099C47.2958 61.5347 40.1164 53.2649 39.9274 52.7426C39.8855 52.6338 41.3969 52.5468 43.2862 52.5468H46.729L49.1011 55.2889C51.6622 58.2268 53.5935 59.8808 55.4198 60.6425C56.4904 61.0995 56.9103 61.143 61.1927 61.143C65.5171 61.143 65.895 61.0995 67.0286 60.6207C69.9045 59.4455 70.9332 58.0092 72.1717 53.5696C72.6545 51.8286 73.0534 50.2835 73.0534 50.1529C73.0534 50.0223 72.0878 49.9353 70.3244 49.9353C68.8339 49.9353 67.5954 49.87 67.5954 49.8047C67.5954 49.7394 67.9523 48.4554 68.3721 46.9756L69.1278 44.277H73.3053C76.6641 44.277 77.6087 44.3423 78.1126 44.6034Z" fill="#E41A30"/>
<path d="M39.3598 33.2219C39.2968 33.3743 38.6041 35.9205 37.8274 38.8802L36.3789 44.2773H39.4858C41.9839 44.2773 42.8236 44.1903 43.9362 43.8421C45.6156 43.298 47.211 42.0576 47.9877 40.6648C48.5125 39.7507 50.3808 33.9183 50.3808 33.2437C50.3808 32.8302 39.5068 32.8302 39.3598 33.2219Z" fill="#E41A30"/>
<path d="M61.5289 98.9239C60.5633 99.2286 58.9258 100.97 58.611 102.079C58.0862 103.951 58.422 105.67 59.5556 106.976C60.6472 108.217 61.6549 108.695 63.1873 108.695C65.0766 108.695 66.651 107.716 67.5537 105.975C68.0785 104.974 68.0155 102.515 67.4487 101.383C66.3152 99.1633 63.985 98.2057 61.5289 98.9239ZM64.5728 100.774C66.63 101.797 66.798 105.279 64.8247 106.519C63.4392 107.39 61.4239 106.911 60.5213 105.518C60.0174 104.713 60.0384 102.906 60.5633 101.971C61.361 100.578 63.1033 100.056 64.5728 100.774Z" fill="#E41A30"/>
<path d="M0 103.689V108.477H0.839695H1.67939V106.409V104.342H2.62405C4.91222 104.342 6.08779 102.427 5.12214 100.316C4.66031 99.271 3.73664 98.901 1.70038 98.901H0V103.689ZM3.37977 100.86C3.82061 101.121 3.90458 101.948 3.52672 102.34C3.37977 102.492 2.91794 102.601 2.4771 102.601H1.67939V101.621C1.67939 100.664 1.70038 100.642 2.33015 100.642C2.68702 100.642 3.14886 100.751 3.37977 100.86Z" fill="#E41A30"/>
<path d="M7.34766 103.689V108.477H8.18735H9.02705V104.559V100.642H10.3916H11.7561V99.7715V98.901H9.55186H7.34766V103.689Z" fill="#E41A30"/>
<path d="M20.2569 102.862C18.8714 106.605 18.7454 106.844 18.2206 106.91C17.6328 106.975 17.6328 106.997 17.6328 108.498V110H18.4725C19.2912 110 19.3122 109.978 19.3122 109.238V108.477H22.566H25.8198V109.238C25.8198 109.978 25.8408 110 26.6595 110H27.4992V108.477C27.4992 107.04 27.4782 106.953 27.0374 106.953C26.6175 106.953 26.3866 106.474 25.0641 102.971L23.5737 99.0099L22.65 98.9446L21.7263 98.8793L20.2569 102.862ZM23.6996 104.102C24.1824 105.365 24.5603 106.518 24.5603 106.67C24.5603 106.888 24.0985 106.953 22.713 106.953C21.6843 106.953 20.8027 106.91 20.7397 106.844C20.6767 106.779 21.0546 105.56 21.6004 104.124C22.1252 102.71 22.629 101.621 22.713 101.687C22.7969 101.774 23.2378 102.862 23.6996 104.102Z" fill="#E41A30"/>
<path d="M28.7598 103.689V108.477H31.2789H33.7979V107.606V106.736H32.1185H30.4392V105.43V104.124H32.1185H33.7979V103.254V102.383H32.1185H30.4392V101.513V100.642H32.1185H33.7979V99.7715V98.901H31.2789H28.7598V103.689Z" fill="#E41A30"/>
<path d="M35.4785 103.689V108.477H37.4518C39.1312 108.477 39.5091 108.411 40.1178 107.976C41.5453 106.975 41.6503 104.69 40.3068 103.667C39.719 103.21 39.719 103.188 40.1178 102.753C40.6216 102.187 40.6426 100.729 40.1808 100.011C39.677 99.271 38.6064 98.901 36.948 98.901H35.4785V103.689ZM38.7113 101.099C39.2362 101.882 38.7743 102.601 37.7457 102.601C37.1999 102.601 37.1579 102.535 37.1579 101.621C37.1579 100.686 37.1789 100.642 37.7667 100.642C38.1655 100.642 38.5014 100.816 38.7113 101.099ZM39.3201 105.038C39.719 105.582 39.719 105.647 39.3831 106.17C39.0892 106.649 38.8793 106.736 38.1026 106.736H37.1579V105.517V104.32L38.0396 104.385C38.6903 104.429 39.0052 104.603 39.3201 105.038Z" fill="#E41A30"/>
<path d="M43.0352 103.689V108.477H45.5542H48.0733V107.606V106.736H46.3939H44.7145V105.43V104.124H46.3939H48.0733V103.254V102.383H46.3939H44.7145V101.513V100.642H46.3939H48.0733V99.7715V98.901H45.5542H43.0352V103.689Z" fill="#E41A30"/>
<path d="M50.55 103.689L48.7656 108.498L49.6893 108.433L50.6339 108.367L51.7675 105.321C52.3973 103.645 52.9851 102.078 53.0691 101.86C53.195 101.534 53.5519 102.252 54.5175 104.907L55.7771 108.367L56.6588 108.433C57.1206 108.476 57.5194 108.411 57.5194 108.302C57.5194 108.106 56.8477 106.256 54.8954 101.012L54.0977 98.9007H53.237H52.3553L50.55 103.689Z" fill="#E41A30"/>
<path d="M69.6953 103.689V108.477H70.535H71.3747V104.559V100.642H73.0541H74.7335V104.559V108.477H75.5732H76.4129V103.689V98.901H73.0541H69.6953V103.689Z" fill="#E41A30"/>
<path d="M78.7641 103.189C78.3652 105.561 78.0084 107.715 77.9454 107.977C77.8404 108.434 77.9034 108.477 78.6801 108.477C79.6458 108.477 79.5408 108.717 80.1076 105.147C80.3175 103.863 80.5484 102.819 80.6114 102.819C80.6744 102.819 81.1362 104.081 81.619 105.648L82.5217 108.477H83.3404H84.1381L85.0198 105.692C85.5236 104.168 85.9855 102.862 86.0484 102.754C86.1324 102.667 86.3633 103.711 86.5732 105.039C87.1191 108.695 87.0351 108.477 88.0007 108.477C88.7774 108.477 88.8404 108.434 88.7355 107.977C88.6725 107.715 88.3156 105.561 87.9378 103.189L87.266 98.9016H86.4053H85.5236L84.495 102.166C83.9282 103.95 83.4034 105.43 83.3404 105.43C83.2774 105.43 82.7736 103.95 82.1858 102.166L81.1362 98.9016H80.2965H79.4568L78.7641 103.189Z" fill="#E41A30"/>
<path d="M90.2676 103.689V108.477H92.7867H95.3057V107.606V106.736H93.6264H91.947V105.43V104.124H93.6264H95.3057V103.254V102.383H93.6264H91.947V101.513V100.642H93.6264H95.3057V99.7715V98.901H92.7867H90.2676V103.689Z" fill="#E41A30"/>
<path d="M96.9844 103.689V108.476H97.8241H98.6638V106.409V104.341H100.238H101.792L101.855 106.344L101.918 108.367L102.82 108.433L103.702 108.498V103.71V98.9007H102.757H101.813V100.751V102.6H100.238H98.6638V100.751V98.9007H97.8241H96.9844V103.689Z" fill="#E41A30"/>
<path d="M104.963 99.7715V100.642H105.803H106.642V104.559V108.477H107.482H108.322V104.559V100.642H109.161H110.001V99.7715V98.901H107.482H104.963V99.7715Z" fill="#E41A30"/>
<path d="M13.308 104.429C13.245 104.603 13.224 104.973 13.266 105.256C13.329 105.713 13.4339 105.756 14.9664 105.821L16.5828 105.887V104.994V104.124H15.0084C13.8328 104.124 13.3919 104.211 13.308 104.429Z" fill="#E41A30"/>
</svg>
