<svg width="123" height="120" viewBox="0 0 123 120" fill="none" xmlns="http://www.w3.org/2000/svg">
<path d="M57.979 0.108078C50.3737 0.606644 42.8622 3.00449 36.3836 6.9455C32.041 9.60449 27.1351 13.8779 23.9428 17.8189C19.0838 23.7779 15.3046 31.7311 13.8727 39.0434C11.3141 52.1009 13.8727 65.4196 21.0321 76.1268C29.2008 88.3534 41.6651 96.0218 56.0777 97.7074C59.4813 98.0873 66.2651 97.8736 69.7157 97.2563C79.1519 95.547 87.8371 91.0837 94.6913 84.3887C100.067 79.1182 103.541 74.0376 106.17 67.5326C108.658 61.3599 109.667 56.0182 109.691 49.1333C109.691 41.0139 108.306 34.8412 104.832 27.529C101.099 19.6944 95.4893 13.1894 88.2596 8.29874C79.3162 2.22104 68.8472 -0.604149 57.979 0.108078ZM59.8334 29.8081C60.6315 29.9743 61.3357 30.3541 61.993 30.9477C62.9554 31.8023 63.0023 31.921 63.0962 33.393C63.1901 34.77 63.0258 35.6009 61.7348 40.1592C60.9132 43.0081 59.9743 45.9282 59.6222 46.6405C57.6035 50.7002 54.1998 53.5254 50.2563 54.38C49.2235 54.5937 47.0874 54.7124 43.7777 54.7124H38.8483L37.1817 60.6002L35.5386 66.4642L32.3227 66.5354C29.8111 66.5829 29.1069 66.5354 29.1069 66.298C29.1069 65.657 38.9891 31.1139 39.2708 30.7577C39.4351 30.5678 39.8811 30.2354 40.2567 29.9743C40.914 29.5707 41.6416 29.5469 49.8103 29.5469C55.2327 29.5469 59.1058 29.6419 59.8334 29.8081ZM92.6491 30.093C93.7054 30.6628 94.2218 31.7549 94.0575 32.9894C93.9166 34.0103 91.8745 41.7973 91.6397 42.1534C91.4285 42.5095 85.6775 42.4146 85.6775 42.0585C85.6775 41.7498 86.9451 37.0966 87.2267 36.3369C87.3676 35.9333 87.1563 35.9333 83.1893 36.0045C79.2224 36.0757 78.9172 36.0995 77.6496 36.7167C75.9126 37.5239 74.3164 39.0434 73.6122 40.5628C73.1193 41.5599 68.7298 56.2556 67.251 61.8347C67.0162 62.6894 66.6641 63.5203 66.4764 63.6628C65.6313 64.3513 62.6267 63.7577 61.3122 62.6182L60.5611 61.9534L63.1432 52.9318C66.6641 40.6577 66.8285 40.1354 67.8378 38.0937C69.5514 34.6275 71.9222 32.2772 75.0441 30.9714C77.814 29.8081 79.6918 29.5707 86.147 29.6182C91.1468 29.6656 91.9918 29.7131 92.6491 30.093ZM87.3441 48.6585C88.0953 49.0621 88.9638 50.2966 88.9638 50.9613C88.9638 51.911 85.6071 63.4491 84.9029 64.8973C83.8701 67.0577 80.9594 70.0254 78.8703 71.0462C75.9596 72.4707 74.2695 72.7556 68.3307 72.7556C64.3872 72.7556 62.6502 72.6606 61.6174 72.3995C59.3874 71.8297 56.1716 70.0729 54.3407 68.411C52.8853 67.129 44.8575 58.1074 44.6462 57.5376C44.5993 57.4189 46.2893 57.3239 48.4019 57.3239H52.2516L54.904 60.3153C57.7678 63.5203 59.9273 65.3247 61.9695 66.1556C63.1666 66.6542 63.6361 66.7016 68.4246 66.7016C73.2601 66.7016 73.6827 66.6542 74.9502 66.1318C78.1661 64.8498 79.3162 63.2829 80.7012 58.4398C81.2411 56.5405 81.687 54.8549 81.687 54.7124C81.687 54.57 80.6073 54.475 78.6355 54.475C76.9689 54.475 75.584 54.4038 75.584 54.3326C75.584 54.2613 75.983 52.8606 76.4525 51.2462L77.2975 48.3023H81.9687C85.7245 48.3023 86.7808 48.3736 87.3441 48.6585Z" fill="#E41A30"/>
<path d="M44.0124 36.2418C43.942 36.408 43.1674 39.1857 42.2989 42.4145L40.6792 48.3022H44.1532C46.9466 48.3022 47.8855 48.2073 49.1296 47.8274C51.0074 47.2339 52.7914 45.8807 53.6599 44.3612C54.2468 43.3641 56.3359 37.0015 56.3359 36.2656C56.3359 35.8145 44.1767 35.8145 44.0124 36.2418Z" fill="#E41A30"/>
<path d="M68.8002 107.916C67.7204 108.248 65.8895 110.148 65.5374 111.358C64.9505 113.4 65.3261 115.276 66.5937 116.7C67.8143 118.053 68.941 118.576 70.6545 118.576C72.7671 118.576 74.5276 117.507 75.537 115.608C76.1238 114.516 76.0534 111.833 75.4196 110.599C74.1521 108.177 71.5465 107.133 68.8002 107.916ZM72.2038 109.934C74.5042 111.05 74.6919 114.848 72.4855 116.202C70.9362 117.151 68.6828 116.629 67.6734 115.109C67.1101 114.231 67.1335 112.261 67.7204 111.24C68.6124 109.72 70.5606 109.151 72.2038 109.934Z" fill="#E41A30"/>
<path d="M0 113.115V118.338H0.938931H1.87786V116.082V113.827H2.93416C5.49275 113.827 6.80725 111.738 5.72748 109.435C5.21107 108.295 4.17824 107.892 1.90134 107.892H0V113.115ZM3.7792 110.029C4.27214 110.313 4.36603 111.216 3.94351 111.643C3.7792 111.809 3.26279 111.928 2.76985 111.928H1.87786V110.859C1.87786 109.815 1.90134 109.791 2.60553 109.791C3.00458 109.791 3.52099 109.91 3.7792 110.029Z" fill="#E41A30"/>
<path d="M8.21558 113.115V118.338H9.15451H10.0934V114.065V109.791H11.6192H13.145V108.841V107.892H10.6803H8.21558V113.115Z" fill="#E41A30"/>
<path d="M22.6517 112.213C21.1025 116.296 20.9616 116.558 20.3748 116.629C19.7175 116.7 19.7175 116.724 19.7175 118.362V120H20.6565C21.5719 120 21.5954 119.976 21.5954 119.169V118.338H25.2338H28.8721V119.169C28.8721 119.976 28.8956 120 29.811 120H30.75V118.338C30.75 116.771 30.7265 116.676 30.2336 116.676C29.7641 116.676 29.5059 116.154 28.0271 112.332L26.3605 108.011L25.3276 107.94L24.2948 107.868L22.6517 112.213ZM26.5013 113.566C27.0412 114.943 27.4637 116.201 27.4637 116.368C27.4637 116.605 26.9473 116.676 25.3981 116.676C24.2479 116.676 23.262 116.629 23.1916 116.558C23.1212 116.486 23.5437 115.157 24.154 113.59C24.7408 112.047 25.3042 110.86 25.3981 110.931C25.492 111.026 25.9849 112.213 26.5013 113.566Z" fill="#E41A30"/>
<path d="M32.1584 113.115V118.338H34.9752H37.792V117.388V116.439H35.9142H34.0363V115.014V113.59H35.9142H37.792V112.64V111.69H35.9142H34.0363V110.741V109.791H35.9142H37.792V108.841V107.892H34.9752H32.1584V113.115Z" fill="#E41A30"/>
<path d="M39.6698 113.115V118.338H41.8763C43.7542 118.338 44.1767 118.267 44.8574 117.792C46.4536 116.7 46.5709 114.207 45.0687 113.091C44.4114 112.593 44.4114 112.569 44.8574 112.094C45.4208 111.477 45.4442 109.886 44.9278 109.103C44.3645 108.295 43.1673 107.892 41.3129 107.892H39.6698V113.115ZM43.2847 110.29C43.8715 111.144 43.3551 111.928 42.2049 111.928C41.5946 111.928 41.5477 111.857 41.5477 110.859C41.5477 109.839 41.5711 109.791 42.2284 109.791C42.6744 109.791 43.05 109.981 43.2847 110.29ZM43.9654 114.587C44.4114 115.18 44.4114 115.252 44.0358 115.821C43.7072 116.344 43.4725 116.439 42.604 116.439H41.5477V115.109V113.803L42.5335 113.875C43.2612 113.922 43.6133 114.112 43.9654 114.587Z" fill="#E41A30"/>
<path d="M48.1202 113.115V118.338H50.937H53.7538V117.388V116.439H51.876H49.9981V115.014V113.59H51.876H53.7538V112.64V111.69H51.876H49.9981V110.741V109.791H51.876H53.7538V108.841V107.892H50.937H48.1202V113.115Z" fill="#E41A30"/>
<path d="M56.5237 113.115L54.5284 118.362L55.5613 118.291L56.6176 118.219L57.8851 114.896C58.5893 113.068 59.2466 111.358 59.3405 111.121C59.4813 110.765 59.8804 111.548 60.9601 114.445L62.3685 118.219L63.3544 118.291C63.8708 118.338 64.3168 118.267 64.3168 118.148C64.3168 117.934 63.5657 115.916 61.3826 110.195L60.4907 107.892H59.5283H58.5424L56.5237 113.115Z" fill="#E41A30"/>
<path d="M77.9313 113.115V118.338H78.8702H79.8091V114.065V109.791H81.687H83.5649V114.065V118.338H84.5038H85.4427V113.115V107.892H81.687H77.9313V113.115Z" fill="#E41A30"/>
<path d="M88.0718 112.569C87.6258 115.157 87.2267 117.507 87.1563 117.792C87.0389 118.291 87.1094 118.338 87.9779 118.338C89.0576 118.338 88.9403 118.599 89.5741 114.706C89.8088 113.305 90.067 112.165 90.1374 112.165C90.2078 112.165 90.7242 113.542 91.2641 115.252L92.2735 118.338H93.1889H94.0809L95.0668 115.299C95.6302 113.637 96.1466 112.213 96.217 112.094C96.3109 111.999 96.5691 113.139 96.8038 114.587C97.4141 118.576 97.3202 118.338 98.4 118.338C99.2685 118.338 99.3389 118.291 99.2216 117.792C99.1512 117.507 98.7521 115.157 98.3296 112.569L97.5784 107.892H96.616H95.6302L94.48 111.453C93.8462 113.4 93.2594 115.014 93.1889 115.014C93.1185 115.014 92.5552 113.4 91.8979 111.453L90.7242 107.892H89.7853H88.8464L88.0718 112.569Z" fill="#E41A30"/>
<path d="M100.935 113.115V118.338H103.752H106.569V117.388V116.439H104.691H102.813V115.014V113.59H104.691H106.569V112.64V111.69H104.691H102.813V110.741V109.791H104.691H106.569V108.841V107.892H103.752H100.935V113.115Z" fill="#E41A30"/>
<path d="M108.447 113.115V118.338H109.385H110.324V116.083V113.827H112.085H113.822L113.892 116.011L113.963 118.219L114.972 118.291L115.958 118.362V113.139V107.892H114.902H113.845V109.91V111.928H112.085H110.324V109.91V107.892H109.385H108.447V113.115Z" fill="#E41A30"/>
<path d="M117.366 108.841V109.791H118.305H119.244V114.065V118.338H120.183H121.122V114.065V109.791H122.061H123V108.841V107.892H120.183H117.366V108.841Z" fill="#E41A30"/>
<path d="M14.882 113.922C14.8116 114.112 14.7881 114.516 14.8351 114.824C14.9055 115.323 15.0229 115.37 16.7364 115.441L18.5439 115.513V114.539V113.59H16.7834C15.4689 113.59 14.9759 113.685 14.882 113.922Z" fill="#E41A30"/>
</svg>
