<svg width="40" height="40" viewBox="0 0 40 40" fill="none" xmlns="http://www.w3.org/2000/svg">
<path d="M10.1695 15.1279C10.394 15.1279 10.6093 15.0005 10.7108 14.7836C10.8505 14.4851 10.7211 14.1297 10.4222 13.99L4.14679 11.0578C3.84868 10.9189 3.49286 11.0479 3.35316 11.3464C3.21346 11.6449 3.34281 12.0003 3.64172 12.14L9.91714 15.0722C9.99873 15.11 10.0847 15.1279 10.1695 15.1279Z" fill="#171717"/>
<path d="M36.8726 27.1259C37.0971 27.1259 37.3124 26.9986 37.4139 26.7816C37.5536 26.4831 37.4242 26.1277 37.1253 25.988L30.8499 23.0559C30.5518 22.917 30.196 23.0459 30.0563 23.3444C29.9166 23.6429 30.0459 23.9984 30.3448 24.1381L36.6203 27.0702C36.7019 27.108 36.7878 27.1259 36.8726 27.1259Z" fill="#171717"/>
<path d="M37.4489 11.3459C37.3088 11.0474 36.953 10.9184 36.6552 11.0573L30.3798 13.9895C30.0809 14.1296 29.952 14.4846 30.0913 14.7831C30.1928 15 30.4081 15.1274 30.6326 15.1274C30.7173 15.1274 30.8033 15.1095 30.8849 15.0713L37.1603 12.1391C37.4596 11.9998 37.5886 11.6444 37.4489 11.3459Z" fill="#171717"/>
<path d="M10.4137 23.3444C10.2736 23.0459 9.9178 22.917 9.62009 23.0559L3.34467 25.988C3.04576 26.1281 2.91681 26.4831 3.05611 26.7816C3.1576 26.9986 3.37293 27.1259 3.5974 27.1259C3.68218 27.1259 3.76815 27.108 3.84974 27.0698L10.1252 24.1377C10.4245 23.9984 10.5534 23.6429 10.4137 23.3444Z" fill="#171717"/>
<path d="M20.304 9.14806C20.6336 9.14806 20.9011 8.8806 20.9011 8.55104V1.64438C20.9011 1.31443 20.6336 1.04736 20.304 1.04736C19.9745 1.04736 19.707 1.31443 19.707 1.64438V8.55104C19.707 8.8806 19.9745 9.14806 20.304 9.14806Z" fill="#171717"/>
<path d="M25.5387 13.1161C23.557 11.4628 20.9483 10.805 18.3828 11.3106C14.929 11.9913 12.155 14.9429 11.6371 18.4886C11.2147 21.382 12.23 24.2716 14.3533 26.2186C15.3099 27.0958 15.8871 28.3593 15.9788 29.7767C15.9805 29.8024 15.9855 29.8273 15.991 29.8518V34.2965C15.991 34.5413 16.1869 34.7399 16.4289 34.7399H16.8654C17.0431 36.0282 17.9785 37.0147 19.1051 37.0147H21.0931C22.2197 37.0147 23.1548 36.0282 23.3325 34.7399H23.769C24.0107 34.7399 24.2069 34.5413 24.2069 34.2965V29.7809C24.2069 29.78 24.2072 29.7791 24.2072 29.7779C24.2072 28.4592 24.7986 27.1857 25.8729 26.192C27.6426 24.5553 28.6574 22.2273 28.6574 19.8053C28.6577 17.208 27.5209 14.7697 25.5387 13.1161ZM18.5507 21.5298H17.8778C17.5067 21.5298 17.2049 21.2242 17.2049 20.8485C17.2049 20.4729 17.5067 20.1673 17.8778 20.1673C18.2488 20.1673 18.5507 20.4729 18.5507 20.8485V21.5298ZM21.6478 20.8485C21.6478 20.4729 21.9497 20.1673 22.321 20.1673C22.692 20.1673 22.9939 20.4729 22.9939 20.8485C22.9939 21.2242 22.692 21.5298 22.321 21.5298H21.6487L21.6478 20.8485ZM21.3842 30.1896H23.3314V33.8532H22.9305C22.9297 33.8532 22.9288 33.8529 22.9276 33.8529C22.9265 33.8529 22.9259 33.8532 22.9247 33.8532H17.2735C17.2726 33.8532 17.2717 33.8529 17.2706 33.8529C17.2694 33.8529 17.2688 33.8532 17.2676 33.8532H16.8671V30.1896H21.061H21.3842ZM19.4265 29.303V22.4164H20.7743L20.7843 29.303H19.4265ZM21.0931 36.128H19.1051C18.4517 36.128 17.9032 35.5358 17.7514 34.7399H22.4465C22.295 35.5358 21.7465 36.128 21.0931 36.128ZM25.2824 25.5377C24.152 26.583 23.4829 27.9059 23.3576 29.303H21.6598L21.6501 22.4164H22.321C23.1749 22.4164 23.8697 21.713 23.8697 20.8485C23.8697 19.9841 23.1749 19.2807 22.321 19.2807C21.4668 19.2807 20.772 19.9841 20.772 20.8491L20.7729 21.5298H19.4265V20.8485C19.4265 19.9841 18.7317 19.2807 17.8778 19.2807C17.0239 19.2807 16.3291 19.9841 16.3291 20.8485C16.3291 21.713 17.0239 22.4164 17.8778 22.4164H18.5507V29.303H16.8073C16.6216 27.8238 15.9712 26.5056 14.9409 25.5613C13.0352 23.8135 12.1238 21.218 12.5033 18.618C12.9678 15.438 15.4541 12.791 18.5498 12.1807C20.8584 11.7262 23.2026 12.3161 24.9811 13.8003C26.7607 15.2849 27.7813 17.4737 27.7813 19.8056C27.7819 21.979 26.8708 24.0685 25.2824 25.5377Z" fill="#171717"/>
</svg>
