<svg width="25" height="24" viewBox="0 0 25 24" fill="none" xmlns="http://www.w3.org/2000/svg">
<path d="M12.0553 0.240225C11.8124 0.292366 11.5412 0.456806 11.4035 0.645309C11.3387 0.733545 11.2294 0.946115 11.1606 1.11456C11.0917 1.28302 11.0027 1.50361 10.9581 1.60388C10.9136 1.70414 10.6869 2.25361 10.452 2.82715C10.2172 3.40068 9.99048 3.95016 9.94594 4.05042C9.90141 4.15069 9.67468 4.70016 9.43985 5.2737C8.67464 7.13468 8.70703 7.07051 8.43576 7.26302C8.18069 7.4435 7.94991 7.49163 6.72719 7.59992C6.10368 7.65607 5.52876 7.70821 5.45183 7.72024C5.37491 7.73228 4.82023 7.78442 4.21696 7.84057C0.852453 8.14137 0.921282 8.13335 0.633821 8.27373C0.427335 8.37399 0.342311 8.44619 0.220849 8.62266C-0.0504176 9.01972 -0.0747101 9.52507 0.164166 9.89807C0.220849 9.98631 0.560943 10.3192 0.925331 10.632C1.28972 10.9489 2.03064 11.5946 2.57722 12.0719C3.1238 12.5492 3.95379 13.2671 4.4194 13.6722C4.88906 14.0773 5.36681 14.5024 5.48827 14.6147C5.95388 15.0559 5.97817 15.3567 5.65832 16.6441C5.22105 18.4129 4.80808 20.0934 4.64208 20.7752C4.54896 21.1602 4.4356 21.6054 4.39511 21.7618C4.28174 22.1749 4.29389 22.5199 4.42345 22.7645C4.62589 23.1495 4.93764 23.3741 5.35871 23.4423C5.59759 23.4784 5.92149 23.3782 6.34256 23.1295C6.53285 23.0212 6.78792 22.8688 6.90938 22.8006C7.03084 22.7284 7.60577 22.3955 8.18474 22.0586C8.76371 21.7217 9.53702 21.2685 9.90546 21.0559C10.2739 20.8434 10.8367 20.5145 11.1606 20.326C11.9096 19.8888 12.0108 19.8487 12.3347 19.8487C12.6586 19.8487 12.7598 19.8888 13.5088 20.326C14.8652 21.1161 15.5008 21.4851 16.7074 22.187C17.4078 22.5961 18.1366 23.0212 18.3269 23.1335C18.7398 23.3741 19.0759 23.4824 19.3147 23.4463C19.7156 23.3862 20.1043 23.0934 20.2743 22.7244C20.3755 22.5078 20.3715 22.1428 20.2703 21.7458C20.2298 21.5773 20.1285 21.1642 20.0476 20.8353C19.6265 19.0907 19.2702 17.6227 18.9989 16.5198C18.7965 15.7016 18.7682 15.473 18.841 15.2003C18.9342 14.8353 18.9423 14.8273 20.2703 13.6762C20.8614 13.1628 21.7723 12.3687 22.2946 11.9155C22.8169 11.4582 23.5133 10.8526 23.8412 10.5679C24.5741 9.93016 24.6631 9.7978 24.6591 9.32454C24.6591 8.93951 24.5498 8.69485 24.2704 8.43817C24.0032 8.19351 23.8372 8.14939 22.8412 8.06116C22.3513 8.01704 21.2865 7.91677 20.4727 7.84057C19.6589 7.76436 18.4848 7.65206 17.8612 7.59591C16.6345 7.48361 16.4118 7.43147 16.1567 7.21088C15.9138 6.99831 16.015 7.23094 13.9299 2.20548C13.44 1.03034 13.3064 0.741568 13.1849 0.59317C12.9542 0.316429 12.4562 0.160011 12.0553 0.240225Z" fill="#FFCB07"/>
</svg>
