<svg width="20" height="19" viewBox="0 0 20 19" fill="none" xmlns="http://www.w3.org/2000/svg">
<path fill-rule="evenodd" clip-rule="evenodd" d="M19.2235 0.200195C19.3102 0.200195 19.4747 0.246623 19.5843 0.302336C19.7259 0.37662 19.8173 0.469476 19.8949 0.618044C19.9543 0.734113 20 0.887325 20 0.966251C20 1.04518 19.2372 4.79189 18.3099 9.30001C17.378 13.8081 16.5878 17.5781 16.5512 17.6802C16.5193 17.7823 16.4188 17.9309 16.3365 18.0098C16.2498 18.0888 16.1081 18.1677 16.0031 18.1863C15.9026 18.2048 15.7473 18.2048 15.6605 18.1863C15.5554 18.1631 14.6007 17.4991 10.3709 14.4303L9.11926 15.6327C8.43407 16.292 7.8037 16.8584 7.72148 16.8956C7.64383 16.9327 7.50679 16.9606 7.42457 16.9606C7.34691 16.9606 7.18704 16.9141 7.07741 16.8584C6.96321 16.7981 6.83531 16.7006 6.78963 16.6356C6.74395 16.5706 6.24148 15.2335 5.67963 13.6642C5.11321 12.095 4.64728 10.8043 4.63815 10.7996C4.63358 10.795 3.68346 10.405 2.52778 9.93143C1.3721 9.45323 0.376296 9.03073 0.316913 8.98431C0.257531 8.94252 0.17074 8.85431 0.120493 8.78931C0.0702465 8.72431 0.0199996 8.58039 0.00629591 8.46432C-0.0074078 8.34825 0.00172801 8.18111 0.0291354 8.0929C0.0611107 8.00468 0.138765 7.87469 0.207284 7.80504C0.30321 7.70755 1.49543 7.21077 4.94877 5.83651C7.48852 4.82439 11.7001 3.14371 14.313 2.09909C17.1862 0.952323 19.1275 0.204838 19.2235 0.200195V0.200195ZM5.04012 6.37972C2.60543 7.35005 0.590987 8.15789 0.572716 8.17647C0.549876 8.19504 0.536172 8.26932 0.536172 8.34825C0.536172 8.42717 0.549876 8.50146 0.572716 8.52003C0.590987 8.5386 1.52284 8.93324 2.64197 9.39287C3.76111 9.8525 4.7158 10.2425 4.76605 10.2564C4.83 10.2796 6.28259 9.49037 9.85012 7.49398C13.9156 5.21902 14.8657 4.70368 14.9844 4.71296C15.0941 4.72225 15.1443 4.75475 15.1763 4.84296C15.1991 4.90796 15.2037 4.99617 15.19 5.03796C15.1717 5.08438 13.4953 6.63042 11.4626 8.4736C8.05951 11.5657 7.7763 11.835 7.84481 11.9046C7.88593 11.9464 9.67654 13.2556 11.8235 14.8156C14.3769 16.6727 15.7701 17.657 15.8432 17.657C15.9072 17.6616 15.9802 17.6338 16.0122 17.6013C16.0396 17.5688 16.8253 13.8499 17.7572 9.33251C18.689 4.81975 19.4519 1.07304 19.4519 0.998751C19.4519 0.929109 19.429 0.84554 19.397 0.81304C19.3651 0.780541 19.2874 0.757327 19.2235 0.76197C19.1595 0.76197 16.9395 1.63017 14.2901 2.68872C11.6407 3.74727 7.47481 5.40938 5.04012 6.37972ZM5.20914 10.7114C5.2 10.7114 5.61111 11.8814 6.12272 13.3067L7.05 15.902C7.08654 12.5035 7.11395 11.705 7.14136 11.6771C7.16877 11.6539 8.47062 10.47 10.042 9.04466C11.6133 7.61933 12.9152 6.43543 12.938 6.41686C12.9654 6.39364 12.9746 6.37507 12.9609 6.37507C12.9517 6.37507 11.2068 7.35005 9.08272 8.54324C6.95864 9.73179 5.21827 10.7068 5.20914 10.7114ZM7.57531 16.3802C8.16 15.8045 8.68531 15.2892 9.11469 14.8713C9.54864 14.4488 9.8958 14.096 9.88667 14.0821C9.87753 14.0681 9.37963 13.7014 8.78123 13.2649C8.17827 12.8285 7.66667 12.4571 7.63926 12.4385C7.59815 12.4153 7.58444 12.9074 7.57988 14.3931L7.57531 16.3802Z" fill="white"/>
</svg>
