<svg width="40" height="40" viewBox="0 0 40 40" fill="none" xmlns="http://www.w3.org/2000/svg">
<path d="M5.64945 4.15614C5.0557 4.39051 4.39945 5.05458 4.1807 5.64833C3.8057 6.64833 4.02445 7.76552 4.7432 8.47645C5.34476 9.0702 5.76664 9.24989 6.62601 9.24989C7.22758 9.2577 7.39164 9.22645 7.75883 9.05458C8.38383 8.76552 8.73539 8.42177 9.02445 7.82802C9.25883 7.35927 9.28226 7.24208 9.28226 6.60145C9.28226 6.02333 9.2432 5.82801 9.09476 5.53114C8.82133 4.97645 8.35258 4.48426 7.86039 4.24989C7.25101 3.9452 6.27445 3.90614 5.64945 4.15614ZM7.43851 5.04676C8.18851 5.42176 8.57133 6.20301 8.38383 7.0077C8.3057 7.37489 8.21976 7.52333 7.88383 7.85927C7.54789 8.1952 7.39945 8.28114 7.03226 8.35927C6.22758 8.54677 5.44633 8.16395 5.07133 7.41395C4.82133 6.90614 4.8057 6.42958 5.03226 5.93739C5.2432 5.46864 5.45414 5.24989 5.92289 5.03114C6.44633 4.78114 6.91508 4.78895 7.43851 5.04676Z" fill="#171717"/>
<path d="M18.0561 4.11719C17.9545 4.23438 17.8842 5.19531 17.6498 9.36719C17.4936 12.1797 17.3608 14.4844 17.3451 14.5C17.2358 14.6016 13.6576 16.4688 13.6186 16.4453C13.5873 16.4297 13.5405 16.1094 13.517 15.7344C13.4389 14.6797 13.728 14.7656 10.2514 14.7656C7.67327 14.7656 7.28264 14.7812 7.18108 14.8906C7.11077 14.9531 7.05608 15.0312 7.04827 15.0625C7.04827 15.0938 6.67327 19.6172 6.21233 25.1172L5.37639 35.1172L4.76702 35.1562C4.34514 35.1797 4.13421 35.2344 4.08733 35.3125C3.97796 35.4766 3.99358 35.8125 4.10296 35.9219C4.23577 36.0547 35.8139 36.0547 35.9467 35.9219C36.0795 35.7891 36.0639 35.4219 35.9155 35.2812C35.8295 35.1875 35.642 35.1562 35.2514 35.1562H34.7123V22.7812C34.7123 11.6328 34.6967 10.3906 34.5873 10.2812C34.3686 10.0625 34.1264 10.1484 33.3373 10.7031C32.9155 11 32.5561 11.2344 32.5405 11.2188C32.5326 11.2031 32.4233 9.625 32.2983 7.71094C32.1498 5.28906 32.0483 4.1875 31.978 4.10156C31.892 4 31.5795 3.98438 29.8686 3.98438C28.267 3.98438 27.8373 4.00781 27.767 4.09375C27.7123 4.15625 27.5717 6.16406 27.3686 9.64844C27.2045 12.6484 27.0326 15.125 27.0014 15.1562C26.8295 15.2969 25.3373 16.3281 25.3061 16.3281C25.2826 16.3281 25.2592 15.0859 25.2592 13.5625V10.7891L25.0873 10.6719C24.9936 10.6016 24.8608 10.5469 24.8061 10.5469C24.7436 10.5469 24.267 10.7734 23.7514 11.0547C23.2358 11.3359 22.8061 11.5547 22.7983 11.5391C22.7826 11.5234 22.3608 4.46875 22.3686 4.32031C22.3686 4.27344 22.3139 4.17188 22.2436 4.10938C22.142 4 21.8373 3.98438 20.1498 3.98438C18.3686 3.98438 18.1655 4 18.0561 4.11719ZM21.5483 5.64062C21.5795 6.08594 21.6811 7.70312 21.7748 9.24219L21.9389 12.0312L20.142 13C18.3608 13.9609 18.3451 13.9688 18.3217 13.7578C18.3139 13.6484 18.4076 11.6562 18.5405 9.34375C18.6655 7.03125 18.7748 5.07031 18.7748 4.99219C18.7748 4.85156 18.8608 4.84375 20.1342 4.84375H21.4936L21.5483 5.64062ZM31.4545 8.32812C31.6108 10.7891 31.6498 11.8438 31.5951 11.8984C31.4545 12.0391 28.0326 14.4375 28.0092 14.4141C27.978 14.3906 28.4467 5.84375 28.5092 5.25L28.5483 4.84375H29.892H31.2358L31.4545 8.32812ZM33.853 23.3203V35.1562H24.4936H15.142L14.4076 26.3594C13.9389 20.75 13.7045 17.5391 13.7514 17.4922C13.7905 17.4531 16.1967 16.1406 19.0951 14.5859L24.3608 11.75L24.3842 14.6016C24.392 16.5391 24.4311 17.4766 24.4858 17.5547C24.728 17.8359 24.9467 17.7109 29.4076 14.5703C31.8139 12.875 33.8061 11.4844 33.8217 11.4844C33.8373 11.4844 33.853 16.8125 33.853 23.3203ZM12.6342 15.7969C12.6655 15.9453 14.2436 34.9141 14.2436 35.0938C14.2436 35.1719 6.27483 35.1719 6.27483 35.0938C6.26702 34.9453 7.85296 15.8125 7.88421 15.7188C7.90764 15.6484 8.44671 15.625 10.2514 15.625H12.603L12.6342 15.7969Z" fill="#171717"/>
<path d="M16.6338 20.7501C16.5322 20.8517 16.5088 21.0782 16.5088 21.9923C16.5088 23.0626 16.5166 23.1251 16.6807 23.2345C16.9072 23.3985 17.0791 23.3907 17.2354 23.2188C17.3447 23.0938 17.3682 22.8829 17.3682 21.9454C17.3682 21.1642 17.3369 20.7813 17.2744 20.7188C17.1416 20.586 16.7744 20.6017 16.6338 20.7501Z" fill="#171717"/>
<path d="M20.0713 20.7968C19.9697 20.9374 19.9463 21.1952 19.9463 22.0077C19.9463 22.9452 19.9619 23.0624 20.1025 23.203C20.29 23.3905 20.4854 23.3983 20.6963 23.2499C20.8291 23.1483 20.8447 23.0233 20.8682 22.0702C20.8916 21.1952 20.876 20.9765 20.7744 20.8124C20.6104 20.5624 20.2354 20.5546 20.0713 20.7968Z" fill="#171717"/>
<path d="M23.5557 20.7188C23.4932 20.7812 23.4619 21.1719 23.4619 21.9609C23.4619 22.9062 23.4854 23.1328 23.5869 23.2344C23.7432 23.3906 23.9229 23.3906 24.1494 23.2344C24.3135 23.125 24.3213 23.0625 24.3213 21.9922C24.3213 21.0781 24.2979 20.8516 24.1963 20.75C24.0557 20.6016 23.6885 20.5859 23.5557 20.7188Z" fill="#171717"/>
<path d="M27.0244 20.7501C26.9229 20.8517 26.8994 21.0782 26.8994 21.9923C26.8994 23.0626 26.9072 23.1251 27.0713 23.2345C27.2979 23.3985 27.4697 23.3907 27.626 23.2188C27.7354 23.0938 27.7588 22.8829 27.7588 21.9454C27.7588 21.1642 27.7275 20.7813 27.665 20.7188C27.5322 20.586 27.165 20.6017 27.0244 20.7501Z" fill="#171717"/>
<path d="M30.4619 20.7968C30.3604 20.9374 30.3369 21.1952 30.3369 22.0077C30.3369 22.9452 30.3525 23.0624 30.4932 23.203C30.6807 23.3905 30.876 23.3983 31.0869 23.2499C31.2197 23.1483 31.2354 23.0233 31.2588 22.0702C31.2822 21.1952 31.2666 20.9765 31.165 20.8124C31.001 20.5624 30.626 20.5546 30.4619 20.7968Z" fill="#171717"/>
<path d="M16.6263 25.2811C16.5247 25.3827 16.5091 25.5858 16.5247 26.5468L16.5482 27.6874L16.7513 27.8046C16.9388 27.9061 16.9779 27.9061 17.1654 27.789L17.3685 27.6561V26.4999C17.3685 25.703 17.3372 25.3124 17.2747 25.2499C17.1419 25.1171 16.7747 25.1327 16.6263 25.2811Z" fill="#171717"/>
<path d="M20.0713 25.328C19.9697 25.4686 19.9463 25.7265 19.9463 26.539C19.9463 27.4765 19.9619 27.5936 20.1025 27.7343C20.29 27.9218 20.4854 27.9296 20.6963 27.7811C20.8291 27.6796 20.8447 27.5546 20.8682 26.6015C20.8916 25.7265 20.876 25.5077 20.7744 25.3436C20.6104 25.0936 20.2354 25.0858 20.0713 25.328Z" fill="#171717"/>
<path d="M23.5557 25.25C23.4932 25.3125 23.4619 25.7031 23.4619 26.4844C23.4619 27.5 23.4775 27.6484 23.6025 27.7578C23.7822 27.9219 23.9229 27.9219 24.1494 27.7656C24.3135 27.6562 24.3213 27.5937 24.3213 26.5234C24.3213 25.6094 24.2979 25.3828 24.1963 25.2812C24.0557 25.1328 23.6885 25.1172 23.5557 25.25Z" fill="#171717"/>
<path d="M27.0244 25.2813C26.9229 25.3829 26.8994 25.6095 26.8994 26.5235C26.8994 27.5938 26.9072 27.6563 27.0713 27.7657C27.2979 27.9298 27.4697 27.922 27.626 27.7501C27.7354 27.6251 27.7588 27.4142 27.7588 26.4767C27.7588 25.6954 27.7275 25.3126 27.665 25.2501C27.5322 25.1173 27.165 25.1329 27.0244 25.2813Z" fill="#171717"/>
<path d="M30.4619 25.328C30.3604 25.4686 30.3369 25.7265 30.3369 26.539C30.3369 27.4765 30.3525 27.5936 30.4932 27.7343C30.6807 27.9218 30.876 27.9296 31.0869 27.7811C31.2197 27.6796 31.2354 27.5546 31.2588 26.6015C31.2822 25.7265 31.2666 25.5077 31.165 25.3436C31.001 25.0936 30.626 25.0858 30.4619 25.328Z" fill="#171717"/>
<path d="M16.6416 29.9062C16.5322 30.0234 16.5088 30.2344 16.5088 31.1562C16.5088 32.3594 16.5557 32.5 16.9697 32.5C17.3369 32.5 17.3682 32.3984 17.3682 31.1719C17.3682 30.1562 17.3525 30.0078 17.2275 29.8984C17.04 29.7266 16.7979 29.7344 16.6416 29.9062Z" fill="#171717"/>
<path d="M20.1025 29.9219C19.9619 30.0625 19.9463 30.1797 19.9463 31.1172C19.9463 32.2891 20.0166 32.5 20.415 32.5C20.8291 32.5 20.8994 32.2734 20.8682 31.0547C20.8447 30.1016 20.8291 29.9766 20.6963 29.875C20.4854 29.7266 20.29 29.7344 20.1025 29.9219Z" fill="#171717"/>
<path d="M23.5869 29.8906C23.4854 29.9922 23.4619 30.2188 23.4619 31.1641C23.4619 32.3984 23.4932 32.5 23.8525 32.5C24.2588 32.5 24.3213 32.3281 24.3213 31.1094C24.3213 30.0625 24.3135 30 24.1494 29.8906C23.9229 29.7344 23.7432 29.7344 23.5869 29.8906Z" fill="#171717"/>
<path d="M27.0713 29.8906C26.9072 30 26.8994 30.0625 26.8994 31.1328C26.8994 32.3672 26.9463 32.5 27.3604 32.5C27.7275 32.5 27.7588 32.3984 27.7588 31.1719C27.7588 30.1562 27.7432 30.0078 27.6182 29.8984C27.4385 29.7344 27.2979 29.7344 27.0713 29.8906Z" fill="#171717"/>
<path d="M30.4932 29.9219C30.3525 30.0625 30.3369 30.1797 30.3369 31.1172C30.3369 32.2891 30.4072 32.5 30.8057 32.5C31.2197 32.5 31.29 32.2734 31.2588 31.0547C31.2354 30.1016 31.2197 29.9766 31.0869 29.875C30.876 29.7266 30.6807 29.7344 30.4932 29.9219Z" fill="#171717"/>
<path d="M9.67252 9.21098C8.94595 9.39848 8.25064 10.0313 8.02408 10.7188C7.93033 11 7.90689 11.2735 7.93033 11.6719C7.99283 12.586 8.39127 13.1954 9.18033 13.586C9.81314 13.9063 10.6256 13.9297 11.2506 13.6407C13.071 12.7891 13.0397 10.1641 11.2038 9.3516C10.821 9.18754 10.0475 9.10941 9.67252 9.21098ZM10.9538 10.2188C11.7428 10.586 11.9616 11.7266 11.3756 12.4297C10.6725 13.2579 9.45377 13.1016 8.95377 12.1094C8.7272 11.6797 8.7272 11.3204 8.93814 10.8829C9.31314 10.1172 10.1491 9.83598 10.9538 10.2188Z" fill="#171717"/>
</svg>
