<svg width="20" height="20" viewBox="0 0 20 20" fill="none" xmlns="http://www.w3.org/2000/svg">
<path d="M7.98828 2.53906C6.02344 2.67969 4.97656 2.92969 4.61328 3.33984L4.49219 3.48047L4.5 9.64062L4.51172 15.8008L4.60156 16.0312C4.72656 16.3672 4.86719 16.5898 5.10938 16.8438C5.38281 17.1289 5.60938 17.2734 5.98438 17.3984L6.28516 17.5H10H13.7148L14.0117 17.4023C14.6719 17.1797 15.168 16.6875 15.3984 16.0234L15.4883 15.7617V9.60156V3.44141L15.3711 3.32031C15.0234 2.95312 14.2812 2.76172 12.5 2.57422C11.9883 2.51953 8.62109 2.49609 7.98828 2.53906ZM11.4062 3.18359C12.2578 3.21094 13.1484 3.30078 13.9648 3.44141C14.9492 3.60938 14.9375 3.60156 14.4531 3.70312C11.9648 4.21875 7.91016 4.21094 5.44922 3.68359C5.07422 3.60547 5.07422 3.60547 6.03516 3.4375C6.92969 3.28516 7.84375 3.19922 8.94531 3.16797C9.83984 3.14062 10.0547 3.14062 11.4062 3.18359ZM5.55078 4.35547C6.61719 4.64062 8.90625 4.79688 11.0234 4.72656C12.5898 4.67188 13.7188 4.55078 14.4453 4.35547C14.6445 4.30078 14.8164 4.25781 14.8281 4.25781C14.8359 4.25781 14.8438 6.79297 14.8438 9.89453C14.8438 14.7383 14.8359 15.5586 14.7852 15.7266C14.6484 16.1875 14.2891 16.582 13.8398 16.7617L13.6133 16.8555H10H6.38672L6.16016 16.7617C5.71094 16.582 5.35156 16.1875 5.21484 15.7266C5.16406 15.5586 5.15625 14.7383 5.15625 9.89453C5.15625 6.79297 5.16406 4.25781 5.17188 4.25781C5.18359 4.25781 5.35156 4.30078 5.55078 4.35547Z" fill="#F77705"/>
<path d="M6.21069 6.83203C6.06226 6.98047 6.05444 7.15234 6.19116 7.28516C6.28491 7.38281 6.28491 7.38281 7.12085 7.38281C7.94116 7.38281 7.95679 7.38281 8.03882 7.29297C8.1482 7.17969 8.1521 6.95703 8.05054 6.83203C7.97632 6.73828 7.9646 6.73828 7.1521 6.72656L6.32788 6.71484L6.21069 6.83203Z" fill="#F77705"/>
<path d="M6.21094 9.13672C6.14453 9.19922 6.09375 9.28906 6.09375 9.33594C6.09375 9.44922 6.19531 9.63281 6.26953 9.66406C6.30469 9.67578 6.69922 9.6875 7.14453 9.6875C7.94141 9.6875 7.95703 9.6875 8.03906 9.59766C8.14844 9.48438 8.15234 9.26172 8.05078 9.13672C7.97656 9.04297 7.96484 9.04297 7.15234 9.03125L6.32812 9.01953L6.21094 9.13672Z" fill="#F77705"/>
<path d="M6.26078 11.375C6.07328 11.4648 6.04984 11.8125 6.22172 11.9336C6.28813 11.9805 6.45609 11.9922 7.11234 11.9922C7.87016 11.9922 7.92484 11.9883 8.0225 11.9102C8.16313 11.8008 8.16703 11.5625 8.02641 11.4258C7.93266 11.3281 7.93266 11.3281 7.13969 11.332C6.67094 11.332 6.31156 11.3516 6.26078 11.375Z" fill="#F77705"/>
<path d="M6.20703 13.7461C6.14453 13.8086 6.09375 13.8984 6.09375 13.9453C6.09375 14.0586 6.19531 14.2422 6.26953 14.2734C6.30469 14.2852 6.69141 14.2969 7.125 14.2969C7.87109 14.2969 7.92578 14.293 8.02344 14.2148C8.10547 14.1523 8.125 14.1016 8.125 13.9648C8.125 13.8281 8.10547 13.7773 8.02344 13.7148C7.92578 13.6367 7.87109 13.6328 7.12109 13.6328H6.32031L6.20703 13.7461Z" fill="#F77705"/>
</svg>
