<svg width="43" height="20" viewBox="0 0 43 20" fill="none" xmlns="http://www.w3.org/2000/svg">
<mask id="path-1-inside-1_4764_1465" fill="white">
<path d="M16.4236 0.0196076C16.3913 0.0409199 15.476 0.0942006 14.3777 0.136825C10.7705 0.254043 5.83889 0.78685 4.2668 1.22375C2.18863 1.79918 0.788818 3.25908 0.20736 5.47555C-0.0618338 6.48789 -0.0726016 10.079 0.196592 11.2832C0.455018 12.4447 0.950334 13.3611 1.71484 14.107C2.87776 15.2472 4.48216 15.8653 6.9695 16.1104C7.73401 16.1956 8.38008 16.2915 8.42315 16.3342C8.47699 16.3768 8.53083 17.2186 8.56313 18.1883C8.6062 19.6589 8.64927 19.9679 8.77849 19.9999C8.8754 20.0105 9.5753 19.3285 10.4906 18.3162C11.9657 16.6858 12.3211 16.3981 12.7087 16.5473C12.9779 16.6432 17.7911 16.7711 21.4306 16.7711C28.225 16.7711 34.9764 16.4088 37.2915 15.9186C40.8987 15.162 42.5246 13.5423 42.923 10.3241C43.0845 9.02405 42.9768 6.13623 42.74 5.26243C42.2446 3.42957 40.8771 1.95903 39.122 1.38359C37.5499 0.872099 33.7166 0.381916 30.3678 0.254043C29.3664 0.211418 28.4189 0.158137 28.2681 0.136825C27.902 0.0622322 16.4882 -0.0443292 16.4236 0.0196076ZM10.2214 4.86815C11.352 5.36899 12.2457 6.6051 12.3964 7.8945C12.4503 8.38468 12.4395 8.49124 12.2888 8.54452C12.095 8.61911 12.0626 8.56583 11.955 7.92647C11.6965 6.28542 10.8567 5.37965 9.29534 5.05996C8.78925 4.96406 8.6062 4.87881 8.5739 4.72962C8.5416 4.55912 8.6062 4.54847 9.13382 4.60175C9.46762 4.63372 9.95217 4.75094 10.2214 4.86815ZM15.0668 4.90012C15.1422 5.00668 15.5837 6.11492 16.0467 7.34038L16.8866 9.58883L17.7265 7.40431C18.1787 6.20017 18.631 5.09193 18.7279 4.94275C18.9863 4.55912 19.6539 4.55912 19.9662 4.9534C20.0954 5.11324 20.1923 5.31571 20.1923 5.41162C20.1815 5.78458 17.608 12.0824 17.3819 12.2635C17.0697 12.5299 16.6174 12.5086 16.3482 12.2102C16.1006 11.9438 13.624 5.74196 13.624 5.37965C13.624 4.74028 14.7007 4.37797 15.0668 4.90012ZM6.40958 4.7829C6.70031 4.94275 7.58327 6.18951 7.65864 6.55182C7.70171 6.80757 7.64787 6.92479 7.33561 7.22316C6.89413 7.64941 6.86183 7.83056 7.16332 8.40599C7.47559 9.00274 7.98167 9.5462 8.53083 9.86588C9.16613 10.2282 9.47839 10.2175 9.85526 9.80195C10.2644 9.36505 10.6305 9.3757 11.3089 9.83392C12.1703 10.4093 12.4395 10.6971 12.4395 11.0594C12.4395 11.7307 11.352 12.5299 10.6951 12.3381C10.1891 12.1996 8.82156 11.4323 8.14319 10.9208C6.67878 9.80195 5.24667 7.8945 4.83749 6.5092C4.68674 5.98705 4.68674 5.92311 4.86979 5.55015C5.07438 5.13456 5.66661 4.67634 6.00041 4.67634C6.11885 4.67634 6.3019 4.72962 6.40958 4.7829ZM22.0982 4.9534C22.3243 5.17718 22.3566 5.2944 22.3028 5.61408C22.1413 6.6797 20.623 6.61576 20.623 5.53949C20.623 4.74028 21.5167 4.37797 22.0982 4.9534ZM24.2948 4.84684C24.381 4.9534 24.4671 5.37965 24.4994 5.83786L24.5532 6.64773L24.8763 6.63707C25.0593 6.62642 25.447 6.58379 25.7485 6.54117C28.4081 6.15755 29.5925 10.5372 27.2559 12.1037C26.8145 12.402 26.6422 12.4553 26.1038 12.4553C25.6731 12.4553 25.3177 12.3807 24.9839 12.2209L24.4994 11.9865L24.2517 12.2209C23.7995 12.6365 23.1642 12.434 22.9919 11.8266C22.9381 11.6135 22.9058 10.0257 22.9165 8.28878C22.9381 5.34768 22.9488 5.11324 23.1427 4.90012C23.4011 4.62306 24.0795 4.59109 24.2948 4.84684ZM10.0168 5.7313C10.8459 6.10427 11.5566 7.18054 11.4489 7.90515C11.3843 8.35271 11.1151 8.1609 10.9859 7.58547C10.7705 6.65839 10.2752 6.14689 9.42455 5.9977C8.99384 5.92311 8.75695 5.76327 8.84309 5.62474C8.94 5.4649 9.55376 5.51818 10.0168 5.7313ZM10.1675 6.86085C10.3829 7.10594 10.5013 7.35103 10.5013 7.5535C10.5013 7.95843 10.2321 7.97975 10.1245 7.57481C10.0275 7.18054 9.79065 6.93544 9.41378 6.86085C8.97231 6.76495 9.00461 6.48789 9.46762 6.48789C9.74758 6.48789 9.9091 6.57314 10.1675 6.86085ZM32.4568 6.65839C33.4689 6.9461 34.2873 7.94778 34.4596 9.06667C34.5242 9.48226 34.5026 9.58883 34.3088 9.78064C34.0935 9.99376 33.9642 10.0044 32.3599 10.0044C30.5078 10.0044 30.3678 10.047 30.637 10.5266C30.96 11.134 32.0691 11.2725 32.9844 10.8143C33.2859 10.6651 33.6304 10.5372 33.7381 10.5372C34.0612 10.5372 34.3196 10.8995 34.2765 11.3045C34.2442 11.6028 34.1581 11.7094 33.6628 11.9971C32.2952 12.807 30.7124 12.6791 29.6679 11.6774C28.5696 10.6225 28.5911 8.5019 29.7002 7.36169C30.4755 6.56248 31.3692 6.32804 32.4568 6.65839ZM36.4085 6.81823L36.6562 7.04201L36.9469 6.81823C37.5068 6.38133 38.239 6.57314 38.4329 7.19119C38.5513 7.57481 38.3898 7.76662 37.6684 8.08631C36.71 8.52321 36.5593 8.87486 36.5808 10.5798C36.5916 11.6774 36.57 11.8586 36.3762 12.1143C36.107 12.4766 35.6117 12.5406 35.2564 12.2529L34.998 12.0504V9.52489C34.998 6.99938 34.9979 6.99938 35.2564 6.79692C35.5902 6.53051 36.107 6.54117 36.4085 6.81823ZM22.0228 7.19119C22.152 7.31907 22.1843 7.74531 22.1843 9.67407C22.1843 11.816 22.1628 12.0291 21.9797 12.2315C21.6782 12.5619 21.1291 12.5299 20.8491 12.1783C20.6338 11.9119 20.623 11.7627 20.623 9.7167C20.623 8.38468 20.6661 7.4576 20.7415 7.32972C20.9676 6.91413 21.6567 6.83954 22.0228 7.19119Z"/>
<path d="M25.0485 8.25703C24.3594 8.8218 24.3271 10.0686 24.9839 10.7186C25.953 11.6776 27.2667 10.4948 26.8683 9.03493C26.5991 8.05456 25.7377 7.68159 25.0485 8.25703Z"/>
<path d="M31.2831 7.8836C30.8739 8.04345 30.5293 8.41641 30.5293 8.69347C30.5293 8.832 30.5616 8.93856 30.6155 8.93856C30.7878 8.94922 32.5321 8.94922 32.6613 8.94922C32.8767 8.93856 32.8121 8.45904 32.5537 8.21395C32.3275 8.01148 31.7999 7.75573 31.6276 7.77704C31.5846 7.77704 31.4338 7.83032 31.2831 7.8836Z"/>
</mask>
<path d="M16.4236 0.0196076C16.3913 0.0409199 15.476 0.0942006 14.3777 0.136825C10.7705 0.254043 5.83889 0.78685 4.2668 1.22375C2.18863 1.79918 0.788818 3.25908 0.20736 5.47555C-0.0618338 6.48789 -0.0726016 10.079 0.196592 11.2832C0.455018 12.4447 0.950334 13.3611 1.71484 14.107C2.87776 15.2472 4.48216 15.8653 6.9695 16.1104C7.73401 16.1956 8.38008 16.2915 8.42315 16.3342C8.47699 16.3768 8.53083 17.2186 8.56313 18.1883C8.6062 19.6589 8.64927 19.9679 8.77849 19.9999C8.8754 20.0105 9.5753 19.3285 10.4906 18.3162C11.9657 16.6858 12.3211 16.3981 12.7087 16.5473C12.9779 16.6432 17.7911 16.7711 21.4306 16.7711C28.225 16.7711 34.9764 16.4088 37.2915 15.9186C40.8987 15.162 42.5246 13.5423 42.923 10.3241C43.0845 9.02405 42.9768 6.13623 42.74 5.26243C42.2446 3.42957 40.8771 1.95903 39.122 1.38359C37.5499 0.872099 33.7166 0.381916 30.3678 0.254043C29.3664 0.211418 28.4189 0.158137 28.2681 0.136825C27.902 0.0622322 16.4882 -0.0443292 16.4236 0.0196076ZM10.2214 4.86815C11.352 5.36899 12.2457 6.6051 12.3964 7.8945C12.4503 8.38468 12.4395 8.49124 12.2888 8.54452C12.095 8.61911 12.0626 8.56583 11.955 7.92647C11.6965 6.28542 10.8567 5.37965 9.29534 5.05996C8.78925 4.96406 8.6062 4.87881 8.5739 4.72962C8.5416 4.55912 8.6062 4.54847 9.13382 4.60175C9.46762 4.63372 9.95217 4.75094 10.2214 4.86815ZM15.0668 4.90012C15.1422 5.00668 15.5837 6.11492 16.0467 7.34038L16.8866 9.58883L17.7265 7.40431C18.1787 6.20017 18.631 5.09193 18.7279 4.94275C18.9863 4.55912 19.6539 4.55912 19.9662 4.9534C20.0954 5.11324 20.1923 5.31571 20.1923 5.41162C20.1815 5.78458 17.608 12.0824 17.3819 12.2635C17.0697 12.5299 16.6174 12.5086 16.3482 12.2102C16.1006 11.9438 13.624 5.74196 13.624 5.37965C13.624 4.74028 14.7007 4.37797 15.0668 4.90012ZM6.40958 4.7829C6.70031 4.94275 7.58327 6.18951 7.65864 6.55182C7.70171 6.80757 7.64787 6.92479 7.33561 7.22316C6.89413 7.64941 6.86183 7.83056 7.16332 8.40599C7.47559 9.00274 7.98167 9.5462 8.53083 9.86588C9.16613 10.2282 9.47839 10.2175 9.85526 9.80195C10.2644 9.36505 10.6305 9.3757 11.3089 9.83392C12.1703 10.4093 12.4395 10.6971 12.4395 11.0594C12.4395 11.7307 11.352 12.5299 10.6951 12.3381C10.1891 12.1996 8.82156 11.4323 8.14319 10.9208C6.67878 9.80195 5.24667 7.8945 4.83749 6.5092C4.68674 5.98705 4.68674 5.92311 4.86979 5.55015C5.07438 5.13456 5.66661 4.67634 6.00041 4.67634C6.11885 4.67634 6.3019 4.72962 6.40958 4.7829ZM22.0982 4.9534C22.3243 5.17718 22.3566 5.2944 22.3028 5.61408C22.1413 6.6797 20.623 6.61576 20.623 5.53949C20.623 4.74028 21.5167 4.37797 22.0982 4.9534ZM24.2948 4.84684C24.381 4.9534 24.4671 5.37965 24.4994 5.83786L24.5532 6.64773L24.8763 6.63707C25.0593 6.62642 25.447 6.58379 25.7485 6.54117C28.4081 6.15755 29.5925 10.5372 27.2559 12.1037C26.8145 12.402 26.6422 12.4553 26.1038 12.4553C25.6731 12.4553 25.3177 12.3807 24.9839 12.2209L24.4994 11.9865L24.2517 12.2209C23.7995 12.6365 23.1642 12.434 22.9919 11.8266C22.9381 11.6135 22.9058 10.0257 22.9165 8.28878C22.9381 5.34768 22.9488 5.11324 23.1427 4.90012C23.4011 4.62306 24.0795 4.59109 24.2948 4.84684ZM10.0168 5.7313C10.8459 6.10427 11.5566 7.18054 11.4489 7.90515C11.3843 8.35271 11.1151 8.1609 10.9859 7.58547C10.7705 6.65839 10.2752 6.14689 9.42455 5.9977C8.99384 5.92311 8.75695 5.76327 8.84309 5.62474C8.94 5.4649 9.55376 5.51818 10.0168 5.7313ZM10.1675 6.86085C10.3829 7.10594 10.5013 7.35103 10.5013 7.5535C10.5013 7.95843 10.2321 7.97975 10.1245 7.57481C10.0275 7.18054 9.79065 6.93544 9.41378 6.86085C8.97231 6.76495 9.00461 6.48789 9.46762 6.48789C9.74758 6.48789 9.9091 6.57314 10.1675 6.86085ZM32.4568 6.65839C33.4689 6.9461 34.2873 7.94778 34.4596 9.06667C34.5242 9.48226 34.5026 9.58883 34.3088 9.78064C34.0935 9.99376 33.9642 10.0044 32.3599 10.0044C30.5078 10.0044 30.3678 10.047 30.637 10.5266C30.96 11.134 32.0691 11.2725 32.9844 10.8143C33.2859 10.6651 33.6304 10.5372 33.7381 10.5372C34.0612 10.5372 34.3196 10.8995 34.2765 11.3045C34.2442 11.6028 34.1581 11.7094 33.6628 11.9971C32.2952 12.807 30.7124 12.6791 29.6679 11.6774C28.5696 10.6225 28.5911 8.5019 29.7002 7.36169C30.4755 6.56248 31.3692 6.32804 32.4568 6.65839ZM36.4085 6.81823L36.6562 7.04201L36.9469 6.81823C37.5068 6.38133 38.239 6.57314 38.4329 7.19119C38.5513 7.57481 38.3898 7.76662 37.6684 8.08631C36.71 8.52321 36.5593 8.87486 36.5808 10.5798C36.5916 11.6774 36.57 11.8586 36.3762 12.1143C36.107 12.4766 35.6117 12.5406 35.2564 12.2529L34.998 12.0504V9.52489C34.998 6.99938 34.9979 6.99938 35.2564 6.79692C35.5902 6.53051 36.107 6.54117 36.4085 6.81823ZM22.0228 7.19119C22.152 7.31907 22.1843 7.74531 22.1843 9.67407C22.1843 11.816 22.1628 12.0291 21.9797 12.2315C21.6782 12.5619 21.1291 12.5299 20.8491 12.1783C20.6338 11.9119 20.623 11.7627 20.623 9.7167C20.623 8.38468 20.6661 7.4576 20.7415 7.32972C20.9676 6.91413 21.6567 6.83954 22.0228 7.19119Z" stroke="white" mask="url(#path-1-inside-1_4764_1465)"/>
<path d="M25.0485 8.25703C24.3594 8.8218 24.3271 10.0686 24.9839 10.7186C25.953 11.6776 27.2667 10.4948 26.8683 9.03493C26.5991 8.05456 25.7377 7.68159 25.0485 8.25703Z" stroke="white" mask="url(#path-1-inside-1_4764_1465)"/>
<path d="M31.2831 7.8836C30.8739 8.04345 30.5293 8.41641 30.5293 8.69347C30.5293 8.832 30.5616 8.93856 30.6155 8.93856C30.7878 8.94922 32.5321 8.94922 32.6613 8.94922C32.8767 8.93856 32.8121 8.45904 32.5537 8.21395C32.3275 8.01148 31.7999 7.75573 31.6276 7.77704C31.5846 7.77704 31.4338 7.83032 31.2831 7.8836Z" stroke="white" mask="url(#path-1-inside-1_4764_1465)"/>
</svg>
