<svg width="20" height="20" viewBox="0 0 20 20" fill="none" xmlns="http://www.w3.org/2000/svg">
<g clip-path="url(#clip0_6483_2)">
<path d="M0 20L1.15282 14.3304C0.477168 12.9632 0.128861 11.4572 0.135962 9.93201C0.135962 4.45766 4.59363 0 10.068 0C15.5425 0 20 4.45766 20 9.93201C20 15.4064 15.5425 19.864 10.068 19.864C8.54433 19.8684 7.04043 19.5181 5.67544 18.8413L0 20ZM5.8114 17.8481L5.95914 17.9249C7.22904 18.5815 8.63855 18.9222 10.068 18.9182C15.0222 18.9182 19.0541 14.8862 19.0541 9.93201C19.0541 4.97778 15.0222 0.945848 10.068 0.945848C5.11375 0.945848 1.08181 4.97778 1.08181 9.93201C1.07783 11.3616 1.41851 12.7709 2.07512 14.0409L2.15202 14.1886L1.21188 18.7881L5.8114 17.8481Z" fill="white"/>
<path d="M12.8702 15.607H12.4327C7.99879 15.607 4.39258 12.0008 4.39258 7.56688V7.12937C4.39189 6.37682 4.69204 5.65526 5.22619 5.12527L5.61641 4.73505C6.22521 4.12608 7.28936 4.12608 7.89833 4.73505L9.12217 5.95282C9.42596 6.25471 9.59622 6.66554 9.595 7.09387C9.59362 7.52167 9.42371 7.93164 9.12217 8.23491L9.00976 8.34715C8.77819 8.57941 8.64846 8.89412 8.64916 9.22216C8.65037 9.54968 8.77992 9.86387 9.00976 10.0972L9.89655 10.984C10.3578 11.445 11.1853 11.445 11.6525 10.984L11.7647 10.8715C12.3737 10.2626 13.4378 10.2626 14.0468 10.8715L15.2704 12.1013C15.9005 12.7315 15.9005 13.7531 15.2704 14.3832L14.8804 14.7734C14.3488 15.3091 13.6249 15.6093 12.8702 15.607ZM6.75729 5.202C6.5801 5.20183 6.40985 5.27197 6.28445 5.3972L5.89423 5.78742C5.53813 6.14075 5.33808 6.62172 5.33843 7.12349V7.56688C5.34172 11.4835 8.51614 14.6579 12.4327 14.6612H12.8702C13.372 14.6615 13.853 14.4615 14.2063 14.1054L14.5965 13.7152C14.7223 13.5899 14.7928 13.4197 14.7928 13.2423C14.7928 13.0648 14.7223 12.8947 14.5965 12.7693L13.3787 11.5455C13.1139 11.2933 12.6977 11.2933 12.4327 11.5455L12.3205 11.6579C11.4664 12.5111 10.0826 12.5111 9.22851 11.6579L8.34173 10.7711C7.93297 10.3592 7.70331 9.80255 7.70331 9.22216C7.70244 8.64332 7.93211 8.08804 8.34173 7.67911L8.45413 7.56688C8.57866 7.44096 8.64881 7.27105 8.64916 7.09387C8.6495 6.91651 8.57936 6.74643 8.45413 6.62086L7.2303 5.3972C7.10473 5.27197 6.93464 5.20183 6.75729 5.202Z" fill="white"/>
</g>
<defs>
<clipPath id="clip0_6483_2">
<rect width="20" height="20" fill="white"/>
</clipPath>
</defs>
</svg>
