<svg width="20" height="20" viewBox="0 0 20 20" fill="none" xmlns="http://www.w3.org/2000/svg">
<path fill-rule="evenodd" clip-rule="evenodd" d="M9.15666 0.00756759C8.66648 0.0543273 8.49604 0.0742443 8.23814 0.114867C2.94873 0.948087 -0.747267 6.05726 0.128594 11.3251C0.305737 12.3906 0.802668 13.8125 1.24847 14.5294C1.27011 14.5642 1.2515 14.6592 1.15562 15.0028C1.08965 15.2393 0.80429 16.2588 0.521458 17.2686C0.23865 18.2783 0.00725451 19.141 0.00725451 19.1858C0.00725451 19.4025 0.200716 19.6 0.412954 19.6C0.466991 19.6 3.10557 18.9544 4.90353 18.5012L5.20156 18.4261L5.48745 18.5695C9.84824 20.7577 15.1793 19.3455 17.9147 15.2775C22.0195 9.17311 18.2207 0.929006 10.8983 0.0503152C10.6074 0.0154007 9.38812 -0.0145227 9.15666 0.00756759ZM10.3138 0.853636C15.114 1.17377 18.7353 5.01933 18.7353 9.7967C18.7353 16.4674 11.7576 20.7727 5.77701 17.7919C5.41642 17.6122 5.31217 17.5703 5.22828 17.571C5.17131 17.5716 4.20679 17.8008 3.08489 18.0803C1.96298 18.3599 1.04239 18.587 1.03912 18.5849C1.03583 18.5828 1.26467 17.7545 1.54765 16.7442C1.83062 15.7339 2.08273 14.8284 2.1079 14.7319C2.16382 14.5175 2.15065 14.4419 2.01759 14.2129C0.630559 11.8259 0.474578 8.75053 1.61011 6.17868C2.97431 3.08888 6.05268 0.970918 9.35945 0.846997C9.44474 0.843797 9.60578 0.83809 9.71731 0.834292C9.82885 0.830495 10.0972 0.839212 10.3138 0.853636ZM5.98359 4.7078C5.66135 4.78188 5.42439 4.93522 5.14003 5.25368C4.02526 6.50215 3.97798 8.14619 5.00958 9.78803C5.94222 11.2723 7.3711 12.7482 8.69611 13.5957C9.61394 14.1828 11.2758 14.8267 12.0196 14.8834C12.1245 14.8914 12.2526 14.9027 12.3042 14.9085C13.4103 15.033 14.8504 14.2261 15.1525 13.3127C15.4575 12.3902 15.375 11.7841 14.9132 11.5555C14.413 11.308 13.0816 10.6844 12.8922 10.6089C12.3594 10.3967 12.0599 10.4655 11.7502 10.8714C11.5246 11.167 11.0221 11.7669 11 11.7669C10.9883 11.7669 10.8136 11.693 10.6119 11.6027C9.50474 11.107 8.64412 10.3707 7.92882 9.30713C7.709 8.98027 7.71327 9.02006 7.87825 8.835C8.50281 8.13447 8.65348 7.72511 8.4604 7.25334C7.52463 4.96713 7.45921 4.84786 7.07606 4.73061C6.91017 4.67984 6.17226 4.66443 5.98359 4.7078ZM6.83555 5.58761C6.85447 5.61718 7.0397 6.04972 7.24716 6.54884C7.45465 7.04796 7.64327 7.49382 7.66632 7.53963C7.73496 7.67613 7.5796 7.92187 7.11206 8.41631C6.69946 8.85265 6.77075 9.18947 7.47508 10.1317C8.26331 11.1861 9.15165 11.8852 10.4153 12.4456C11.2176 12.8014 11.422 12.7039 12.3032 11.5456C12.4684 11.3284 12.4407 11.3335 12.7382 11.4656C13.7539 11.9166 14.4888 12.2979 14.4888 12.3739C14.4888 13.1022 14.0579 13.629 13.2005 13.949C12.5014 14.2098 11.4155 14.0011 9.95283 13.3246C7.66064 12.2646 5.11279 9.17545 5.11279 7.45633C5.11279 6.7044 5.54521 5.84035 6.05516 5.57328C6.18259 5.50654 6.79086 5.51771 6.83555 5.58761Z" fill="#F77705"/>
</svg>
