<svg width="30" height="30" viewBox="0 0 30 30" fill="none" xmlns="http://www.w3.org/2000/svg">
<path d="M4.23709 3.11735C3.79178 3.29313 3.29959 3.79118 3.13553 4.23649C2.85428 4.98649 3.01834 5.82438 3.5574 6.35758C4.00857 6.8029 4.32498 6.93766 4.96951 6.93766C5.42068 6.94352 5.54373 6.92008 5.81912 6.79118C6.28787 6.57438 6.55154 6.31657 6.76834 5.87126C6.94412 5.51969 6.9617 5.4318 6.9617 4.95133C6.9617 4.51774 6.9324 4.37126 6.82107 4.1486C6.61599 3.73258 6.26443 3.36344 5.89529 3.18766C5.43826 2.95915 4.70584 2.92985 4.23709 3.11735ZM5.57888 3.78532C6.14138 4.06657 6.42849 4.65251 6.28787 5.25602C6.22928 5.53141 6.16482 5.64274 5.91287 5.89469C5.66092 6.14665 5.54959 6.2111 5.2742 6.26969C4.67068 6.41032 4.08474 6.12321 3.80349 5.56071C3.61599 5.17985 3.60428 4.82243 3.7742 4.45329C3.9324 4.10172 4.0906 3.93766 4.44217 3.7736C4.83474 3.5861 5.18631 3.59196 5.57888 3.78532Z" fill="white"/>
<path d="M13.5418 3.08789C13.4656 3.17578 13.4129 3.89648 13.2371 7.02539C13.1199 9.13477 13.0203 10.8633 13.0086 10.875C12.9266 10.9512 10.243 12.3516 10.2137 12.334C10.1903 12.3223 10.1551 12.082 10.1375 11.8008C10.0789 11.0098 10.2957 11.0742 7.6883 11.0742C5.75471 11.0742 5.46174 11.0859 5.38557 11.168C5.33283 11.2148 5.29182 11.2734 5.28596 11.2969C5.28596 11.3203 5.00471 14.7129 4.659 18.8379L4.03205 26.3379L3.57502 26.3672C3.25861 26.3848 3.10041 26.4258 3.06525 26.4844C2.98322 26.6074 2.99494 26.8594 3.07697 26.9414C3.17658 27.041 26.8602 27.041 26.9598 26.9414C27.0594 26.8418 27.0477 26.5664 26.9363 26.4609C26.8719 26.3906 26.7313 26.3672 26.4383 26.3672H26.034V17.0859C26.034 8.72461 26.0223 7.79297 25.9403 7.71094C25.7762 7.54688 25.5946 7.61133 25.0028 8.02734C24.6863 8.25 24.4168 8.42578 24.4051 8.41406C24.3992 8.40234 24.3172 7.21875 24.2235 5.7832C24.1121 3.9668 24.036 3.14062 23.9832 3.07617C23.9188 3 23.6844 2.98828 22.4012 2.98828C21.2 2.98828 20.8778 3.00586 20.825 3.07031C20.784 3.11719 20.6785 4.62305 20.5262 7.23633C20.4031 9.48633 20.2742 11.3438 20.2508 11.3672C20.1219 11.4727 19.0028 12.2461 18.9793 12.2461C18.9617 12.2461 18.9442 11.3145 18.9442 10.1719V8.0918L18.8153 8.00391C18.7449 7.95117 18.6453 7.91016 18.6043 7.91016C18.5574 7.91016 18.2 8.08008 17.8133 8.29102C17.4266 8.50195 17.1043 8.66602 17.0985 8.6543C17.0867 8.64258 16.7703 3.35156 16.7762 3.24023C16.7762 3.20508 16.7352 3.12891 16.6824 3.08203C16.6063 3 16.3778 2.98828 15.1121 2.98828C13.7762 2.98828 13.6238 3 13.5418 3.08789ZM16.161 4.23047C16.1844 4.56445 16.2606 5.77734 16.3309 6.93164L16.4539 9.02344L15.1063 9.75C13.7703 10.4707 13.7586 10.4766 13.741 10.3184C13.7352 10.2363 13.8055 8.74219 13.9051 7.00781C13.9988 5.27344 14.0809 3.80273 14.0809 3.74414C14.0809 3.63867 14.1453 3.63281 15.1004 3.63281H16.1199L16.161 4.23047ZM23.5906 6.24609C23.7078 8.0918 23.7371 8.88281 23.6961 8.92383C23.5906 9.0293 21.0242 10.8281 21.0067 10.8105C20.9832 10.793 21.3348 4.38281 21.3817 3.9375L21.411 3.63281H22.4188H23.4266L23.5906 6.24609ZM25.3895 17.4902V26.3672H18.3699H11.3563L10.8055 19.7695C10.4539 15.5625 10.2781 13.1543 10.3133 13.1191C10.3426 13.0898 12.1473 12.1055 14.3211 10.9395L18.2703 8.8125L18.2879 10.9512C18.2938 12.4043 18.3231 13.1074 18.3641 13.166C18.5457 13.377 18.7098 13.2832 22.0555 10.9277C23.8602 9.65625 25.3543 8.61328 25.366 8.61328C25.3778 8.61328 25.3895 12.6094 25.3895 17.4902ZM9.47541 11.8477C9.49885 11.959 10.6824 26.1855 10.6824 26.3203C10.6824 26.3789 4.70588 26.3789 4.70588 26.3203C4.70002 26.209 5.88947 11.8594 5.91291 11.7891C5.93049 11.7363 6.33479 11.7188 7.6883 11.7188H9.45197L9.47541 11.8477Z" fill="white"/>
<path d="M12.4753 15.5626C12.3992 15.6388 12.3816 15.8087 12.3816 16.4943C12.3816 17.297 12.3875 17.3439 12.5105 17.4259C12.6804 17.549 12.8093 17.5431 12.9265 17.4142C13.0085 17.3204 13.0261 17.1622 13.0261 16.4591C13.0261 15.8732 13.0027 15.5861 12.9558 15.5392C12.8562 15.4396 12.5808 15.4513 12.4753 15.5626Z" fill="white"/>
<path d="M15.0535 15.5978C14.9773 15.7032 14.9597 15.8966 14.9597 16.506C14.9597 17.2091 14.9714 17.297 15.0769 17.4024C15.2175 17.5431 15.364 17.5489 15.5222 17.4376C15.6218 17.3614 15.6335 17.2677 15.6511 16.5528C15.6687 15.8966 15.657 15.7325 15.5808 15.6095C15.4578 15.422 15.1765 15.4161 15.0535 15.5978Z" fill="white"/>
<path d="M17.6667 15.5391C17.6199 15.5859 17.5964 15.8789 17.5964 16.4707C17.5964 17.1797 17.614 17.3496 17.6902 17.4258C17.8074 17.543 17.9421 17.543 18.1121 17.4258C18.2351 17.3438 18.241 17.2969 18.241 16.4941C18.241 15.8086 18.2234 15.6387 18.1472 15.5625C18.0417 15.4512 17.7664 15.4395 17.6667 15.5391Z" fill="white"/>
<path d="M20.2683 15.5626C20.1921 15.6388 20.1746 15.8087 20.1746 16.4943C20.1746 17.297 20.1804 17.3439 20.3035 17.4259C20.4734 17.549 20.6023 17.5431 20.7195 17.4142C20.8015 17.3204 20.8191 17.1622 20.8191 16.4591C20.8191 15.8732 20.7957 15.5861 20.7488 15.5392C20.6492 15.4396 20.3738 15.4513 20.2683 15.5626Z" fill="white"/>
<path d="M22.8464 15.5978C22.7703 15.7032 22.7527 15.8966 22.7527 16.506C22.7527 17.2091 22.7644 17.297 22.8699 17.4024C23.0105 17.5431 23.157 17.5489 23.3152 17.4376C23.4148 17.3614 23.4265 17.2677 23.4441 16.5528C23.4617 15.8966 23.45 15.7325 23.3738 15.6095C23.2507 15.422 22.9695 15.4161 22.8464 15.5978Z" fill="white"/>
<path d="M12.4695 18.9609C12.3933 19.037 12.3816 19.1894 12.3933 19.9101L12.4109 20.7655L12.5632 20.8534C12.7039 20.9296 12.7332 20.9296 12.8738 20.8417L13.0261 20.7421V19.8749C13.0261 19.2773 13.0027 18.9843 12.9558 18.9374C12.8562 18.8378 12.5808 18.8495 12.4695 18.9609Z" fill="white"/>
<path d="M15.0535 18.9962C14.9773 19.1017 14.9597 19.295 14.9597 19.9044C14.9597 20.6075 14.9714 20.6954 15.0769 20.8009C15.2175 20.9415 15.364 20.9474 15.5222 20.836C15.6218 20.7599 15.6335 20.6661 15.6511 19.9513C15.6687 19.295 15.657 19.131 15.5808 19.0079C15.4578 18.8204 15.1765 18.8146 15.0535 18.9962Z" fill="white"/>
<path d="M17.6667 18.9377C17.6199 18.9846 17.5964 19.2776 17.5964 19.8635C17.5964 20.6252 17.6082 20.7366 17.7019 20.8186C17.8367 20.9416 17.9421 20.9416 18.1121 20.8244C18.2351 20.7424 18.241 20.6955 18.241 19.8928C18.241 19.2073 18.2234 19.0373 18.1472 18.9612C18.0417 18.8498 17.7664 18.8381 17.6667 18.9377Z" fill="white"/>
<path d="M20.2683 18.9611C20.1921 19.0372 20.1746 19.2072 20.1746 19.8927C20.1746 20.6954 20.1804 20.7423 20.3035 20.8243C20.4734 20.9474 20.6023 20.9415 20.7195 20.8126C20.8015 20.7189 20.8191 20.5607 20.8191 19.8576C20.8191 19.2716 20.7957 18.9845 20.7488 18.9376C20.6492 18.838 20.3738 18.8497 20.2683 18.9611Z" fill="white"/>
<path d="M22.8464 18.9962C22.7703 19.1017 22.7527 19.295 22.7527 19.9044C22.7527 20.6075 22.7644 20.6954 22.8699 20.8009C23.0105 20.9415 23.157 20.9474 23.3152 20.836C23.4148 20.7599 23.4265 20.6661 23.4441 19.9513C23.4617 19.295 23.45 19.131 23.3738 19.0079C23.2507 18.8204 22.9695 18.8146 22.8464 18.9962Z" fill="white"/>
<path d="M12.4812 22.4297C12.3992 22.5176 12.3816 22.6758 12.3816 23.3672C12.3816 24.2695 12.4167 24.375 12.7273 24.375C13.0027 24.375 13.0261 24.2988 13.0261 23.3789C13.0261 22.6172 13.0144 22.5059 12.9207 22.4238C12.78 22.2949 12.5984 22.3008 12.4812 22.4297Z" fill="white"/>
<path d="M15.0769 22.4414C14.9714 22.5469 14.9597 22.6348 14.9597 23.3379C14.9597 24.2168 15.0125 24.375 15.3113 24.375C15.6218 24.375 15.6746 24.2051 15.6511 23.291C15.6335 22.5762 15.6218 22.4824 15.5222 22.4062C15.364 22.2949 15.2175 22.3008 15.0769 22.4414Z" fill="white"/>
<path d="M17.6902 22.418C17.614 22.4941 17.5964 22.6641 17.5964 23.373C17.5964 24.2988 17.6199 24.375 17.8894 24.375C18.1941 24.375 18.241 24.2461 18.241 23.332C18.241 22.5469 18.2351 22.5 18.1121 22.418C17.9421 22.3008 17.8074 22.3008 17.6902 22.418Z" fill="white"/>
<path d="M20.3035 22.418C20.1804 22.5 20.1746 22.5469 20.1746 23.3496C20.1746 24.2754 20.2097 24.375 20.5203 24.375C20.7957 24.375 20.8191 24.2988 20.8191 23.3789C20.8191 22.6172 20.8074 22.5059 20.7136 22.4238C20.5789 22.3008 20.4734 22.3008 20.3035 22.418Z" fill="white"/>
<path d="M22.8699 22.4414C22.7644 22.5469 22.7527 22.6348 22.7527 23.3379C22.7527 24.2168 22.8054 24.375 23.1042 24.375C23.4148 24.375 23.4675 24.2051 23.4441 23.291C23.4265 22.5762 23.4148 22.4824 23.3152 22.4062C23.157 22.2949 23.0105 22.3008 22.8699 22.4414Z" fill="white"/>
<path d="M7.25463 6.90799C6.70971 7.04861 6.18822 7.52322 6.0183 8.03885C5.94799 8.24978 5.93041 8.45486 5.94799 8.75369C5.99487 9.43924 6.29369 9.89627 6.88549 10.1892C7.3601 10.4295 7.96947 10.4471 8.43822 10.2303C9.80346 9.59158 9.78002 7.62283 8.40307 7.01346C8.11596 6.89041 7.53588 6.83182 7.25463 6.90799ZM8.21557 7.66385C8.80737 7.93924 8.97143 8.79471 8.53197 9.32205C8.00463 9.94314 7.09057 9.82596 6.71557 9.08182C6.54565 8.75955 6.54565 8.49002 6.70385 8.16189C6.9851 7.58768 7.61205 7.37674 8.21557 7.66385Z" fill="white"/>
</svg>
