<svg width="30" height="30" viewBox="0 0 30 30" fill="none" xmlns="http://www.w3.org/2000/svg">
<path d="M5.33166 22.5142C5.12503 22.5142 4.95776 22.6815 4.95776 22.8881C4.95776 23.0948 5.12503 23.262 5.33166 23.262H24.5683C24.7749 23.262 24.9422 23.0948 24.9422 22.8881C24.9422 22.6815 24.7749 22.5142 24.5683 22.5142H22.4816V11.4779H24.5683C24.7749 11.4779 24.9422 11.3106 24.9422 11.104C24.9422 10.8974 24.7749 10.7301 24.5683 10.7301H7.47393C7.44047 10.7203 7.40599 10.7134 7.36945 10.7134C7.33291 10.7134 7.29817 10.7203 7.26498 10.7301H5.33166C5.12503 10.7301 4.95776 10.8974 4.95776 11.104C4.95776 11.3106 5.12503 11.4779 5.33166 11.4779H6.9971V22.5142H5.33166ZM12.8071 22.5142V11.4779H16.9387V22.5142H12.8071ZM21.7338 22.5142H17.6865V11.4779H21.7338V22.5142ZM7.74181 11.4779H12.0593V22.5142H7.74181V11.4779Z" fill="white"/>
<path d="M26.8356 25.5591H3.06433C2.85769 25.5591 2.69043 25.7263 2.69043 25.933C2.69043 26.1396 2.85769 26.3069 3.06433 26.3069H26.8356C27.0422 26.3069 27.2095 26.1396 27.2095 25.933C27.2095 25.7263 27.0422 25.5591 26.8356 25.5591Z" fill="white"/>
<path d="M27.1584 10.7268L15.2726 3.93541C15.1581 3.87005 15.0171 3.86979 14.9026 3.9349L2.93882 10.7263C2.75921 10.8282 2.69642 11.0565 2.79832 11.2361C2.86729 11.3576 2.99364 11.4255 3.12384 11.4255C3.18638 11.4255 3.24968 11.4098 3.30809 11.3769L15.0866 4.69042L26.7876 11.3761C26.9662 11.478 27.1947 11.4165 27.2976 11.2369C27.4 11.0578 27.3377 10.8295 27.1584 10.7268Z" fill="white"/>
</svg>
