<svg width="30" height="30" viewBox="0 0 30 30" fill="none" xmlns="http://www.w3.org/2000/svg">
<path d="M27.9662 13.4347L15.4886 2.77137C15.3204 2.62726 15.0721 2.62845 14.9053 2.77406L2.69508 13.3993C2.50898 13.561 2.48962 13.8432 2.65161 14.0293C2.81329 14.2154 3.09558 14.2351 3.28168 14.0728L5.91364 11.7824V26.0698C5.91364 26.3167 6.11344 26.5165 6.36029 26.5165H23.8484C24.0953 26.5165 24.2951 26.3167 24.2951 26.0698V11.4721L27.3859 14.1136C27.4702 14.1857 27.5732 14.2208 27.6759 14.2208C27.8022 14.2208 27.9275 14.1678 28.016 14.0645C28.1762 13.8769 28.1538 13.5949 27.9662 13.4347ZM23.4018 25.6235H6.80694V11.0055L15.2013 3.701L23.4021 10.7092L23.4018 25.6235Z" fill="white"/>
<path d="M14.658 11.9257V16.388H10.1971C9.95029 16.388 9.75049 16.5878 9.75049 16.8346C9.75049 17.0815 9.95029 17.2813 10.1971 17.2813H14.658V21.7418C14.658 21.9887 14.8578 22.1885 15.1046 22.1885C15.3515 22.1885 15.5513 21.9887 15.5513 21.7418V17.2813H20.0121C20.259 17.2813 20.4588 17.0815 20.4588 16.8346C20.4588 16.5878 20.259 16.388 20.0121 16.388H15.5513V11.9257C15.5513 11.6788 15.3515 11.479 15.1046 11.479C14.8578 11.479 14.658 11.6791 14.658 11.9257Z" fill="white"/>
</svg>
