<svg width="30" height="30" viewBox="0 0 30 30" fill="none" xmlns="http://www.w3.org/2000/svg">
<path d="M11.7327 8.01995C11.8508 8.01995 11.9641 7.97301 12.0477 7.88945C12.1313 7.80589 12.1782 7.69257 12.1782 7.5744V5.79222C12.1782 5.67406 12.1313 5.56073 12.0477 5.47718C11.9641 5.39362 11.8508 5.34668 11.7327 5.34668C11.6145 5.34668 11.5012 5.39362 11.4176 5.47718C11.3341 5.56073 11.2871 5.67406 11.2871 5.79222V7.5744C11.2871 7.69257 11.3341 7.80589 11.4176 7.88945C11.5012 7.97301 11.6145 8.01995 11.7327 8.01995Z" fill="white"/>
<path d="M15.594 8.01995C15.7121 8.01995 15.8255 7.97301 15.909 7.88945C15.9926 7.80589 16.0395 7.69257 16.0395 7.5744V5.79222C16.0395 5.67406 15.9926 5.56073 15.909 5.47718C15.8255 5.39362 15.7121 5.34668 15.594 5.34668C15.4758 5.34668 15.3625 5.39362 15.2789 5.47718C15.1954 5.56073 15.1484 5.67406 15.1484 5.79222V7.5744C15.1484 7.69257 15.1954 7.80589 15.2789 7.88945C15.3625 7.97301 15.4758 8.01995 15.594 8.01995Z" fill="white"/>
<path d="M11.2871 14.7028C11.2871 14.821 11.3341 14.9343 11.4176 15.0179C11.5012 15.1014 11.6145 15.1484 11.7327 15.1484C11.8508 15.1484 11.9641 15.1014 12.0477 15.0179C12.1313 14.9343 12.1782 14.821 12.1782 14.7028V12.9206C12.1782 12.8025 12.1313 12.6892 12.0477 12.6056C11.9641 12.522 11.8508 12.4751 11.7327 12.4751C11.6145 12.4751 11.5012 12.522 11.4176 12.6056C11.3341 12.6892 11.2871 12.8025 11.2871 12.9206V14.7028Z" fill="white"/>
<path d="M15.1484 14.7028C15.1484 14.821 15.1954 14.9343 15.2789 15.0179C15.3625 15.1014 15.4758 15.1484 15.594 15.1484C15.7121 15.1484 15.8255 15.1014 15.909 15.0179C15.9926 14.9343 16.0395 14.821 16.0395 14.7028V12.9206C16.0395 12.8025 15.9926 12.6892 15.909 12.6056C15.8255 12.522 15.7121 12.4751 15.594 12.4751C15.4758 12.4751 15.3625 12.522 15.2789 12.6056C15.1954 12.6892 15.1484 12.8025 15.1484 12.9206V14.7028Z" fill="white"/>
<path d="M11.2871 21.8317C11.2871 21.9499 11.3341 22.0632 11.4176 22.1468C11.5012 22.2303 11.6145 22.2773 11.7327 22.2773C11.8508 22.2773 11.9641 22.2303 12.0477 22.1468C12.1313 22.0632 12.1782 21.9499 12.1782 21.8317V20.0495C12.1782 19.9314 12.1313 19.8181 12.0477 19.7345C11.9641 19.6509 11.8508 19.604 11.7327 19.604C11.6145 19.604 11.5012 19.6509 11.4176 19.7345C11.3341 19.8181 11.2871 19.9314 11.2871 20.0495V21.8317Z" fill="white"/>
<path d="M15.1484 21.8317C15.1484 21.9499 15.1954 22.0632 15.2789 22.1468C15.3625 22.2303 15.4758 22.2773 15.594 22.2773C15.7121 22.2773 15.8255 22.2303 15.909 22.1468C15.9926 22.0632 16.0395 21.9499 16.0395 21.8317V20.0495C16.0395 19.9314 15.9926 19.8181 15.909 19.7345C15.8255 19.6509 15.7121 19.604 15.594 19.604C15.4758 19.604 15.3625 19.6509 15.2789 19.7345C15.1954 19.8181 15.1484 19.9314 15.1484 20.0495V21.8317Z" fill="white"/>
<path d="M4.60399 12.7725C4.48583 12.7725 4.3725 12.8194 4.28894 12.903C4.20539 12.9865 4.15845 13.0998 4.15845 13.218V15.0002C4.15845 15.1183 4.20539 15.2317 4.28894 15.3152C4.3725 15.3988 4.48583 15.4457 4.60399 15.4457C4.72216 15.4457 4.83548 15.3988 4.91904 15.3152C5.0026 15.2317 5.04954 15.1183 5.04954 15.0002V13.218C5.04954 13.0998 5.0026 12.9865 4.91904 12.903C4.83548 12.8194 4.72216 12.7725 4.60399 12.7725Z" fill="white"/>
<path d="M21.3862 15.594V17.3762C21.3862 17.4943 21.4332 17.6077 21.5167 17.6912C21.6003 17.7748 21.7136 17.8217 21.8318 17.8217C21.9499 17.8217 22.0633 17.7748 22.1468 17.6912C22.2304 17.6077 22.2773 17.4943 22.2773 17.3762V15.594C22.2773 15.4758 22.2304 15.3625 22.1468 15.2789C22.0633 15.1954 21.9499 15.1484 21.8318 15.1484C21.7136 15.1484 21.6003 15.1954 21.5167 15.2789C21.4332 15.3625 21.3862 15.4758 21.3862 15.594Z" fill="white"/>
<path d="M25.6931 15.1484C25.5749 15.1484 25.4616 15.1954 25.3781 15.2789C25.2945 15.3625 25.2476 15.4758 25.2476 15.594V17.3762C25.2476 17.4943 25.2945 17.6077 25.3781 17.6912C25.4616 17.7748 25.5749 17.8217 25.6931 17.8217C25.8113 17.8217 25.9246 17.7748 26.0082 17.6912C26.0917 17.6077 26.1386 17.4943 26.1386 17.3762V15.594C26.1386 15.4758 26.0917 15.3625 26.0082 15.2789C25.9246 15.1954 25.8113 15.1484 25.6931 15.1484Z" fill="white"/>
<path d="M28.9872 11.8161L24.0031 6.51409C23.9618 6.47038 23.9121 6.43547 23.857 6.41148C23.8018 6.38749 23.7424 6.37491 23.6823 6.37448C23.5618 6.37872 23.4469 6.42617 23.3585 6.50815L19.01 10.9903V2.82201C19.01 2.70384 18.9631 2.59052 18.8795 2.50696C18.796 2.42341 18.6826 2.37646 18.5645 2.37646H8.46546C8.34729 2.37646 8.23397 2.42341 8.15041 2.50696C8.06686 2.59052 8.01992 2.70384 8.01992 2.82201V8.91112H1.63378C1.51561 8.91112 1.40229 8.95806 1.31873 9.04162C1.23517 9.12517 1.18823 9.2385 1.18823 9.35666V19.1586C1.18823 19.2768 1.23517 19.3901 1.31873 19.4737C1.40229 19.5572 1.51561 19.6042 1.63378 19.6042C1.75194 19.6042 1.86527 19.5572 1.94882 19.4737C2.03238 19.3901 2.07932 19.2768 2.07932 19.1586V9.80221H8.01992V15.8913C8.01992 16.0095 8.06686 16.1228 8.15041 16.2064C8.23397 16.2899 8.34729 16.3369 8.46546 16.3369C8.58363 16.3369 8.69695 16.2899 8.78051 16.2064C8.86406 16.1228 8.911 16.0095 8.911 15.8913V3.26755H18.1189V25.2478H6.08922C5.97106 25.2478 5.85773 25.2947 5.77418 25.3782C5.69062 25.4618 5.64368 25.5751 5.64368 25.6933C5.64368 25.8115 5.69062 25.9248 5.77418 26.0083C5.85773 26.0919 5.97106 26.1388 6.08922 26.1388H23.911C24.0292 26.1388 24.1425 26.0919 24.2261 26.0083C24.3096 25.9248 24.3566 25.8115 24.3566 25.6933C24.3566 25.5751 24.3096 25.4618 24.2261 25.3782C24.1425 25.2947 24.0292 25.2478 23.911 25.2478H19.01V12.2527L23.6734 7.46458L28.2179 12.2973V18.5646C28.2179 18.6827 28.2649 18.7961 28.3484 18.8796C28.432 18.9632 28.5453 19.0101 28.6635 19.0101C28.7816 19.0101 28.895 18.9632 28.9785 18.8796C29.0621 18.7961 29.109 18.6827 29.109 18.5646V12.119C29.1082 12.0063 29.0647 11.898 28.9872 11.8161Z" fill="white"/>
</svg>
