<svg width="166" height="34" viewBox="0 0 166 34" fill="none" xmlns="http://www.w3.org/2000/svg">
<path d="M62.2377 1.62939C55.9737 1.62939 50.896 6.64955 50.896 12.8426C50.896 15.938 52.1646 18.7408 54.2163 20.7698C56.2685 22.8 61.1035 25.7378 61.387 28.8215C61.4295 29.2838 61.7681 29.6624 62.2377 29.6624C62.7072 29.6624 63.0458 29.2838 63.0883 28.8215C63.3718 25.7378 68.2068 22.8 70.259 20.7698C72.3108 18.7408 73.5793 15.938 73.5793 12.8426C73.5793 6.64955 68.5017 1.62939 62.2377 1.62939Z" fill="#FF4433"/>
<path d="M62.2378 16.7672C64.4301 16.7672 66.2073 15.0101 66.2073 12.8426C66.2073 10.6751 64.4301 8.91797 62.2378 8.91797C60.0454 8.91797 58.2682 10.6751 58.2682 12.8426C58.2682 15.0101 60.0454 16.7672 62.2378 16.7672Z" fill="white"/>
<path d="M86.1037 0.0962315C83.3006 0.356701 81.2878 1.71114 79.96 4.22207C78.9589 6.11829 78.5795 8.0666 78.8113 10.1191C79.0748 12.5258 80.0864 14.5263 82.0571 16.5371L83.0371 17.5373L80.803 22.382C79.5806 25.0492 78.4003 27.6123 78.179 28.0915C77.9472 28.5604 77.7364 29.0709 77.7048 29.2063L77.6416 29.4668H79.2434C81.4986 29.4668 81.5512 29.4251 82.5629 26.9767C83.2795 25.2368 86.0616 19.1939 86.3356 18.7771C86.7255 18.1937 87.1154 18.0686 88.1587 18.2145L89.0439 18.3395V23.8511V29.3626H90.6773H92.3107V14.745V0.117069L90.4981 0.0545578C88.3378 -0.0287933 87.3051 -0.0183754 86.1037 0.0962315ZM88.7172 2.85721L89.0439 2.91972V8.77508C89.0439 14.1303 89.0333 14.6513 88.8542 14.9847C88.5907 15.5056 88.3062 15.5681 86.9573 15.3806C84.3017 15.0159 83.1741 13.9636 82.7737 11.4423C82.5524 10.0253 82.5418 7.7853 82.7631 6.76426C83.2057 4.6805 84.4282 3.33648 86.2302 2.95098C86.9362 2.80512 88.1797 2.75302 88.7172 2.85721Z" fill="#FF4433"/>
<path d="M160.629 8.19411C159.386 8.40249 158.09 9.09013 157.12 10.0695C155.308 11.8928 154.38 14.7579 154.38 18.5504C154.38 21.0717 154.675 22.9471 155.35 24.7808C156.077 26.75 156.973 27.9586 158.332 28.7608C160.124 29.8235 162.611 29.9173 164.602 29.0109C165.877 28.4274 166.257 27.7919 165.835 26.9063C165.74 26.7187 165.614 26.3541 165.551 26.0728C165.477 25.8019 165.372 25.5831 165.319 25.5831C165.266 25.5831 164.792 25.7914 164.276 26.0415C161.768 27.2813 160.081 26.8437 159.017 24.6975C158.322 23.3014 157.9 20.7383 157.995 18.3629C158.132 14.7579 159.007 12.32 160.482 11.4448C161.557 10.8092 162.611 10.903 164.36 11.8303C164.897 12.1116 165.351 12.3095 165.382 12.2679C165.466 12.1324 165.804 10.2258 165.804 9.88196C165.804 9.25683 165.287 8.77757 164.297 8.45458C163.148 8.08993 161.831 7.99615 160.629 8.19411Z" fill="#FF4433"/>
<path d="M131.302 8.25672C131.154 8.27756 130.701 8.46509 130.301 8.65263C128.857 9.32985 128.003 10.528 127.15 13.091C125.843 17.0085 125.822 21.3948 127.108 25.0101C128.003 27.5627 129.805 29.1151 132.408 29.5944C134.305 29.9486 136.603 29.4173 137.951 28.292C138.289 28.0212 138.31 27.9691 138.31 27.3439C138.31 26.5104 137.899 25.3331 137.635 25.406C137.54 25.4373 136.982 25.6769 136.392 25.9478C135.812 26.2083 134.969 26.5 134.537 26.5834C133.82 26.7292 133.683 26.7292 133.093 26.5834C131.723 26.2291 130.722 25.1768 130.195 23.4994C130.079 23.1139 129.995 22.4054 129.964 21.3323L129.9 19.7486H134.168H138.447L138.52 18.7589C138.657 16.946 138.384 14.0183 137.93 12.518C137.34 10.5489 136.392 9.28818 135.001 8.63179C134.221 8.25672 134.168 8.2463 132.883 8.22546C132.155 8.21504 131.449 8.22546 131.302 8.25672ZM133.41 11.1948C134.021 11.5074 134.326 12.07 134.558 13.2369C134.737 14.1225 135.096 16.4876 135.096 16.748C135.096 16.7897 133.884 16.8314 132.398 16.8314H129.7L129.774 16.5397C129.816 16.3834 129.964 15.7374 130.101 15.1123C130.649 12.5597 130.859 11.9762 131.376 11.497C131.934 10.9656 132.756 10.851 133.41 11.1948Z" fill="#FF4433"/>
<path d="M150.376 8.50683C149.828 8.72562 149.48 9.23614 148.205 11.7262C146.751 14.5914 145.381 17.1232 145.223 17.2794C145.139 17.3628 145.107 16.0604 145.107 12.9452V8.49641H143.421H141.735V18.8631V29.2298H143.421H145.107V24.458L145.118 19.6966L145.349 19.9779C145.476 20.1342 146.477 21.9366 147.573 23.9891C149.934 28.4067 150.186 28.8339 150.545 29.1152C150.798 29.3131 150.966 29.334 152.505 29.334C153.801 29.334 154.18 29.3027 154.149 29.209C154.043 28.8026 150.281 21.822 149.523 20.6343C148.932 19.6966 148.669 18.9569 148.669 18.2276C148.658 17.4878 148.806 17.144 149.849 15.3207C150.587 14.0184 153.432 8.59018 153.432 8.46515C153.432 8.36096 150.661 8.40264 150.376 8.50683Z" fill="#FF4433"/>
<path d="M96.4417 18.8843L96.4733 29.2822L98.1384 29.3135L99.7929 29.3447V24.75V20.1658H102.164H104.535V24.6979V29.2405L106.147 29.2093L107.749 29.178V18.8634V8.54882L106.095 8.51757L104.43 8.48631V12.7684V17.0401H102.111H99.7929V12.7684V8.49673H98.1068H96.4207L96.4417 18.8843Z" fill="#FF4433"/>
<path d="M112.829 12.7367C112.744 18.665 112.397 21.6239 111.374 24.885C110.985 26.1561 110.668 26.5416 110.036 26.5624L109.594 26.5728V29.9277V33.293H111.122H112.65V31.3655V29.438H117.023H121.396V31.3655V33.293H122.924H124.452L124.431 29.9277L124.4 26.5728L123.588 26.4791L122.766 26.3957V17.446V8.49625H117.824H112.892L112.829 12.7367ZM119.394 18.8629V26.4166H116.812C115.389 26.4166 114.23 26.3957 114.23 26.3749C114.23 26.3541 114.325 26.0415 114.431 25.6768C115.421 22.4887 116.022 17.7065 116.022 13.1326V11.3093H117.708H119.394V18.8629Z" fill="#FF4433"/>
<path d="M7.5234 29.2928C6.08844 29.2928 4.80915 29.0267 3.68555 28.4945C2.56872 27.9623 1.68202 27.2289 1.02546 26.2942C0.368894 25.3595 0.0270748 24.2883 0 23.0807H4.26427C4.31165 23.8926 4.65009 24.551 5.27958 25.0559C5.90906 25.5607 6.657 25.8132 7.5234 25.8132C8.2138 25.8132 8.82299 25.6597 9.35094 25.3527C9.88567 25.0388 10.3019 24.6056 10.5998 24.0529C10.9044 23.4935 11.0567 22.8521 11.0567 22.1289C11.0567 21.3921 10.901 20.7439 10.5896 20.1844C10.285 19.625 9.86198 19.1883 9.32048 18.8745C8.77899 18.5606 8.15965 18.4003 7.46248 18.3935C6.8533 18.3935 6.26104 18.5197 5.6857 18.7721C5.11713 19.0246 4.67378 19.3691 4.35565 19.8058L0.446734 19.0996L1.43158 8.04681H14.1432V11.6697H5.05621L4.5181 16.9198H4.63994C5.00545 16.4012 5.55709 15.9714 6.29488 15.6303C7.03267 15.2891 7.85845 15.1186 8.77222 15.1186C10.0244 15.1186 11.1413 15.4154 12.1227 16.0089C13.1042 16.6025 13.8792 17.4178 14.4478 18.4549C15.0163 19.4851 15.2972 20.6723 15.2905 22.0163C15.2972 23.4286 14.9723 24.684 14.3158 25.7825C13.666 26.8741 12.7556 27.7338 11.5846 28.3615C10.4204 28.9823 9.06666 29.2928 7.5234 29.2928Z" fill="#FF4433"/>
<path d="M20.2553 29.2723C19.5852 29.2723 19.0099 29.0335 18.5293 28.5559C18.0555 28.0715 17.8186 27.4916 17.8186 26.8161C17.8186 26.1475 18.0555 25.5744 18.5293 25.0968C19.0099 24.6192 19.5852 24.3804 20.2553 24.3804C20.9051 24.3804 21.4737 24.6192 21.961 25.0968C22.4484 25.5744 22.692 26.1475 22.692 26.8161C22.692 27.2664 22.577 27.6792 22.3468 28.0545C22.1235 28.4229 21.829 28.7197 21.4635 28.9448C21.098 29.1631 20.6953 29.2723 20.2553 29.2723Z" fill="#FF4433"/>
<path d="M33.5177 29.4668C31.7714 29.4599 30.2687 29.0267 29.0098 28.167C27.7575 27.3074 26.793 26.0622 26.1161 24.4316C25.446 22.801 25.1144 20.8394 25.1211 18.547C25.1211 16.2614 25.4562 14.3135 26.1263 12.7033C26.8032 11.0932 27.7677 9.86848 29.0199 9.02928C30.2789 8.18326 31.7781 7.76025 33.5177 7.76025C35.2573 7.76025 36.7531 8.18326 38.0053 9.02928C39.2643 9.8753 40.2322 11.1034 40.9091 12.7136C41.586 14.3169 41.921 16.2614 41.9143 18.547C41.9143 20.8462 41.5758 22.8112 40.899 24.4418C40.2289 26.0725 39.2677 27.3176 38.0155 28.1773C36.7633 29.0369 35.264 29.4668 33.5177 29.4668ZM33.5177 25.7927C34.709 25.7927 35.66 25.1889 36.3707 23.9813C37.0814 22.7737 37.4334 20.9622 37.4266 18.547C37.4266 16.9573 37.2642 15.6337 36.9393 14.5762C36.6211 13.5186 36.1676 12.7238 35.5788 12.1916C34.9967 11.6594 34.3096 11.3934 33.5177 11.3934C32.3332 11.3934 31.3856 11.9903 30.6749 13.1843C29.9641 14.3783 29.6054 16.1659 29.5986 18.547C29.5986 20.1571 29.7577 21.5012 30.0758 22.5792C30.4007 23.6504 30.8576 24.4555 31.4465 24.9945C32.0354 25.5266 32.7258 25.7927 33.5177 25.7927Z" fill="#FF4433"/>
</svg>
