<svg width="20" height="20" viewBox="0 0 20 20" fill="none" xmlns="http://www.w3.org/2000/svg">
<path d="M19.9809 4.02688V4.01269C19.9655 3.9727 19.9429 3.93583 19.9143 3.90388C19.8843 3.87252 19.8488 3.84686 19.8095 3.82819C19.771 3.81168 19.7299 3.80207 19.6881 3.7998H0.333333C0.291487 3.80207 0.250375 3.81168 0.211905 3.82819C0.172632 3.84686 0.137127 3.87252 0.107143 3.90388C0.0709002 3.93855 0.0424941 3.98047 0.0238096 4.02688V4.04107C0.0105652 4.07435 0.00253528 4.10945 0 4.14515V16.445C0 16.5391 0.0376273 16.6293 0.104605 16.6959C0.171582 16.7624 0.262422 16.7998 0.357142 16.7998H19.6428C19.7375 16.7998 19.8284 16.7624 19.8954 16.6959C19.9623 16.6293 20 16.5391 20 16.445V4.14515C20.0005 4.10493 19.9941 4.06492 19.9809 4.02688ZM19.2857 15.5225L13.3952 10.2974L19.2857 4.94937V15.5225ZM0.714285 4.94937L6.42856 10.139L0.714285 15.3971V4.94937ZM12.619 10.0302C12.6057 10.0387 12.5929 10.0482 12.5809 10.0585V10.0727L9.99998 12.4168L1.27857 4.49995H18.7214L12.619 10.0302ZM6.95951 10.6191L9.76189 13.1595C9.82737 13.2177 9.91214 13.2499 9.99998 13.2499C10.0878 13.2499 10.1726 13.2177 10.2381 13.1595L12.8571 10.7776L18.8547 16.0902H1.0119L6.95951 10.6191Z" fill="#F77705"/>
</svg>
