<svg width="20" height="20" viewBox="0 0 20 20" fill="none" xmlns="http://www.w3.org/2000/svg">
<path fill-rule="evenodd" clip-rule="evenodd" d="M19.2235 1.2002C19.3102 1.2002 19.4747 1.24559 19.5843 1.30007C19.7259 1.3727 19.8173 1.46349 19.8949 1.60876C19.9543 1.72225 20 1.87205 20 1.94923C20 2.0264 19.2372 5.68985 18.3099 10.0978C17.378 14.5057 16.5878 18.1919 16.5512 18.2918C16.5193 18.3916 16.4188 18.5369 16.3365 18.6141C16.2498 18.6912 16.1081 18.7684 16.0031 18.7866C15.9026 18.8047 15.7473 18.8047 15.6605 18.7866C15.5554 18.7639 14.6007 18.1147 10.3709 15.114L9.11926 16.2898C8.43407 16.9344 7.8037 17.4883 7.72148 17.5246C7.64383 17.5609 7.50679 17.5881 7.42457 17.5881C7.34691 17.5881 7.18704 17.5427 7.07741 17.4883C6.96321 17.4292 6.83531 17.3339 6.78963 17.2704C6.74395 17.2068 6.24148 15.8994 5.67963 14.365C5.11321 12.8306 4.64728 11.5686 4.63815 11.5641C4.63358 11.5595 3.68346 11.1782 2.52778 10.7152C1.3721 10.2476 0.376296 9.8345 0.316913 9.7891C0.257531 9.74825 0.17074 9.662 0.120493 9.59844C0.0702465 9.53489 0.0199996 9.39416 0.00629591 9.28067C-0.0074078 9.16718 0.00172801 9.00376 0.0291354 8.9175C0.0611107 8.83125 0.138765 8.70414 0.207284 8.63605C0.30321 8.54072 1.49543 8.05498 4.94877 6.71126C7.48852 5.72163 11.7001 4.0783 14.313 3.05689C17.1862 1.93561 19.1275 1.20473 19.2235 1.2002V1.2002ZM5.04012 7.24239C2.60543 8.19117 0.590987 8.98106 0.572716 8.99922C0.549876 9.01737 0.536172 9.09001 0.536172 9.16718C0.536172 9.24435 0.549876 9.31699 0.572716 9.33514C0.590987 9.3533 1.52284 9.73917 2.64197 10.1886C3.76111 10.638 4.7158 11.0193 4.76605 11.033C4.83 11.0557 6.28259 10.2839 9.85012 8.3319C13.9156 6.1075 14.8657 5.6036 14.9844 5.61268C15.0941 5.62176 15.1443 5.65354 15.1763 5.73979C15.1991 5.80334 15.2037 5.88959 15.19 5.93045C15.1717 5.97585 13.4953 7.48753 11.4626 9.28975C8.05951 12.3131 7.7763 12.5764 7.84481 12.6445C7.88593 12.6854 9.67654 13.9655 11.8235 15.4908C14.3769 17.3067 15.7701 18.2691 15.8432 18.2691C15.9072 18.2736 15.9802 18.2464 16.0122 18.2146C16.0396 18.1828 16.8253 14.5466 17.7572 10.1296C18.689 5.71709 19.4519 2.05364 19.4519 1.98101C19.4519 1.91291 19.429 1.8312 19.397 1.79942C19.3651 1.76764 19.2874 1.74495 19.2235 1.74949C19.1595 1.74949 16.9395 2.59839 14.2901 3.63342C11.6407 4.66844 7.47481 6.29362 5.04012 7.24239ZM5.20914 11.4778C5.2 11.4778 5.61111 12.6218 6.12272 14.0155L7.05 16.5531C7.08654 13.2301 7.11395 12.4493 7.14136 12.4221C7.16877 12.3994 8.47062 11.2418 10.042 9.84812C11.6133 8.45446 12.9152 7.29687 12.938 7.27871C12.9654 7.25601 12.9746 7.23785 12.9609 7.23785C12.9517 7.23785 11.2068 8.19117 9.08272 9.35784C6.95864 10.52 5.21827 11.4733 5.20914 11.4778ZM7.57531 17.0207C8.16 16.4578 8.68531 15.9539 9.11469 15.5453C9.54864 15.1322 9.8958 14.7872 9.88667 14.7736C9.87753 14.76 9.37963 14.4013 8.78123 13.9746C8.17827 13.5479 7.66667 13.1847 7.63926 13.1666C7.59815 13.1439 7.58444 13.6251 7.57988 15.0777L7.57531 17.0207Z" fill="#F77705"/>
</svg>
