<svg width="20" height="20" viewBox="0 0 20 20" fill="none" xmlns="http://www.w3.org/2000/svg">
<g clip-path="url(#clip0_4538_435)">
<path d="M12.8178 14.1263C12.7695 14.0483 12.6923 13.9926 12.603 13.9714C12.5137 13.9501 12.4197 13.9651 12.3414 14.0131L9.94555 15.4919C9.55121 15.7226 9.08419 15.7957 8.63813 15.6967C8.19207 15.5977 7.79996 15.3339 7.54043 14.9581L4.28196 9.68286C4.05171 9.30833 3.97961 8.8578 4.0815 8.4302C4.1834 8.00261 4.45095 7.63288 4.82543 7.40222L7.31148 5.86792C7.38955 5.8197 7.44532 5.74253 7.46656 5.65331C7.4878 5.56409 7.47278 5.4701 7.4248 5.39192L5.35964 2.04375C5.31138 1.96574 5.23414 1.91003 5.14485 1.8888C5.05556 1.86758 4.96149 1.88258 4.88324 1.93052L2.39719 3.47175C-0.357131 5.1701 -0.262314 9.63664 2.64464 14.3319C3.9767 16.4878 5.65103 18.2023 7.36005 19.159C8.23968 19.6825 9.2389 19.972 10.2624 20.0001C11.0124 20.0063 11.7489 19.8013 12.3877 19.4085L14.7697 17.9412C14.8477 17.893 14.9035 17.8158 14.9247 17.7266C14.946 17.6374 14.9309 17.5434 14.883 17.4652L12.8178 14.1263ZM12.0246 18.817C10.5098 19.7413 8.83781 19.189 7.7 18.5536C6.08118 17.6547 4.50629 16.0257 3.23666 13.9692C0.551724 9.62047 0.357465 5.54674 2.77414 4.06328L4.96418 2.71153L6.66164 5.45893L4.46929 6.81068C3.93928 7.13898 3.56112 7.66379 3.41764 8.27014C3.27417 8.87649 3.37707 9.51495 3.70381 10.0456L6.9484 15.3209C7.30405 15.854 7.85112 16.2302 8.47652 16.3717C9.10192 16.5132 9.75783 16.4092 10.3086 16.0811L12.4085 14.7848L14.1082 17.5253L12.0246 18.817Z" fill="#F77705"/>
<path d="M9.89229 5.98568C10.484 6.01964 11.0599 6.18946 11.5753 6.48196C12.0907 6.77445 12.5316 7.18174 12.8638 7.67217C13.196 8.1626 13.4106 8.72296 13.4909 9.30971C13.5711 9.89647 13.5149 10.4938 13.3265 11.0553C13.3121 11.0986 13.3063 11.1442 13.3096 11.1897C13.3128 11.2351 13.325 11.2795 13.3454 11.3203C13.3658 11.3611 13.394 11.3974 13.4285 11.4273C13.4629 11.4571 13.5029 11.4799 13.5462 11.4943C13.5895 11.5088 13.6352 11.5145 13.6807 11.5113C13.7262 11.5081 13.7706 11.4959 13.8114 11.4755C13.8522 11.4551 13.8886 11.4269 13.9185 11.3925C13.9484 11.358 13.9712 11.3181 13.9856 11.2748C14.2084 10.6123 14.2752 9.90732 14.1808 9.21478C14.0864 8.52224 13.8333 7.86081 13.4412 7.28196C13.0492 6.70311 12.5288 6.22245 11.9204 5.87738C11.3121 5.53232 10.6323 5.33216 9.93392 5.29248C9.88821 5.28903 9.84228 5.29479 9.79884 5.30941C9.7554 5.32404 9.71535 5.34723 9.68105 5.37762C9.64676 5.40801 9.61892 5.44497 9.59919 5.48631C9.57947 5.52765 9.56825 5.57253 9.56621 5.61828C9.5634 5.66382 9.5696 5.70946 9.58448 5.75259C9.59936 5.79572 9.62261 5.8355 9.6529 5.86963C9.6832 5.90376 9.71994 5.93158 9.76102 5.9515C9.8021 5.97141 9.84671 5.98303 9.89229 5.98568Z" fill="#F77705"/>
<path d="M10.5051 2.48025C10.4596 2.47509 10.4134 2.47895 10.3694 2.4916C10.3253 2.50425 10.2842 2.52545 10.2483 2.55399C10.2125 2.58252 10.1826 2.61784 10.1604 2.65792C10.1382 2.698 10.1241 2.74205 10.1189 2.78757C10.1138 2.83308 10.1176 2.87917 10.1303 2.9232C10.1429 2.96722 10.1642 3.00832 10.1927 3.04416C10.2213 3.07999 10.2566 3.10985 10.2967 3.13204C10.3369 3.15422 10.3809 3.16829 10.4265 3.17345C11.3953 3.28308 12.3285 3.60244 13.1611 4.10929C13.9938 4.61614 14.7058 5.29828 15.2475 6.1082C15.7893 6.91811 16.1479 7.83632 16.2982 8.79884C16.4485 9.76136 16.3869 10.7451 16.1178 11.6814C16.1029 11.7257 16.0972 11.7726 16.1009 11.8192C16.1047 11.8659 16.1178 11.9113 16.1395 11.9527C16.1613 11.9941 16.1912 12.0307 16.2275 12.0602C16.2638 12.0898 16.3057 12.1117 16.3506 12.1247C16.3956 12.1376 16.4428 12.1413 16.4892 12.1356C16.5357 12.1299 16.5805 12.1148 16.621 12.0913C16.6615 12.0678 16.6968 12.0364 16.7247 11.9989C16.7527 11.9614 16.7728 11.9186 16.7839 11.8732C17.0816 10.8398 17.1502 9.75391 16.9848 8.69131C16.8195 7.62871 16.4241 6.61493 15.8263 5.72067C15.2286 4.82642 14.4428 4.0732 13.5237 3.51354C12.6047 2.95389 11.5746 2.60126 10.5051 2.48025Z" fill="#F77705"/>
<path d="M17.9934 4.42125C17.2192 3.23013 16.1978 2.2192 14.9984 1.45694C13.799 0.69469 12.4496 0.19892 11.0417 0.0032233C10.9497 -0.00933973 10.8565 0.0151287 10.7825 0.0712459C10.7086 0.127363 10.66 0.210532 10.6474 0.302457C10.6348 0.394381 10.6593 0.487531 10.7155 0.561415C10.7716 0.635299 10.8549 0.683865 10.9469 0.696428C12.2456 0.876878 13.491 1.33154 14.6002 2.03017C15.7094 2.7288 16.657 3.65539 17.38 4.74832C18.1031 5.84125 18.5849 7.07546 18.7936 8.36888C19.0022 9.6623 18.9328 10.9853 18.5901 12.2498C18.5782 12.2938 18.5752 12.3397 18.5811 12.3849C18.587 12.4301 18.6017 12.4737 18.6245 12.5131C18.6473 12.5526 18.6776 12.5872 18.7137 12.615C18.7499 12.6428 18.7912 12.6632 18.8352 12.675C18.8792 12.6868 18.9252 12.6899 18.9704 12.684C19.0156 12.6781 19.0592 12.6633 19.0987 12.6406C19.1382 12.6178 19.1729 12.5876 19.2007 12.5514C19.2285 12.5153 19.2489 12.4741 19.2607 12.4301C19.6249 11.0811 19.7003 9.67062 19.4819 8.29062C19.2635 6.9106 18.7563 5.59213 17.9934 4.42125Z" fill="#F77705"/>
</g>
<defs>
<clipPath id="clip0_4538_435">
<rect width="20" height="20" fill="white"/>
</clipPath>
</defs>
</svg>
