<svg width="20" height="20" viewBox="0 0 20 20" fill="none" xmlns="http://www.w3.org/2000/svg">
<g clip-path="url(#clip0_4764_1453)">
<path d="M12.8178 14.1258C12.7695 14.0478 12.6923 13.9921 12.603 13.9709C12.5137 13.9496 12.4197 13.9646 12.3414 14.0126L9.94555 15.4914C9.55121 15.7221 9.08419 15.7952 8.63813 15.6962C8.19207 15.5972 7.79996 15.3334 7.54043 14.9577L4.28196 9.68237C4.05171 9.30784 3.97961 8.85731 4.0815 8.42972C4.1834 8.00212 4.45095 7.6324 4.82543 7.40173L7.31148 5.86744C7.38955 5.81921 7.44532 5.74204 7.46656 5.65282C7.4878 5.56361 7.47278 5.46961 7.4248 5.39143L5.35964 2.04326C5.31138 1.96525 5.23414 1.90954 5.14485 1.88832C5.05556 1.86709 4.96149 1.8821 4.88324 1.93003L2.39719 3.47126C-0.357131 5.16961 -0.262314 9.63616 2.64464 14.3315C3.9767 16.4873 5.65103 18.2019 7.36005 19.1585C8.23968 19.682 9.2389 19.9716 10.2624 19.9996C11.0124 20.0058 11.7489 19.8008 12.3877 19.408L14.7697 17.9407C14.8477 17.8925 14.9035 17.8154 14.9247 17.7261C14.946 17.6369 14.9309 17.5429 14.883 17.4647L12.8178 14.1258ZM12.0246 18.8165C10.5098 19.7408 8.83781 19.1885 7.7 18.5531C6.08118 17.6542 4.50629 16.0252 3.23666 13.9687C0.551724 9.61998 0.357465 5.54625 2.77414 4.06279L4.96418 2.71104L6.66164 5.45844L4.46929 6.81019C3.93928 7.13849 3.56112 7.6633 3.41764 8.26965C3.27417 8.87601 3.37707 9.51446 3.70381 10.0451L6.9484 15.3204C7.30405 15.8536 7.85112 16.2298 8.47652 16.3712C9.10192 16.5127 9.75783 16.4087 10.3086 16.0806L12.4085 14.7844L14.1082 17.5248L12.0246 18.8165Z" fill="white"/>
<path d="M9.89241 5.98519C10.4841 6.01915 11.0601 6.18897 11.5754 6.48147C12.0908 6.77396 12.5317 7.18125 12.8639 7.67168C13.1962 8.16211 13.4107 8.72247 13.491 9.30923C13.5712 9.89598 13.515 10.4933 13.3266 11.0548C13.3122 11.0981 13.3065 11.1437 13.3097 11.1892C13.3129 11.2347 13.3251 11.279 13.3455 11.3198C13.3659 11.3606 13.3941 11.3969 13.4286 11.4268C13.463 11.4567 13.5031 11.4794 13.5463 11.4939C13.5896 11.5083 13.6353 11.514 13.6808 11.5108C13.7263 11.5076 13.7707 11.4954 13.8115 11.475C13.8523 11.4546 13.8887 11.4264 13.9186 11.392C13.9485 11.3576 13.9713 11.3176 13.9857 11.2743C14.2085 10.6118 14.2753 9.90684 14.1809 9.2143C14.0865 8.52176 13.8334 7.86032 13.4414 7.28147C13.0493 6.70262 12.5289 6.22196 11.9206 5.87689C11.3122 5.53183 10.6324 5.33167 9.93404 5.29199C9.88833 5.28854 9.8424 5.2943 9.79896 5.30892C9.75552 5.32355 9.71547 5.34674 9.68117 5.37713C9.64688 5.40752 9.61904 5.44448 9.59931 5.48582C9.57959 5.52716 9.56837 5.57204 9.56633 5.61779C9.56352 5.66333 9.56973 5.70897 9.5846 5.7521C9.59948 5.79523 9.62273 5.83501 9.65303 5.86914C9.68332 5.90327 9.72006 5.9311 9.76114 5.95101C9.80222 5.97093 9.84683 5.98254 9.89241 5.98519Z" fill="white"/>
<path d="M10.5051 2.48073C10.4596 2.47558 10.4134 2.47943 10.3694 2.49209C10.3253 2.50474 10.2842 2.52594 10.2483 2.55448C10.2125 2.58301 10.1826 2.61833 10.1604 2.65841C10.1382 2.69848 10.1241 2.74254 10.1189 2.78806C10.1138 2.83357 10.1176 2.87966 10.1303 2.92368C10.1429 2.96771 10.1642 3.00881 10.1927 3.04465C10.2213 3.08048 10.2566 3.11034 10.2967 3.13252C10.3369 3.15471 10.3809 3.16878 10.4265 3.17394C11.3953 3.28357 12.3285 3.60293 13.1611 4.10978C13.9938 4.61663 14.7058 5.29877 15.2475 6.10869C15.7893 6.9186 16.1479 7.8368 16.2982 8.79933C16.4485 9.76185 16.3869 10.7455 16.1178 11.6819C16.1029 11.7262 16.0972 11.7731 16.1009 11.8197C16.1047 11.8664 16.1178 11.9117 16.1395 11.9532C16.1613 11.9946 16.1912 12.0312 16.2275 12.0607C16.2638 12.0903 16.3057 12.1122 16.3506 12.1252C16.3956 12.1381 16.4428 12.1418 16.4892 12.1361C16.5357 12.1304 16.5805 12.1153 16.621 12.0918C16.6615 12.0683 16.6968 12.0369 16.7247 11.9994C16.7527 11.9619 16.7728 11.9191 16.7839 11.8737C17.0816 10.8403 17.1502 9.7544 16.9848 8.6918C16.8195 7.62919 16.4241 6.61542 15.8263 5.72116C15.2286 4.82691 14.4428 4.07369 13.5237 3.51403C12.6047 2.95437 11.5746 2.60175 10.5051 2.48073Z" fill="white"/>
<path d="M17.9935 4.42125C17.2193 3.23013 16.1979 2.2192 14.9985 1.45694C13.7991 0.69469 12.4497 0.19892 11.0418 0.0032233C10.9498 -0.00933973 10.8566 0.0151287 10.7826 0.0712459C10.7087 0.127363 10.6601 0.210532 10.6475 0.302457C10.6349 0.394381 10.6594 0.487531 10.7156 0.561415C10.7718 0.635299 10.855 0.683865 10.947 0.696428C12.2457 0.876878 13.4911 1.33154 14.6003 2.03017C15.7095 2.7288 16.6571 3.65539 17.3802 4.74832C18.1032 5.84125 18.585 7.07546 18.7937 8.36888C19.0023 9.6623 18.9329 10.9853 18.5902 12.2498C18.5783 12.2938 18.5753 12.3397 18.5812 12.3849C18.5871 12.4301 18.6019 12.4737 18.6246 12.5131C18.6474 12.5526 18.6777 12.5872 18.7139 12.615C18.75 12.6428 18.7913 12.6632 18.8353 12.675C18.8793 12.6868 18.9253 12.6899 18.9705 12.684C19.0157 12.6781 19.0593 12.6633 19.0988 12.6406C19.1384 12.6178 19.173 12.5876 19.2008 12.5514C19.2286 12.5153 19.249 12.4741 19.2608 12.4301C19.625 11.0811 19.7004 9.67062 19.482 8.29062C19.2636 6.9106 18.7564 5.59213 17.9935 4.42125Z" fill="white"/>
</g>
<defs>
<clipPath id="clip0_4764_1453">
<rect width="20" height="20" fill="white"/>
</clipPath>
</defs>
</svg>
